<?xml version="1.0" ?>
<!-- Uploaded to: SVG Repo, www.svgrepo.com, Generator: SVG Repo Mixer Tools -->
<svg fill="#000000" width="800px" height="800px" viewBox="0 0 512 512" id="icon" version="1.1" xml:space="preserve" xmlns="http://www.w3.org/2000/svg" xmlns:xlink="http://www.w3.org/1999/xlink">
<g>
<path d="M420.6647644,404.3554993c-13.6771851,16.1630859-33.6224976,25.4296875-54.7188721,25.4296875   c-21.0963135,0-41.0390015-9.2666016-54.716217-25.4296875c-2.0126648-2.3696899-6.0741882-2.3696899-8.0868835,0   c-13.677002,16.1630859-33.6197815,25.4296875-54.716217,25.4296875c-19.5157928,0-37.7769928-7.7397766-51.4204865-21.7924805   c-1.9919128-2.0591125-5.6059113-2.0591125-7.6030121,0c-13.6382904,14.0527039-31.8994904,21.7924805-51.4151917,21.7924805   c-19.0296021,0-36.9596024-7.3881836-50.4841995-20.8041992c-2.0799026-2.0644836-5.4376831-2.0488892-7.4916,0.0312195   c-2.0617981,2.0741882-2.046402,5.4320984,0.0310974,7.4911804c15.5214005,15.3980103,36.100502,23.8778992,57.9447021,23.8778992   c20.6383972,0,40.050705-7.5331726,55.2180023-21.3265991c15.169693,13.7934265,34.5821991,21.3265991,55.2206879,21.3265991   c22.2141113,0,43.3080139-8.9458008,58.7597046-24.7362976c15.4519043,15.7904968,36.5455017,24.7362976,58.759613,24.7362976   c24.2215881,0,47.1132813-10.6375732,62.8055725-29.1756897c1.8911133-2.2348938,1.6117249-5.5772095-0.6208801-7.4707031   C425.8980713,401.8511047,422.5531616,402.1254883,420.6647644,404.3554993z"/>
<path d="M433.4828796,163.4188995c-0.2843933-2.266098-1.9890137-4.0926971-4.2268066-4.5375977   c-0.1112061-0.0209045-2.6620789-0.5332031-6.3483887-1.6352081c-3.5053101-0.9570007-8.2936707-2.5712891-13.4081116-4.5269012   c-5.4013977-2.1625977-9.6855774-4.0458984-12.7510986-5.6083984l-0.258606-0.1293945l0.2611389-0.3778992   c2.6234741-3.7142944,5.6707764-8.7904968,7.8074646-12.4687042c1.9455261-3.4716949,4.6592102-8.5004959,6.4803162-12.6454926   c1.7150879-3.6475067,2.5662842-6.1099014,2.5662842-6.1099014c0.6983948-2.0230026,0.1137085-4.2733994-1.4849854-5.6963043   c-1.5987244-1.4125977-3.8882141-1.7435989-5.8258057-0.8173981c-0.0310974,0.0151978-3.1066895,1.4897995-8.9457092,3.580101   c-8.4693909,3.0214996-17.0555725,5.2670975-25.5252075,6.6791992   c-12.4197998,2.0752029-24.4153748,2.3183975-35.6427002,0.7246017c-6.4000854-0.9263-12.7251892-2.4780045-18.39328-4.4443054   c-1.3345947-0.5951996-2.7033081-1.1176987-4.0743103-1.6401978c-1.8623962-0.703598-3.6192017-1.3661957-5.1918945-2.219696   l-9.7191772-5.2148056c-8.6059875-5.1196976-18.1456299-8.8539963-27.8096313-11.1005936v-6.8584061   c0-9.2348938-7.5148926-16.7528992-16.7528839-16.7528992c-9.2380066,0-16.753006,7.5180054-16.753006,16.7528992v216.0298004   c-52.008194,4.555603-99.4830933,30.0448914-127.5739975,69.0560913   c-8.2486954-3.5160828-15.853302-8.5692749-22.4087982-15.0717773c-2.0799026-2.0644226-5.4376831-2.0487976-7.4916,0.0307922   c-2.0617981,2.074707-2.046402,5.4331055,0.0310974,7.4921875c8.5277023,8.4590149,18.6151047,14.7441101,29.5671997,18.7676086   c0.3283005,0.1494141,0.6546173,0.2778015,0.9969025,0.3544922c8.6934967,3.0668945,17.9006042,4.7553101,27.3806,4.7553101   c20.6383972,0,40.050705-7.5332031,55.2180023-21.3270874c15.169693,13.7938843,34.5821991,21.3270874,55.2206879,21.3270874   c22.2141113,0,43.3080139-8.9458008,58.7597046-24.7368164c15.4519043,15.7910156,36.5455017,24.7368164,58.759613,24.7368164   c10.7104797,0,21.1155701-2.1899109,30.7986755-6.1137085c0.4040222-0.077179,0.7752075-0.289093,1.1600037-0.464386   c11.752594-4.9717102,22.3704224-12.5834961,30.8468933-22.5975952c1.8911133-2.2349243,1.6117249-5.5772095-0.6208801-7.4712219   c-2.2350159-1.8779907-5.5774231-1.6196899-7.4658203,0.6206055c-6.5105896,7.6947937-14.4706726,13.7680054-23.2700806,18.0800171   c-28.5555115-38.6552124-74.6646729-63.1025085-126.4023132-67.4707031V164.4897003l11.7344971,6.3018036   c3.4742126,1.8109894,7.0131226,3.1768036,10.438324,4.4960938c1.4950867,0.5796051,2.9878235,1.1538086,4.7262878,1.8677063   c9.7836914,3.4510956,19.9425964,5.9501953,30.2102051,7.4194031c7.5510864,1.0658875,15.2655945,1.598587,23.0960999,1.598587   c9.887207,0,19.9606934-0.848587,30.1377869-2.5453949c12.0784912-2.0229034,23.7637024-5.0809937,35.7256165-9.3491058   c8.3685913-2.9955902,13.2528992-5.3237,13.4546814-5.4169922   C432.5751648,167.8735046,433.7675781,165.6797028,433.4828796,163.4188995z M248.0825806,88.3715973   c0-3.3940964,2.7628937-6.1567993,6.1569061-6.1567993c3.3939972,0,6.1569061,2.7627029,6.1569061,6.1567993v67.4990082   c0,0.0048981,0,0.0083008,0,0.0131989V303.7612c-2.0512085-0.063385-4.0919189-0.171814-6.1569061-0.171814   c-2.0611115,0-4.105484,0.1137085-6.1569061,0.1796265V88.3715973z M387.2025757,375.8862   c-6.8138123,2.1231079-13.9548035,3.3037109-21.2566833,3.3037109c-21.0963135,0-41.0390015-9.2666016-54.716217-25.4301147   c-2.0126648-2.3692017-6.0741882-2.3692017-8.0868835,0c-13.677002,16.1635132-33.6197815,25.4301147-54.716217,25.4301147   c-19.5157928,0-37.7769928-7.7402039-51.4204865-21.7924194c-1.9919128-2.059082-5.6059113-2.059082-7.6030121,0   c-13.6382904,14.0522156-31.8994904,21.7924194-51.4151917,21.7924194c-5.9902039,0-11.8460007-0.8139038-17.5151978-2.235321   c29.4389038-38.8666992,79.9391022-62.7695007,133.7667999-62.7695007   C308.2798767,314.1850891,357.3957825,337.1478882,387.2025757,375.8862z M379.589386,173.1768036   c-17.1747131,2.855896-33.9973755,3.1665039-49.9949951,0.9051971c-9.5692139-1.3710938-19.0476074-3.6992035-27.9131165-6.8188019   c-1.5522766-0.6416016-3.127594-1.2525024-4.7055969-1.862793c-3.290802-1.2676086-6.4028015-2.467804-9.2897949-3.9736023   l-13.2243042-7.0933075c-1.1069031-0.6596985-2.2583923-1.269989-3.4692078-1.8651886V106.089798   c7.7910156,2.0547028,15.4665222,5.224205,22.5917969,9.4599991l9.9078369,5.3242035   c2.1860657,1.1797028,4.3617859,2.0073013,6.4674683,2.8041992c1.1820984,0.4448013,2.3669128,0.8901978,3.91922,1.5625   c6.7154846,2.3540039,13.708313,4.0718002,20.7963867,5.096199c12.3189087,1.7539063,25.4089966,1.5005035,38.8945007-0.7606964   c8.2366943-1.3706055,16.5694275-3.4820023,24.8061829-6.2700043c-0.9107666,1.7534027-1.9299927,3.6313019-3.0189819,5.571701   c-2.850708,4.910202-5.3627014,8.9302063-7.2796021,11.641098l-3.7692871,5.4073029   c-0.8770142,1.262207-1.1667175,2.839798-0.7914124,4.324707c0.375,1.4901886,1.3786011,2.7421875,2.7496948,3.4354858   l5.6860962,2.8716125c3.3294983,1.7021942,7.9111023,3.7201996,13.6875,6.0326996   c2.1600952,0.8227997,4.2608032,1.5883942,6.2423096,2.2763977   C401.0815735,168.6289063,390.4984741,171.3500977,379.589386,173.1768036z"/>
</g>
</svg>