<?xml version="1.0" encoding="UTF-8"?>
<!-- Generator: visioncortex VTracer 0.6.3 -->
<svg version="1.1" xmlns="http://www.w3.org/2000/svg" width="1280" height="1280">
<path d="M0 0 C1.99 0 3.98 -0 5.97 -0.01 C10.13 -0.01 14.29 0.02 18.45 0.06 C23.77 0.11 29.09 0.11 34.41 0.09 C38.52 0.08 42.62 0.09 46.73 0.11 C48.69 0.12 50.65 0.12 52.61 0.12 C55.36 0.11 58.1 0.14 60.85 0.18 C61.65 0.17 62.46 0.17 63.28 0.16 C69.07 0.29 72.5 1.98 76.78 5.86 C81.38 10.93 82.08 16.17 82.07 22.83 C82.08 24.01 82.08 24.01 82.09 25.21 C82.11 27.81 82.11 30.41 82.11 33 C82.12 34.82 82.13 36.63 82.13 38.44 C82.15 42.24 82.15 46.03 82.15 49.83 C82.15 54.68 82.18 59.53 82.21 64.39 C82.23 68.13 82.24 71.87 82.23 75.62 C82.24 77.4 82.25 79.19 82.26 80.98 C82.28 83.49 82.28 86 82.26 88.5 C82.27 89.23 82.29 89.96 82.3 90.72 C82.22 97.01 80.05 101.93 76.21 106.88 C71.53 110.95 66.98 112.59 60.78 112.86 C55.74 112.27 50.65 110.85 47.11 107.09 C46.36 106.08 46.36 106.08 45.59 105.05 C45.08 104.38 44.57 103.71 44.05 103.03 C41.62 98.89 41.62 94.39 41.46 89.68 C41.42 88.53 41.38 87.37 41.33 86.18 C41.29 84.98 41.26 83.78 41.21 82.55 C41.15 80.72 41.15 80.72 41.08 78.86 C40.98 75.86 40.88 72.86 40.78 69.86 C39.66 70.8 38.55 71.75 37.44 72.7 C36.82 73.23 36.2 73.75 35.56 74.3 C33.19 76.38 30.98 78.6 28.78 80.86 C-206.22 315.86 -206.22 315.86 -209.04 318.42 C-211.67 320.81 -211.67 320.81 -211.22 324.86 C-209.6 326.81 -208.02 328.48 -206.19 330.21 C-205.68 330.71 -205.17 331.21 -204.64 331.73 C-203.01 333.32 -201.37 334.9 -199.72 336.48 C-198.08 338.07 -196.44 339.67 -194.8 341.26 C-193.78 342.26 -192.76 343.25 -191.73 344.23 C-190.52 345.4 -189.37 346.63 -188.22 347.86 C-188.22 348.52 -188.22 349.18 -188.22 349.86 C-187.56 349.86 -186.9 349.86 -186.22 349.86 C-184.81 351.85 -183.54 353.83 -182.29 355.92 C-181.6 357.05 -180.91 358.17 -180.2 359.33 C-174.43 369.31 -172.88 378.32 -172.91 389.67 C-172.89 391.36 -172.89 391.36 -172.86 393.08 C-172.85 408.14 -178.28 421.03 -188.66 431.96 C-189.19 432.52 -189.71 433.08 -190.25 433.65 C-196.12 439.87 -202.17 445.91 -208.24 451.93 C-209.5 453.18 -210.75 454.42 -212 455.67 C-214.67 458.33 -217.34 460.98 -220.01 463.63 C-224.23 467.83 -228.45 472.03 -232.67 476.23 C-234.12 477.67 -235.57 479.12 -237.01 480.56 C-237.74 481.28 -238.46 482 -239.21 482.75 C-249.01 492.51 -258.81 502.27 -268.62 512.01 C-275.27 518.62 -281.91 525.23 -288.54 531.84 C-292.05 535.34 -295.55 538.83 -299.07 542.31 C-302.36 545.58 -305.65 548.85 -308.93 552.13 C-310.14 553.33 -311.34 554.53 -312.56 555.73 C-314.21 557.36 -315.85 559 -317.48 560.64 C-318.4 561.56 -319.32 562.48 -320.27 563.42 C-322.64 565.86 -322.64 565.86 -322.22 569.86 C-321.56 569.86 -320.9 569.86 -320.22 569.86 C-317.6 572.23 -317.6 572.23 -315.22 574.86 C-315.22 575.52 -315.22 576.18 -315.22 576.86 C-314.23 577.19 -313.24 577.52 -312.22 577.86 C-312.22 578.52 -312.22 579.18 -312.22 579.86 C-311.56 579.86 -310.9 579.86 -310.22 579.86 C-307.67 582.33 -305.48 585.13 -303.22 587.86 C-302.63 588.56 -302.03 589.25 -301.42 589.97 C-288.46 605.72 -284.6 623.92 -286.22 643.86 C-287.57 653.75 -290.91 662.4 -296.22 670.86 C-296.69 671.67 -297.16 672.48 -297.65 673.31 C-300.07 677.4 -300.07 677.4 -301.22 678.86 C-301.88 678.86 -302.54 678.86 -303.22 678.86 C-303.48 679.44 -303.74 680.02 -304 680.62 C-305.33 683.06 -306.79 684.66 -308.77 686.61 C-309.5 687.34 -310.24 688.07 -310.99 688.82 C-312.2 690.01 -312.2 690.01 -313.44 691.22 C-314.28 692.06 -315.13 692.9 -316.01 693.77 C-318.33 696.07 -320.66 698.37 -322.99 700.67 C-325.43 703.08 -327.86 705.49 -330.29 707.9 C-338.57 716.12 -346.86 724.34 -355.16 732.53 C-359.75 737.06 -364.33 741.6 -368.9 746.15 C-371.32 748.55 -373.74 750.95 -376.17 753.34 C-378.88 756.01 -381.58 758.69 -384.27 761.37 C-385.08 762.16 -385.89 762.95 -386.72 763.76 C-387.45 764.49 -388.18 765.23 -388.93 765.98 C-389.57 766.61 -390.21 767.25 -390.87 767.9 C-392.61 770.42 -392.58 771.85 -392.22 774.86 C-391.22 777.36 -390.17 779.71 -388.97 782.11 C-388.32 783.45 -387.68 784.8 -387.03 786.14 C-386.71 786.78 -386.4 787.43 -386.08 788.09 C-385.04 790.24 -384.06 792.42 -383.1 794.61 C-381.68 797.83 -380.24 801.03 -378.79 804.23 C-378.15 805.63 -378.15 805.63 -377.5 807.06 C-376.69 808.85 -375.87 810.63 -375.04 812.41 C-372.1 818.77 -369.39 825.22 -366.75 831.72 C-364.96 836.11 -363.11 840.44 -361.05 844.71 C-357.83 853.12 -357.78 861.47 -357.79 870.36 C-357.78 871.43 -357.78 871.43 -357.78 872.53 C-357.81 883.4 -358.49 892.9 -363.22 902.86 C-363.78 904.03 -364.33 905.2 -364.9 906.41 C-368 912.49 -371.42 918.93 -376.22 923.86 C-376.88 923.86 -377.54 923.86 -378.22 923.86 C-378.53 924.66 -378.53 924.66 -378.85 925.47 C-380.79 928.84 -383.46 931.4 -386.2 934.12 C-387.12 935.05 -387.12 935.05 -388.05 936 C-390.07 938.04 -392.11 940.08 -394.14 942.11 C-395.55 943.53 -396.96 944.95 -398.38 946.37 C-401.34 949.34 -404.31 952.32 -407.28 955.29 C-411.07 959.08 -414.86 962.89 -418.64 966.7 C-421.55 969.64 -424.47 972.57 -427.4 975.5 C-428.8 976.9 -430.19 978.3 -431.59 979.71 C-433.54 981.68 -435.5 983.64 -437.47 985.59 C-438.04 986.17 -438.6 986.75 -439.19 987.34 C-443.62 991.7 -448.54 995.19 -454.76 996.32 C-459.25 996.14 -463 995.59 -467.22 993.86 C-467.22 993.2 -467.22 992.54 -467.22 991.86 C-467.81 991.78 -468.4 991.69 -469 991.61 C-471.87 990.64 -472.9 989.26 -474.79 986.92 C-476.9 984.33 -478.4 982.74 -481.22 980.86 C-481.22 980.2 -481.22 979.54 -481.22 978.86 C-482.21 978.53 -483.2 978.2 -484.22 977.86 C-484.22 977.2 -484.22 976.54 -484.22 975.86 C-484.88 975.86 -485.54 975.86 -486.22 975.86 C-486.22 975.2 -486.22 974.54 -486.22 973.86 C-487.21 973.53 -488.2 973.2 -489.22 972.86 C-489.22 972.2 -489.22 971.54 -489.22 970.86 C-489.88 970.86 -490.54 970.86 -491.22 970.86 C-491.22 970.2 -491.22 969.54 -491.22 968.86 C-492.21 968.53 -493.2 968.2 -494.22 967.86 C-494.22 967.2 -494.22 966.54 -494.22 965.86 C-494.88 965.86 -495.54 965.86 -496.22 965.86 C-496.22 965.2 -496.22 964.54 -496.22 963.86 C-497.21 963.53 -498.2 963.2 -499.22 962.86 C-499.22 962.2 -499.22 961.54 -499.22 960.86 C-499.88 960.86 -500.54 960.86 -501.22 960.86 C-502.84 959.18 -502.84 959.18 -504.66 956.98 C-506.81 954.4 -508.39 952.75 -511.22 950.86 C-511.22 950.2 -511.22 949.54 -511.22 948.86 C-512.21 948.53 -513.2 948.2 -514.22 947.86 C-514.22 947.2 -514.22 946.54 -514.22 945.86 C-514.88 945.86 -515.54 945.86 -516.22 945.86 C-516.22 945.2 -516.22 944.54 -516.22 943.86 C-517.21 943.53 -518.2 943.2 -519.22 942.86 C-519.22 942.2 -519.22 941.54 -519.22 940.86 C-519.88 940.86 -520.54 940.86 -521.22 940.86 C-522.84 939.18 -522.84 939.18 -524.66 936.98 C-526.81 934.4 -528.39 932.75 -531.22 930.86 C-531.22 930.2 -531.22 929.54 -531.22 928.86 C-532.21 928.53 -533.2 928.2 -534.22 927.86 C-534.22 927.2 -534.22 926.54 -534.22 925.86 C-534.88 925.86 -535.54 925.86 -536.22 925.86 C-536.22 925.2 -536.22 924.54 -536.22 923.86 C-537.21 923.53 -538.2 923.2 -539.22 922.86 C-539.22 922.2 -539.22 921.54 -539.22 920.86 C-544.1 921.27 -546.55 923.62 -549.82 926.97 C-550.36 927.51 -550.89 928.04 -551.45 928.59 C-553.21 930.34 -554.96 932.11 -556.71 933.88 C-557.93 935.11 -559.15 936.33 -560.38 937.56 C-562.94 940.12 -565.49 942.69 -568.04 945.27 C-571.31 948.57 -574.6 951.86 -577.89 955.15 C-580.41 957.68 -582.93 960.21 -585.45 962.74 C-586.66 963.96 -587.87 965.17 -589.08 966.39 C-590.77 968.08 -592.46 969.78 -594.14 971.49 C-594.64 971.99 -595.15 972.49 -595.66 973.01 C-597.91 975.3 -599.19 976.76 -600.22 979.86 C-599.1 985.68 -596.74 991.1 -594.26 996.45 C-592.65 1000.18 -591.47 1004.04 -590.21 1007.91 C-589.34 1010.5 -588.39 1013.02 -587.35 1015.55 C-585.18 1020.83 -583.32 1026.21 -581.44 1031.6 C-579.79 1036.33 -578 1040.97 -576.09 1045.6 C-575.16 1048.03 -574.43 1050.48 -573.72 1052.98 C-572.83 1056.09 -571.82 1058.83 -570.29 1061.67 C-567.91 1066.14 -566.65 1070.85 -565.23 1075.69 C-564.12 1079.17 -562.71 1082.38 -561.16 1085.68 C-560.14 1088.04 -559.42 1090.39 -558.72 1092.86 C-557.79 1096.13 -556.72 1099.15 -555.29 1102.23 C-553.22 1106.68 -551.73 1111.24 -550.21 1115.91 C-549.34 1118.5 -548.39 1121.02 -547.35 1123.55 C-545.48 1128.1 -543.84 1132.71 -542.22 1137.36 C-538.95 1146.71 -535.36 1155.86 -531.22 1164.86 C-530.9 1165.6 -530.58 1166.35 -530.25 1167.12 C-525.97 1176.45 -516.72 1193.11 -507.22 1197.86 C-507.22 1198.52 -507.22 1199.18 -507.22 1199.86 C-506.56 1199.86 -505.9 1199.86 -505.22 1199.86 C-502.6 1202.23 -502.6 1202.23 -500.22 1204.86 C-500.22 1205.52 -500.22 1206.18 -500.22 1206.86 C-499.23 1207.19 -498.24 1207.52 -497.22 1207.86 C-497.22 1208.52 -497.22 1209.18 -497.22 1209.86 C-496.56 1209.86 -495.9 1209.86 -495.22 1209.86 C-493.67 1211.43 -493.67 1211.43 -491.91 1213.55 C-488.31 1217.77 -484.87 1221.76 -480.22 1224.86 C-480.22 1225.52 -480.22 1226.18 -480.22 1226.86 C-479.23 1227.19 -478.24 1227.52 -477.22 1227.86 C-477.22 1228.52 -477.22 1229.18 -477.22 1229.86 C-476.56 1229.86 -475.9 1229.86 -475.22 1229.86 C-475.22 1230.52 -475.22 1231.18 -475.22 1231.86 C-474.23 1232.19 -473.24 1232.52 -472.22 1232.86 C-472.22 1233.52 -472.22 1234.18 -472.22 1234.86 C-461.08 1240.97 -461.08 1240.97 -448.82 1241.27 C-438.61 1237.61 -431.07 1230.01 -423.55 1222.46 C-422.74 1221.66 -421.93 1220.85 -421.09 1220.01 C-418.42 1217.36 -415.77 1214.71 -413.11 1212.05 C-411.25 1210.19 -409.39 1208.33 -407.53 1206.48 C-403.64 1202.6 -399.76 1198.71 -395.87 1194.83 C-391.4 1190.35 -386.92 1185.87 -382.43 1181.41 C-378.09 1177.09 -373.76 1172.76 -369.44 1168.43 C-367.6 1166.6 -365.77 1164.77 -363.93 1162.94 C-361.36 1160.39 -358.8 1157.82 -356.24 1155.25 C-355.49 1154.5 -354.73 1153.76 -353.95 1152.98 C-346.98 1145.95 -342.22 1138.71 -342.22 1128.5 C-342.74 1122.14 -344.54 1117.32 -349.22 1112.86 C-349.22 1112.2 -349.22 1111.54 -349.22 1110.86 C-349.88 1110.86 -350.54 1110.86 -351.22 1110.86 C-352.77 1109.29 -352.77 1109.29 -354.54 1107.17 C-357.31 1103.91 -360.16 1100.85 -363.22 1097.86 C-378.22 1082.86 -378.22 1082.86 -380.85 1080.17 C-383.19 1077.75 -383.19 1077.75 -386.22 1075.86 C-386.22 1075.2 -386.22 1074.54 -386.22 1073.86 C-387.21 1073.53 -388.2 1073.2 -389.22 1072.86 C-389.22 1072.2 -389.22 1071.54 -389.22 1070.86 C-389.88 1070.86 -390.54 1070.86 -391.22 1070.86 C-391.22 1070.2 -391.22 1069.54 -391.22 1068.86 C-392.21 1068.53 -393.2 1068.2 -394.22 1067.86 C-394.22 1067.2 -394.22 1066.54 -394.22 1065.86 C-394.88 1065.86 -395.54 1065.86 -396.22 1065.86 C-396.22 1065.2 -396.22 1064.54 -396.22 1063.86 C-397.21 1063.53 -398.2 1063.2 -399.22 1062.86 C-399.22 1062.2 -399.22 1061.54 -399.22 1060.86 C-399.88 1060.86 -400.54 1060.86 -401.22 1060.86 C-401.22 1060.2 -401.22 1059.54 -401.22 1058.86 C-402.21 1058.53 -403.2 1058.2 -404.22 1057.86 C-404.22 1057.2 -404.22 1056.54 -404.22 1055.86 C-404.88 1055.86 -405.54 1055.86 -406.22 1055.86 C-406.22 1055.2 -406.22 1054.54 -406.22 1053.86 C-407.21 1053.53 -408.2 1053.2 -409.22 1052.86 C-413.59 1048.59 -414.65 1043.82 -414.91 1037.86 C-414.71 1032.13 -413.7 1028.71 -409.93 1024.41 C-404.47 1019.45 -399.82 1017.41 -392.43 1017.61 C-386.6 1018.27 -382.36 1022.01 -378.22 1025.86 C-378.22 1026.52 -378.22 1027.18 -378.22 1027.86 C-377.26 1028.26 -377.26 1028.26 -376.29 1028.67 C-374.22 1029.86 -374.22 1029.86 -373.22 1032.86 C-372.56 1033.19 -371.9 1033.52 -371.22 1033.86 C-370.56 1034.19 -369.9 1034.52 -369.22 1034.86 C-368.89 1035.85 -368.56 1036.84 -368.22 1037.86 C-367.56 1038.19 -366.9 1038.52 -366.22 1038.86 C-365.56 1039.19 -364.9 1039.52 -364.22 1039.86 C-363.89 1040.85 -363.56 1041.84 -363.22 1042.86 C-362.56 1043.19 -361.9 1043.52 -361.22 1043.86 C-360.56 1044.19 -359.9 1044.52 -359.22 1044.86 C-358.89 1045.85 -358.56 1046.84 -358.22 1047.86 C-357.56 1048.19 -356.9 1048.52 -356.22 1048.86 C-355.56 1049.19 -354.9 1049.52 -354.22 1049.86 C-353.89 1050.85 -353.56 1051.84 -353.22 1052.86 C-352.56 1053.19 -351.9 1053.52 -351.22 1053.86 C-350.56 1054.19 -349.9 1054.52 -349.22 1054.86 C-348.89 1055.85 -348.56 1056.84 -348.22 1057.86 C-347.56 1058.19 -346.9 1058.52 -346.22 1058.86 C-345.56 1059.19 -344.9 1059.52 -344.22 1059.86 C-343.89 1060.85 -343.56 1061.84 -343.22 1062.86 C-342.56 1063.19 -341.9 1063.52 -341.22 1063.86 C-340.56 1064.19 -339.9 1064.52 -339.22 1064.86 C-338.89 1065.85 -338.56 1066.84 -338.22 1067.86 C-337.56 1068.19 -336.9 1068.52 -336.22 1068.86 C-335.56 1069.19 -334.9 1069.52 -334.22 1069.86 C-333.89 1070.85 -333.56 1071.84 -333.22 1072.86 C-332.56 1073.19 -331.9 1073.52 -331.22 1073.86 C-330.56 1074.19 -329.9 1074.52 -329.22 1074.86 C-328.89 1075.85 -328.56 1076.84 -328.22 1077.86 C-327.56 1078.19 -326.9 1078.52 -326.22 1078.86 C-325.56 1079.19 -324.9 1079.52 -324.22 1079.86 C-323.89 1080.85 -323.56 1081.84 -323.22 1082.86 C-322.56 1083.19 -321.9 1083.52 -321.22 1083.86 C-320.56 1084.19 -319.9 1084.52 -319.22 1084.86 C-318.89 1085.85 -318.56 1086.84 -318.22 1087.86 C-317.56 1087.86 -316.9 1087.86 -316.22 1087.86 C-304.31 1102.69 -299.85 1119.27 -301.5 1138.02 C-303.1 1150.78 -308.16 1161.82 -316.22 1171.86 C-316.88 1171.86 -317.54 1171.86 -318.22 1171.86 C-318.22 1172.52 -318.22 1173.18 -318.22 1173.86 C-318.88 1173.86 -319.54 1173.86 -320.22 1173.86 C-320.55 1174.85 -320.88 1175.84 -321.22 1176.86 C-321.88 1176.86 -322.54 1176.86 -323.22 1176.86 C-323.22 1177.52 -323.22 1178.18 -323.22 1178.86 C-323.88 1178.86 -324.54 1178.86 -325.22 1178.86 C-325.55 1179.85 -325.88 1180.84 -326.22 1181.86 C-326.88 1181.86 -327.54 1181.86 -328.22 1181.86 C-328.22 1182.52 -328.22 1183.18 -328.22 1183.86 C-328.88 1183.86 -329.54 1183.86 -330.22 1183.86 C-330.55 1184.85 -330.88 1185.84 -331.22 1186.86 C-331.88 1186.86 -332.54 1186.86 -333.22 1186.86 C-333.22 1187.52 -333.22 1188.18 -333.22 1188.86 C-333.88 1188.86 -334.54 1188.86 -335.22 1188.86 C-335.55 1189.85 -335.88 1190.84 -336.22 1191.86 C-336.88 1191.86 -337.54 1191.86 -338.22 1191.86 C-338.22 1192.52 -338.22 1193.18 -338.22 1193.86 C-338.88 1193.86 -339.54 1193.86 -340.22 1193.86 C-340.55 1194.85 -340.88 1195.84 -341.22 1196.86 C-341.88 1196.86 -342.54 1196.86 -343.22 1196.86 C-343.22 1197.52 -343.22 1198.18 -343.22 1198.86 C-343.88 1198.86 -344.54 1198.86 -345.22 1198.86 C-345.55 1199.85 -345.88 1200.84 -346.22 1201.86 C-346.88 1201.86 -347.54 1201.86 -348.22 1201.86 C-348.22 1202.52 -348.22 1203.18 -348.22 1203.86 C-348.88 1203.86 -349.54 1203.86 -350.22 1203.86 C-350.55 1204.85 -350.88 1205.84 -351.22 1206.86 C-351.88 1206.86 -352.54 1206.86 -353.22 1206.86 C-353.22 1207.52 -353.22 1208.18 -353.22 1208.86 C-353.88 1208.86 -354.54 1208.86 -355.22 1208.86 C-355.55 1209.85 -355.88 1210.84 -356.22 1211.86 C-356.88 1211.86 -357.54 1211.86 -358.22 1211.86 C-358.22 1212.52 -358.22 1213.18 -358.22 1213.86 C-358.88 1213.86 -359.54 1213.86 -360.22 1213.86 C-360.55 1214.85 -360.88 1215.84 -361.22 1216.86 C-361.88 1216.86 -362.54 1216.86 -363.22 1216.86 C-363.22 1217.52 -363.22 1218.18 -363.22 1218.86 C-363.88 1218.86 -364.54 1218.86 -365.22 1218.86 C-365.55 1219.85 -365.88 1220.84 -366.22 1221.86 C-366.88 1221.86 -367.54 1221.86 -368.22 1221.86 C-368.22 1222.52 -368.22 1223.18 -368.22 1223.86 C-368.88 1223.86 -369.54 1223.86 -370.22 1223.86 C-370.55 1224.85 -370.88 1225.84 -371.22 1226.86 C-371.88 1226.86 -372.54 1226.86 -373.22 1226.86 C-373.22 1227.52 -373.22 1228.18 -373.22 1228.86 C-373.88 1228.86 -374.54 1228.86 -375.22 1228.86 C-375.55 1229.85 -375.88 1230.84 -376.22 1231.86 C-376.88 1231.86 -377.54 1231.86 -378.22 1231.86 C-378.22 1232.52 -378.22 1233.18 -378.22 1233.86 C-378.88 1233.86 -379.54 1233.86 -380.22 1233.86 C-380.55 1234.85 -380.88 1235.84 -381.22 1236.86 C-381.88 1236.86 -382.54 1236.86 -383.22 1236.86 C-383.22 1237.52 -383.22 1238.18 -383.22 1238.86 C-383.88 1238.86 -384.54 1238.86 -385.22 1238.86 C-385.55 1239.85 -385.88 1240.84 -386.22 1241.86 C-386.88 1241.86 -387.54 1241.86 -388.22 1241.86 C-388.22 1242.52 -388.22 1243.18 -388.22 1243.86 C-388.88 1243.86 -389.54 1243.86 -390.22 1243.86 C-390.55 1244.85 -390.88 1245.84 -391.22 1246.86 C-391.88 1246.86 -392.54 1246.86 -393.22 1246.86 C-393.22 1247.52 -393.22 1248.18 -393.22 1248.86 C-393.88 1248.86 -394.54 1248.86 -395.22 1248.86 C-395.55 1249.85 -395.88 1250.84 -396.22 1251.86 C-396.88 1251.86 -397.54 1251.86 -398.22 1251.86 C-398.22 1252.52 -398.22 1253.18 -398.22 1253.86 C-398.88 1253.86 -399.54 1253.86 -400.22 1253.86 C-400.55 1254.85 -400.88 1255.84 -401.22 1256.86 C-401.88 1256.86 -402.54 1256.86 -403.22 1256.86 C-403.22 1257.52 -403.22 1258.18 -403.22 1258.86 C-403.88 1258.86 -404.54 1258.86 -405.22 1258.86 C-405.55 1259.85 -405.88 1260.84 -406.22 1261.86 C-406.88 1261.86 -407.54 1261.86 -408.22 1261.86 C-408.22 1262.52 -408.22 1263.18 -408.22 1263.86 C-408.88 1263.86 -409.54 1263.86 -410.22 1263.86 C-410.55 1264.85 -410.88 1265.84 -411.22 1266.86 C-423.29 1277.15 -435.94 1281.22 -451.56 1281.18 C-453.65 1281.17 -455.75 1281.2 -457.84 1281.22 C-464.96 1281.26 -470.78 1281.01 -477.22 1277.86 C-477.85 1277.56 -478.48 1277.26 -479.13 1276.96 C-481.01 1276.06 -482.87 1275.12 -484.72 1274.17 C-485.67 1273.69 -485.67 1273.69 -486.64 1273.2 C-488.17 1272.42 -489.7 1271.64 -491.22 1270.86 C-491.22 1270.2 -491.22 1269.54 -491.22 1268.86 C-491.84 1268.55 -492.46 1268.24 -493.1 1267.92 C-494.47 1267.23 -495.85 1266.55 -497.22 1265.86 C-497.22 1265.2 -497.22 1264.54 -497.22 1263.86 C-497.88 1263.86 -498.54 1263.86 -499.22 1263.86 C-499.22 1263.2 -499.22 1262.54 -499.22 1261.86 C-500.21 1261.53 -501.2 1261.2 -502.22 1260.86 C-502.22 1260.2 -502.22 1259.54 -502.22 1258.86 C-502.88 1258.86 -503.54 1258.86 -504.22 1258.86 C-504.22 1258.2 -504.22 1257.54 -504.22 1256.86 C-505.21 1256.53 -506.2 1256.2 -507.22 1255.86 C-507.22 1255.2 -507.22 1254.54 -507.22 1253.86 C-507.88 1253.86 -508.54 1253.86 -509.22 1253.86 C-509.22 1253.2 -509.22 1252.54 -509.22 1251.86 C-510.21 1251.53 -511.2 1251.2 -512.22 1250.86 C-512.22 1250.2 -512.22 1249.54 -512.22 1248.86 C-512.88 1248.86 -513.54 1248.86 -514.22 1248.86 C-514.22 1248.2 -514.22 1247.54 -514.22 1246.86 C-515.21 1246.53 -516.2 1246.2 -517.22 1245.86 C-517.22 1245.2 -517.22 1244.54 -517.22 1243.86 C-517.88 1243.86 -518.54 1243.86 -519.22 1243.86 C-519.22 1243.2 -519.22 1242.54 -519.22 1241.86 C-520.21 1241.53 -521.2 1241.2 -522.22 1240.86 C-522.22 1240.2 -522.22 1239.54 -522.22 1238.86 C-522.88 1238.86 -523.54 1238.86 -524.22 1238.86 C-524.22 1238.2 -524.22 1237.54 -524.22 1236.86 C-525.21 1236.53 -526.2 1236.2 -527.22 1235.86 C-527.22 1235.2 -527.22 1234.54 -527.22 1233.86 C-527.88 1233.86 -528.54 1233.86 -529.22 1233.86 C-529.22 1233.2 -529.22 1232.54 -529.22 1231.86 C-530.21 1231.53 -531.2 1231.2 -532.22 1230.86 C-532.22 1230.2 -532.22 1229.54 -532.22 1228.86 C-532.88 1228.86 -533.54 1228.86 -534.22 1228.86 C-534.22 1228.2 -534.22 1227.54 -534.22 1226.86 C-535.21 1226.53 -536.2 1226.2 -537.22 1225.86 C-537.22 1225.2 -537.22 1224.54 -537.22 1223.86 C-537.88 1223.86 -538.54 1223.86 -539.22 1223.86 C-539.22 1223.2 -539.22 1222.54 -539.22 1221.86 C-540.21 1221.53 -541.2 1221.2 -542.22 1220.86 C-542.22 1220.2 -542.22 1219.54 -542.22 1218.86 C-542.88 1218.86 -543.54 1218.86 -544.22 1218.86 C-545.82 1217.04 -547.28 1215.23 -548.72 1213.3 C-549.38 1212.43 -549.38 1212.43 -550.05 1211.54 C-559.23 1199.28 -567.19 1187.06 -572.25 1172.52 C-573.16 1170.04 -574.18 1167.68 -575.29 1165.3 C-577.08 1161.39 -578.27 1157.45 -579.45 1153.32 C-580.2 1150.94 -581.11 1148.75 -582.16 1146.48 C-584.22 1142.03 -585.72 1137.47 -587.23 1132.81 C-588.1 1130.22 -589.06 1127.7 -590.1 1125.17 C-591.97 1120.62 -593.6 1116 -595.22 1111.36 C-596.81 1106.82 -598.4 1102.31 -600.22 1097.86 C-602.35 1092.68 -604.17 1087.39 -606.01 1082.1 C-607.34 1078.32 -608.7 1074.57 -610.22 1070.86 C-612.35 1065.68 -614.16 1060.4 -616.01 1055.11 C-617.38 1051.17 -618.82 1047.28 -620.41 1043.42 C-621.72 1040.25 -622.78 1037.1 -623.72 1033.8 C-624.9 1029.69 -626.44 1025.91 -628.24 1022.04 C-629.74 1018.71 -630.97 1015.3 -632.22 1011.86 C-634.42 1011.64 -634.42 1011.64 -636.23 1013.64 C-637.06 1014.48 -637.88 1015.31 -638.73 1016.17 C-639.19 1016.63 -639.64 1017.09 -640.11 1017.56 C-641.1 1018.56 -642.09 1019.56 -643.08 1020.56 C-644.64 1022.15 -646.2 1023.73 -647.77 1025.3 C-651.09 1028.65 -654.41 1032 -657.72 1035.36 C-661.56 1039.25 -665.41 1043.13 -669.26 1047.01 C-670.8 1048.57 -672.34 1050.13 -673.88 1051.69 C-674.82 1052.64 -675.77 1053.59 -676.71 1054.54 C-677.54 1055.38 -678.36 1056.21 -679.21 1057.08 C-681.22 1058.86 -681.22 1058.86 -683.22 1058.86 C-683.55 1059.85 -683.88 1060.84 -684.22 1061.86 C-684.88 1061.86 -685.54 1061.86 -686.22 1061.86 C-686.22 1062.52 -686.22 1063.18 -686.22 1063.86 C-688.43 1065.16 -690.64 1066.45 -692.85 1067.73 C-693.77 1068.28 -693.77 1068.28 -694.72 1068.84 C-707.93 1076.49 -724.22 1078.01 -739.02 1074.56 C-741.98 1073.62 -744.64 1072.34 -747.36 1070.86 C-749.45 1069.69 -749.45 1069.69 -752.72 1068.48 C-756.98 1066.51 -760.78 1064.07 -764.22 1060.86 C-764.22 1060.2 -764.22 1059.54 -764.22 1058.86 C-764.88 1058.86 -765.54 1058.86 -766.22 1058.86 C-767.85 1057.48 -767.85 1057.48 -769.22 1055.86 C-769.22 1055.2 -769.22 1054.54 -769.22 1053.86 C-770.21 1053.53 -771.2 1053.2 -772.22 1052.86 C-772.22 1052.2 -772.22 1051.54 -772.22 1050.86 C-772.88 1050.86 -773.54 1050.86 -774.22 1050.86 C-774.22 1050.2 -774.22 1049.54 -774.22 1048.86 C-774.88 1048.86 -775.54 1048.86 -776.22 1048.86 C-777.85 1047.48 -777.85 1047.48 -779.22 1045.86 C-779.22 1045.2 -779.22 1044.54 -779.22 1043.86 C-780.21 1043.53 -781.2 1043.2 -782.22 1042.86 C-782.22 1042.2 -782.22 1041.54 -782.22 1040.86 C-782.88 1040.86 -783.54 1040.86 -784.22 1040.86 C-784.22 1040.2 -784.22 1039.54 -784.22 1038.86 C-785.18 1038.46 -785.18 1038.46 -786.16 1038.05 C-788.22 1036.86 -788.22 1036.86 -789.22 1033.86 C-789.88 1033.53 -790.54 1033.2 -791.22 1032.86 C-793.22 1031.86 -793.22 1031.86 -794.22 1028.86 C-794.88 1028.53 -795.54 1028.2 -796.22 1027.86 C-798.22 1026.86 -798.22 1026.86 -799.22 1023.86 C-799.88 1023.53 -800.54 1023.2 -801.22 1022.86 C-803.22 1021.86 -803.22 1021.86 -804.22 1018.86 C-804.88 1018.86 -805.54 1018.86 -806.22 1018.86 C-807.85 1017.48 -807.85 1017.48 -809.22 1015.86 C-809.22 1015.2 -809.22 1014.54 -809.22 1013.86 C-810.21 1013.53 -811.2 1013.2 -812.22 1012.86 C-812.22 1012.2 -812.22 1011.54 -812.22 1010.86 C-812.88 1010.86 -813.54 1010.86 -814.22 1010.86 C-814.22 1010.2 -814.22 1009.54 -814.22 1008.86 C-814.86 1008.59 -815.5 1008.32 -816.16 1008.05 C-818.22 1006.86 -818.22 1006.86 -819.22 1003.86 C-820.21 1003.53 -821.2 1003.2 -822.22 1002.86 C-822.22 1002.2 -822.22 1001.54 -822.22 1000.86 C-822.88 1000.86 -823.54 1000.86 -824.22 1000.86 C-824.22 1000.2 -824.22 999.54 -824.22 998.86 C-824.88 998.86 -825.54 998.86 -826.22 998.86 C-827.85 997.48 -827.85 997.48 -829.22 995.86 C-829.22 995.2 -829.22 994.54 -829.22 993.86 C-829.86 993.59 -830.5 993.32 -831.16 993.05 C-833.22 991.86 -833.22 991.86 -834.22 988.86 C-834.88 988.86 -835.54 988.86 -836.22 988.86 C-837.85 987.48 -837.85 987.48 -839.22 985.86 C-839.22 985.2 -839.22 984.54 -839.22 983.86 C-839.88 983.86 -840.54 983.86 -841.22 983.86 C-842.85 982.48 -842.85 982.48 -844.22 980.86 C-844.22 980.2 -844.22 979.54 -844.22 978.86 C-844.88 978.86 -845.54 978.86 -846.22 978.86 C-847.85 976.55 -849.37 974.26 -850.85 971.86 C-851.27 971.19 -851.69 970.52 -852.12 969.84 C-853.16 968.18 -854.19 966.52 -855.22 964.86 C-856 965.63 -856.77 966.41 -857.57 967.2 C-876.79 986.42 -896 1005.64 -915.22 1024.86 C-916.05 1025.7 -916.87 1026.55 -917.72 1027.42 C-923.3 1032.86 -926.4 1034.68 -934.16 1035.05 C-939.21 1034.98 -943.01 1033.67 -947.22 1030.86 C-947.22 1030.2 -947.22 1029.54 -947.22 1028.86 C-947.88 1028.86 -948.54 1028.86 -949.22 1028.86 C-954.4 1019.84 -954.4 1019.84 -954.54 1015.73 C-954.57 1015.01 -954.61 1014.29 -954.65 1013.54 C-953.57 1006.77 -949.5 1001.55 -944.7 996.85 C-944.16 996.3 -943.61 995.75 -943.04 995.18 C-941.21 993.34 -939.37 991.51 -937.52 989.69 C-936.19 988.35 -934.86 987.02 -933.53 985.69 C-929.88 982.03 -926.22 978.38 -922.55 974.74 C-918.6 970.8 -914.66 966.86 -910.71 962.91 C-903.88 956.08 -897.04 949.26 -890.2 942.44 C-880.3 932.58 -870.42 922.71 -860.53 912.84 C-844.5 896.81 -828.45 880.8 -812.4 864.79 C-796.82 849.25 -781.23 833.7 -765.65 818.14 C-765.17 817.66 -764.69 817.19 -764.2 816.69 C-753.24 805.75 -742.28 794.81 -731.32 783.86 C-730.4 782.95 -729.48 782.03 -728.53 781.08 C-723.02 775.58 -723.02 775.58 -717.51 770.07 C-706.73 759.31 -695.96 748.56 -685.18 737.8 C-678.42 731.07 -671.67 724.32 -664.91 717.58 C-660.26 712.94 -655.6 708.3 -650.94 703.65 C-648.13 700.85 -645.32 698.04 -642.5 695.23 C-641.21 693.94 -639.91 692.64 -638.61 691.35 C-636.86 689.61 -635.11 687.86 -633.36 686.11 C-632.85 685.6 -632.34 685.09 -631.81 684.57 C-629.19 681.96 -629.19 681.96 -627.22 678.86 C-627.94 678.73 -628.65 678.61 -629.38 678.48 C-636.3 676.97 -643 674.22 -649.22 670.86 C-649.22 670.2 -649.22 669.54 -649.22 668.86 C-649.76 668.78 -650.3 668.69 -650.85 668.61 C-654.1 667.58 -656.51 665.89 -659.22 663.86 C-659.22 663.2 -659.22 662.54 -659.22 661.86 C-659.79 661.61 -660.36 661.36 -660.95 661.11 C-675.39 653.16 -683.57 634.58 -688.22 619.6 C-689.63 614.33 -690.12 609.3 -690.22 603.86 C-690.25 602.96 -690.28 602.06 -690.3 601.13 C-690.35 598.37 -690.3 595.62 -690.22 592.86 C-690.21 591.85 -690.19 590.85 -690.17 589.81 C-689.63 577.22 -685.29 565.82 -679.22 554.86 C-678.56 554.86 -677.9 554.86 -677.22 554.86 C-677.13 554.29 -677.03 553.72 -676.93 553.14 C-673.96 543.55 -662.67 535.01 -655.68 528.02 C-654.42 526.76 -653.17 525.51 -651.92 524.25 C-648.55 520.86 -645.17 517.48 -641.8 514.1 C-639.68 511.98 -637.57 509.87 -635.46 507.75 C-628.08 500.35 -620.7 492.97 -613.32 485.58 C-606.44 478.71 -599.58 471.82 -592.72 464.93 C-586.82 459.01 -580.91 453.09 -574.99 447.17 C-571.46 443.64 -567.94 440.11 -564.42 436.58 C-561.12 433.25 -557.81 429.94 -554.49 426.64 C-553.27 425.42 -552.06 424.21 -550.85 422.99 C-549.2 421.32 -547.54 419.66 -545.87 418.01 C-544.94 417.08 -544.02 416.16 -543.06 415.2 C-538.06 411.08 -532.98 409.25 -526.49 409.52 C-519.96 410.51 -515.42 413.96 -511.41 419.07 C-508.52 423.43 -507.7 427.7 -508.22 432.86 C-511.6 444.55 -523.54 453.32 -531.97 461.7 C-533.12 462.85 -534.27 464 -535.43 465.16 C-537.89 467.61 -540.35 470.07 -542.81 472.52 C-546.71 476.4 -550.59 480.29 -554.48 484.17 C-562.73 492.4 -570.97 500.63 -579.22 508.86 C-588.16 517.77 -597.09 526.68 -606.02 535.6 C-609.89 539.46 -613.76 543.33 -617.63 547.19 C-620.03 549.58 -622.43 551.97 -624.83 554.37 C-625.94 555.48 -627.06 556.59 -628.17 557.7 C-629.69 559.21 -631.21 560.73 -632.72 562.24 C-634 563.52 -634 563.52 -635.3 564.81 C-637.27 566.71 -637.27 566.71 -638.22 568.86 C-638.88 568.86 -639.54 568.86 -640.22 568.86 C-640.5 569.43 -640.78 570 -641.07 570.59 C-642.59 573.58 -644.3 576.46 -646 579.35 C-649.04 585.61 -649.56 591.47 -649.54 598.3 C-649.56 599.51 -649.56 599.51 -649.58 600.74 C-649.59 608.96 -647.16 614.88 -642.6 621.67 C-640.73 624.47 -639.29 626.66 -638.22 629.86 C-636.37 630.95 -636.37 630.95 -634.22 631.86 C-632.99 632.66 -631.76 633.47 -630.54 634.3 C-620.14 640.86 -608.09 642.34 -596.22 639.67 C-591.33 638.37 -587.25 636.51 -582.96 633.85 C-581.22 632.86 -581.22 632.86 -579.22 632.86 C-579.22 632.2 -579.22 631.54 -579.22 630.86 C-577.79 629.45 -577.79 629.45 -575.79 627.79 C-571 623.72 -566.58 619.35 -562.14 614.91 C-561.26 614.03 -560.38 613.15 -559.48 612.24 C-557.05 609.83 -554.64 607.41 -552.22 604.98 C-549.6 602.37 -546.98 599.75 -544.36 597.13 C-539.24 592.02 -534.12 586.9 -529.01 581.78 C-524.85 577.62 -520.69 573.46 -516.54 569.31 C-515.94 568.71 -515.35 568.12 -514.74 567.51 C-513.54 566.31 -512.33 565.1 -511.13 563.9 C-499.86 552.63 -488.59 541.36 -477.32 530.08 C-467.64 520.41 -457.97 510.73 -448.29 501.06 C-437.05 489.82 -425.8 478.58 -414.56 467.34 C-413.37 466.14 -412.17 464.94 -410.97 463.74 C-410.38 463.15 -409.79 462.57 -409.19 461.96 C-405.03 457.8 -400.87 453.64 -396.72 449.49 C-391.66 444.43 -386.6 439.37 -381.54 434.31 C-378.96 431.73 -376.38 429.14 -373.79 426.56 C-371 423.77 -368.2 420.97 -365.41 418.18 C-364.59 417.35 -363.76 416.53 -362.92 415.69 C-361.8 414.57 -361.8 414.57 -360.67 413.43 C-360.02 412.78 -359.37 412.14 -358.71 411.47 C-357.13 409.91 -357.13 409.91 -356.22 407.86 C-355.56 407.86 -354.9 407.86 -354.22 407.86 C-354.11 407.3 -354 406.75 -353.88 406.17 C-353.22 403.86 -353.22 403.86 -352.03 401.55 C-348.62 394.86 -347.73 389 -347.72 381.61 C-347.72 380.77 -347.71 379.93 -347.7 379.07 C-347.82 373.37 -349.01 369.1 -351.22 363.86 C-351.6 362.2 -351.96 360.54 -352.22 358.86 C-352.88 358.86 -353.54 358.86 -354.22 358.86 C-354.22 357.87 -354.22 356.88 -354.22 355.86 C-354.88 355.86 -355.54 355.86 -356.22 355.86 C-357.31 354.67 -358.35 353.43 -359.35 352.17 C-362.85 348.06 -366.42 345.29 -371.22 342.86 C-372.21 342.33 -373.19 341.8 -374.21 341.26 C-379.41 339.08 -384.86 339.29 -390.41 339.3 C-391.52 339.3 -392.64 339.29 -393.79 339.29 C-402.43 339.46 -408.06 340.9 -415.22 345.86 C-416.21 346.19 -417.2 346.52 -418.22 346.86 C-418.22 347.52 -418.22 348.18 -418.22 348.86 C-419.47 350.08 -419.47 350.08 -421.34 351.59 C-425.42 355.06 -429.19 358.76 -432.95 362.56 C-433.56 363.17 -434.16 363.78 -434.78 364.4 C-437.3 366.95 -439.81 369.5 -442.32 372.05 C-444.17 373.94 -446.03 375.81 -447.89 377.69 C-448.73 378.55 -448.73 378.55 -449.59 379.43 C-454.56 384.43 -458.75 387.27 -465.88 387.87 C-470.87 387.85 -475.04 386.65 -479.22 383.86 C-479.22 383.2 -479.22 382.54 -479.22 381.86 C-480.21 381.53 -481.2 381.2 -482.22 380.86 C-486.19 375.76 -486.72 371.48 -486.95 365.12 C-485.07 356.7 -478.08 350.29 -472.12 344.43 C-470.98 343.29 -470.98 343.29 -469.82 342.14 C-468.23 340.55 -466.63 338.97 -465.04 337.39 C-462.59 334.98 -460.16 332.55 -457.72 330.12 C-456.17 328.58 -454.61 327.04 -453.06 325.49 C-452.33 324.77 -451.61 324.05 -450.86 323.3 C-449.84 322.3 -449.84 322.3 -448.79 321.27 C-447.9 320.39 -447.9 320.39 -446.99 319.49 C-441.96 314.86 -441.96 314.86 -439.22 314.86 C-439.22 314.2 -439.22 313.54 -439.22 312.86 C-435.57 310.84 -431.9 308.85 -428.22 306.86 C-427.51 306.47 -426.8 306.08 -426.06 305.68 C-420.97 302.99 -415.79 301.31 -410.22 299.86 C-409.5 299.65 -408.78 299.44 -408.03 299.23 C-393.72 295.67 -379.08 297.5 -365.22 301.86 C-364.24 302.15 -363.26 302.44 -362.24 302.73 C-353.4 305.59 -345.9 310.74 -338.22 315.86 C-338.22 316.52 -338.22 317.18 -338.22 317.86 C-337.36 318.26 -337.36 318.26 -336.47 318.67 C-334.17 319.89 -332.2 321.16 -330.22 322.86 C-330.22 323.52 -330.22 324.18 -330.22 324.86 C-329.56 324.86 -328.9 324.86 -328.22 324.86 C-325.22 328.32 -325.22 328.32 -325.22 330.86 C-324.56 330.86 -323.9 330.86 -323.22 330.86 C-317.02 339.22 -310.22 350.27 -310.22 360.86 C-306.1 358.62 -302.93 355.85 -299.66 352.55 C-299.12 352.01 -298.58 351.47 -298.02 350.91 C-296.21 349.11 -294.4 347.29 -292.59 345.48 C-291.28 344.17 -289.97 342.86 -288.66 341.55 C-285.05 337.95 -281.46 334.35 -277.86 330.74 C-273.98 326.85 -270.09 322.97 -266.2 319.09 C-258.59 311.48 -250.99 303.87 -243.38 296.26 C-234.53 287.4 -225.68 278.55 -216.83 269.69 C-200.56 253.42 -184.29 237.15 -168.03 220.87 C-153.18 206.01 -138.32 191.14 -123.46 176.28 C-122.51 175.33 -121.55 174.37 -120.6 173.42 C-119.89 172.71 -119.89 172.71 -119.17 171.99 C-116.79 169.61 -114.42 167.24 -112.04 164.86 C-111.57 164.39 -111.1 163.93 -110.62 163.44 C-95.55 148.37 -80.48 133.3 -65.41 118.22 C-59.24 112.04 -53.06 105.86 -46.88 99.69 C-39.36 92.16 -31.84 84.64 -24.32 77.11 C-20.48 73.27 -16.64 69.43 -12.8 65.59 C-9.29 62.07 -5.78 58.56 -2.27 55.05 C-1 53.77 0.28 52.5 1.55 51.22 C3.28 49.5 5 47.77 6.72 46.05 C7.22 45.55 7.73 45.04 8.25 44.53 C10.84 41.94 10.84 41.94 12.78 38.86 C11.87 38.88 10.96 38.89 10.03 38.91 C6.64 38.96 3.25 39 -0.14 39.02 C-1.6 39.04 -3.06 39.06 -4.53 39.09 C-6.64 39.12 -8.75 39.14 -10.86 39.15 C-12.12 39.17 -13.39 39.18 -14.7 39.2 C-18.51 38.83 -20.93 37.78 -24.22 35.86 C-24.22 35.2 -24.22 34.54 -24.22 33.86 C-24.88 33.86 -25.54 33.86 -26.22 33.86 C-30.38 26.62 -31.85 22.38 -31.22 13.86 C-30.22 10.61 -30.22 10.61 -28.22 7.86 C-27.61 6.98 -27.61 6.98 -26.99 6.09 C-20.02 -1.83 -9.66 -0.11 0 0 Z M-243.22 351.86 C-243.22 352.52 -243.22 353.18 -243.22 353.86 C-244.18 354.26 -244.18 354.26 -245.16 354.67 C-247.55 355.75 -247.55 355.75 -248.22 358.86 C-249.56 359.53 -250.89 360.19 -252.22 360.86 C-252.55 361.85 -252.88 362.84 -253.22 363.86 C-254.56 364.53 -255.89 365.19 -257.22 365.86 C-257.55 366.85 -257.88 367.84 -258.22 368.86 C-259.56 369.53 -260.89 370.19 -262.22 370.86 C-262.72 372.34 -262.72 372.34 -263.22 373.86 C-264.56 374.53 -265.89 375.19 -267.22 375.86 C-267.72 377.34 -267.72 377.34 -268.22 378.86 C-269.56 379.53 -270.89 380.19 -272.22 380.86 C-272.72 382.34 -272.72 382.34 -273.22 383.86 C-274.56 384.53 -275.89 385.19 -277.22 385.86 C-277.55 386.85 -277.88 387.84 -278.22 388.86 C-279.56 389.53 -280.89 390.19 -282.22 390.86 C-282.55 391.85 -282.88 392.84 -283.22 393.86 C-284.56 394.53 -285.89 395.19 -287.22 395.86 C-287.55 396.85 -287.88 397.84 -288.22 398.86 C-289.56 399.53 -290.89 400.19 -292.22 400.86 C-292.55 401.85 -292.88 402.84 -293.22 403.86 C-294.56 404.53 -295.89 405.19 -297.22 405.86 C-297.55 406.85 -297.88 407.84 -298.22 408.86 C-299.56 409.53 -300.89 410.19 -302.22 410.86 C-302.55 411.85 -302.88 412.84 -303.22 413.86 C-304.56 414.53 -305.89 415.19 -307.22 415.86 C-307.72 417.34 -307.72 417.34 -308.22 418.86 C-309.56 419.53 -310.89 420.19 -312.22 420.86 C-312.72 422.34 -312.72 422.34 -313.22 423.86 C-314.56 424.53 -315.89 425.19 -317.22 425.86 C-317.72 427.34 -317.72 427.34 -318.22 428.86 C-319.56 429.53 -320.89 430.19 -322.22 430.86 C-322.72 432.34 -322.72 432.34 -323.22 433.86 C-324.56 434.53 -325.89 435.19 -327.22 435.86 C-327.72 437.34 -327.72 437.34 -328.22 438.86 C-329.56 439.53 -330.89 440.19 -332.22 440.86 C-332.72 442.34 -332.72 442.34 -333.22 443.86 C-334.56 444.53 -335.89 445.19 -337.22 445.86 C-337.72 447.34 -337.72 447.34 -338.22 448.86 C-339.56 449.53 -340.89 450.19 -342.22 450.86 C-342.72 452.34 -342.72 452.34 -343.22 453.86 C-344.56 454.53 -345.89 455.19 -347.22 455.86 C-347.72 457.34 -347.72 457.34 -348.22 458.86 C-349.56 459.53 -350.89 460.19 -352.22 460.86 C-352.72 462.34 -352.72 462.34 -353.22 463.86 C-354.56 464.53 -355.89 465.19 -357.22 465.86 C-357.72 467.34 -357.72 467.34 -358.22 468.86 C-359.56 469.53 -360.89 470.19 -362.22 470.86 C-362.55 471.85 -362.88 472.84 -363.22 473.86 C-364.56 474.53 -365.89 475.19 -367.22 475.86 C-367.55 476.85 -367.88 477.84 -368.22 478.86 C-369.56 479.53 -370.89 480.19 -372.22 480.86 C-372.55 481.85 -372.88 482.84 -373.22 483.86 C-374.56 484.53 -375.89 485.19 -377.22 485.86 C-377.55 486.85 -377.88 487.84 -378.22 488.86 C-379.56 489.53 -380.89 490.19 -382.22 490.86 C-382.55 491.85 -382.88 492.84 -383.22 493.86 C-384.56 494.53 -385.89 495.19 -387.22 495.86 C-387.55 496.85 -387.88 497.84 -388.22 498.86 C-388.88 498.86 -389.54 498.86 -390.22 498.86 C-389.76 499.79 -389.76 499.79 -389.29 500.73 C-388.6 502.11 -387.91 503.48 -387.22 504.86 C-386.56 504.86 -385.9 504.86 -385.22 504.86 C-385.22 505.52 -385.22 506.18 -385.22 506.86 C-383.89 508.53 -383.89 508.53 -382.22 509.86 C-381.56 509.86 -380.9 509.86 -380.22 509.86 C-380.22 510.52 -380.22 511.18 -380.22 511.86 C-378.89 513.53 -378.89 513.53 -377.22 514.86 C-376.56 514.86 -375.9 514.86 -375.22 514.86 C-375.22 515.52 -375.22 516.18 -375.22 516.86 C-373.89 518.53 -373.89 518.53 -372.22 519.86 C-371.56 519.86 -370.9 519.86 -370.22 519.86 C-370.22 520.52 -370.22 521.18 -370.22 521.86 C-368.89 523.53 -368.89 523.53 -367.22 524.86 C-366.56 524.86 -365.9 524.86 -365.22 524.86 C-365.22 525.52 -365.22 526.18 -365.22 526.86 C-363.89 528.53 -363.89 528.53 -362.22 529.86 C-361.56 529.86 -360.9 529.86 -360.22 529.86 C-360.22 530.52 -360.22 531.18 -360.22 531.86 C-358.89 533.53 -358.89 533.53 -357.22 534.86 C-356.56 534.86 -355.9 534.86 -355.22 534.86 C-355.22 535.52 -355.22 536.18 -355.22 536.86 C-353.01 537.81 -353.01 537.81 -350.22 537.86 C-348.06 536.3 -346.43 534.86 -344.59 532.96 C-343.77 532.16 -343.77 532.16 -342.94 531.33 C-341.11 529.52 -339.3 527.68 -337.49 525.84 C-336.19 524.54 -334.88 523.24 -333.58 521.94 C-330.02 518.39 -326.49 514.83 -322.96 511.27 C-319.26 507.54 -315.55 503.84 -311.84 500.13 C-305.61 493.89 -299.4 487.64 -293.19 481.39 C-285.22 473.36 -277.23 465.35 -269.23 457.34 C-262.36 450.47 -255.5 443.58 -248.64 436.69 C-246.43 434.48 -244.23 432.26 -242.02 430.05 C-238.55 426.57 -235.08 423.08 -231.62 419.59 C-230.35 418.31 -229.08 417.04 -227.8 415.76 C-226.06 414.02 -224.33 412.27 -222.6 410.52 C-222.09 410.01 -221.59 409.51 -221.07 408.99 C-215.55 403.39 -212.48 397.84 -211.97 389.92 C-212.06 385.97 -212.98 382.6 -214.22 378.86 C-214.88 378.86 -215.54 378.86 -216.22 378.86 C-216.45 378.14 -216.68 377.43 -216.92 376.69 C-218.49 373.27 -220.47 371.23 -223.12 368.56 C-223.6 368.08 -224.08 367.6 -224.57 367.1 C-225.58 366.09 -226.59 365.08 -227.61 364.08 C-229.16 362.54 -230.7 360.99 -232.24 359.44 C-233.22 358.45 -234.2 357.47 -235.19 356.5 C-236.08 355.61 -236.97 354.72 -237.89 353.8 C-240.1 351.54 -240.1 351.54 -243.22 351.86 Z M-421.91 530.23 C-423.43 531.77 -423.43 531.77 -423.22 533.86 C-423.86 534.13 -424.5 534.4 -425.16 534.67 C-427.55 535.75 -427.55 535.75 -428.22 538.86 C-429.56 539.53 -430.89 540.19 -432.22 540.86 C-432.55 541.85 -432.88 542.84 -433.22 543.86 C-434.56 544.53 -435.89 545.19 -437.22 545.86 C-437.55 546.85 -437.88 547.84 -438.22 548.86 C-439.56 549.53 -440.89 550.19 -442.22 550.86 C-442.55 551.85 -442.88 552.84 -443.22 553.86 C-444.56 554.53 -445.89 555.19 -447.22 555.86 C-447.55 556.85 -447.88 557.84 -448.22 558.86 C-449.56 559.53 -450.89 560.19 -452.22 560.86 C-452.55 561.85 -452.88 562.84 -453.22 563.86 C-454.56 564.53 -455.89 565.19 -457.22 565.86 C-457.55 566.85 -457.88 567.84 -458.22 568.86 C-459.56 569.53 -460.89 570.19 -462.22 570.86 C-462.55 571.85 -462.88 572.84 -463.22 573.86 C-464.56 574.53 -465.89 575.19 -467.22 575.86 C-467.55 576.85 -467.88 577.84 -468.22 578.86 C-469.56 579.53 -470.89 580.19 -472.22 580.86 C-472.55 581.85 -472.88 582.84 -473.22 583.86 C-474.56 584.53 -475.89 585.19 -477.22 585.86 C-477.55 586.85 -477.88 587.84 -478.22 588.86 C-479.56 589.53 -480.89 590.19 -482.22 590.86 C-482.55 591.85 -482.88 592.84 -483.22 593.86 C-484.56 594.53 -485.89 595.19 -487.22 595.86 C-487.55 596.85 -487.88 597.84 -488.22 598.86 C-489.56 599.53 -490.89 600.19 -492.22 600.86 C-492.55 601.85 -492.88 602.84 -493.22 603.86 C-494.56 604.53 -495.89 605.19 -497.22 605.86 C-497.55 606.85 -497.88 607.84 -498.22 608.86 C-499.56 609.53 -500.89 610.19 -502.22 610.86 C-502.55 611.85 -502.88 612.84 -503.22 613.86 C-504.56 614.53 -505.89 615.19 -507.22 615.86 C-507.55 616.85 -507.88 617.84 -508.22 618.86 C-509.56 619.53 -510.89 620.19 -512.22 620.86 C-512.55 621.85 -512.88 622.84 -513.22 623.86 C-514.56 624.53 -515.89 625.19 -517.22 625.86 C-517.55 626.85 -517.88 627.84 -518.22 628.86 C-519.56 629.53 -520.89 630.19 -522.22 630.86 C-522.55 631.85 -522.88 632.84 -523.22 633.86 C-524.56 634.53 -525.89 635.19 -527.22 635.86 C-527.55 636.85 -527.88 637.84 -528.22 638.86 C-529.56 639.53 -530.89 640.19 -532.22 640.86 C-532.55 641.85 -532.88 642.84 -533.22 643.86 C-534.56 644.53 -535.89 645.19 -537.22 645.86 C-537.55 646.85 -537.88 647.84 -538.22 648.86 C-539.56 649.53 -540.89 650.19 -542.22 650.86 C-542.55 651.85 -542.88 652.84 -543.22 653.86 C-544.56 654.53 -545.89 655.19 -547.22 655.86 C-547.55 656.85 -547.88 657.84 -548.22 658.86 C-549.56 659.53 -550.89 660.19 -552.22 660.86 C-552.55 661.85 -552.88 662.84 -553.22 663.86 C-554.56 664.53 -555.89 665.19 -557.22 665.86 C-557.55 666.85 -557.88 667.84 -558.22 668.86 C-559.56 669.53 -560.89 670.19 -562.22 670.86 C-562.55 671.85 -562.88 672.84 -563.22 673.86 C-564.56 674.53 -565.89 675.19 -567.22 675.86 C-567.55 676.85 -567.88 677.84 -568.22 678.86 C-569.56 679.53 -570.89 680.19 -572.22 680.86 C-572.55 681.85 -572.88 682.84 -573.22 683.86 C-574.56 684.53 -575.89 685.19 -577.22 685.86 C-577.55 686.85 -577.88 687.84 -578.22 688.86 C-579.56 689.53 -580.89 690.19 -582.22 690.86 C-582.55 691.85 -582.88 692.84 -583.22 693.86 C-584.56 694.53 -585.89 695.19 -587.22 695.86 C-587.55 696.85 -587.88 697.84 -588.22 698.86 C-589.56 699.53 -590.89 700.19 -592.22 700.86 C-592.55 701.85 -592.88 702.84 -593.22 703.86 C-594.56 704.53 -595.89 705.19 -597.22 705.86 C-597.55 706.85 -597.88 707.84 -598.22 708.86 C-599.56 709.53 -600.89 710.19 -602.22 710.86 C-602.55 711.85 -602.88 712.84 -603.22 713.86 C-604.56 714.53 -605.89 715.19 -607.22 715.86 C-607.55 716.85 -607.88 717.84 -608.22 718.86 C-609.56 719.53 -610.89 720.19 -612.22 720.86 C-612.55 721.85 -612.88 722.84 -613.22 723.86 C-614.56 724.53 -615.89 725.19 -617.22 725.86 C-617.55 726.85 -617.88 727.84 -618.22 728.86 C-619.56 729.53 -620.89 730.19 -622.22 730.86 C-622.55 731.85 -622.88 732.84 -623.22 733.86 C-624.56 734.53 -625.89 735.19 -627.22 735.86 C-627.55 736.85 -627.88 737.84 -628.22 738.86 C-629.56 739.53 -630.89 740.19 -632.22 740.86 C-632.55 741.85 -632.88 742.84 -633.22 743.86 C-634.56 744.53 -635.89 745.19 -637.22 745.86 C-637.55 746.85 -637.88 747.84 -638.22 748.86 C-639.56 749.53 -640.89 750.19 -642.22 750.86 C-642.55 751.85 -642.88 752.84 -643.22 753.86 C-644.56 754.53 -645.89 755.19 -647.22 755.86 C-647.55 756.85 -647.88 757.84 -648.22 758.86 C-649.56 759.53 -650.89 760.19 -652.22 760.86 C-652.55 761.85 -652.88 762.84 -653.22 763.86 C-654.56 764.53 -655.89 765.19 -657.22 765.86 C-657.55 766.85 -657.88 767.84 -658.22 768.86 C-659.56 769.53 -660.89 770.19 -662.22 770.86 C-662.55 771.85 -662.88 772.84 -663.22 773.86 C-664.56 774.53 -665.89 775.19 -667.22 775.86 C-667.55 776.85 -667.88 777.84 -668.22 778.86 C-669.56 779.53 -670.89 780.19 -672.22 780.86 C-672.55 781.85 -672.88 782.84 -673.22 783.86 C-674.56 784.53 -675.89 785.19 -677.22 785.86 C-677.55 786.85 -677.88 787.84 -678.22 788.86 C-679.56 789.53 -680.89 790.19 -682.22 790.86 C-682.55 791.85 -682.88 792.84 -683.22 793.86 C-684.56 794.53 -685.89 795.19 -687.22 795.86 C-687.55 796.85 -687.88 797.84 -688.22 798.86 C-689.56 799.53 -690.89 800.19 -692.22 800.86 C-692.55 801.85 -692.88 802.84 -693.22 803.86 C-694.56 804.53 -695.89 805.19 -697.22 805.86 C-697.55 806.85 -697.88 807.84 -698.22 808.86 C-699.56 809.53 -700.89 810.19 -702.22 810.86 C-702.55 811.85 -702.88 812.84 -703.22 813.86 C-704.56 814.53 -705.89 815.19 -707.22 815.86 C-707.55 816.85 -707.88 817.84 -708.22 818.86 C-709.56 819.53 -710.89 820.19 -712.22 820.86 C-712.55 821.85 -712.88 822.84 -713.22 823.86 C-714.56 824.53 -715.89 825.19 -717.22 825.86 C-717.55 826.85 -717.88 827.84 -718.22 828.86 C-719.56 829.53 -720.89 830.19 -722.22 830.86 C-722.55 831.85 -722.88 832.84 -723.22 833.86 C-724.56 834.53 -725.89 835.19 -727.22 835.86 C-727.55 836.85 -727.88 837.84 -728.22 838.86 C-729.56 839.53 -730.89 840.19 -732.22 840.86 C-732.55 841.85 -732.88 842.84 -733.22 843.86 C-734.56 844.53 -735.89 845.19 -737.22 845.86 C-737.55 846.85 -737.88 847.84 -738.22 848.86 C-739.56 849.53 -740.89 850.19 -742.22 850.86 C-742.55 851.85 -742.88 852.84 -743.22 853.86 C-744.56 854.53 -745.89 855.19 -747.22 855.86 C-747.55 856.85 -747.88 857.84 -748.22 858.86 C-749.56 859.53 -750.89 860.19 -752.22 860.86 C-752.55 861.85 -752.88 862.84 -753.22 863.86 C-754.56 864.53 -755.89 865.19 -757.22 865.86 C-757.55 866.85 -757.88 867.84 -758.22 868.86 C-759.56 869.53 -760.89 870.19 -762.22 870.86 C-762.55 871.85 -762.88 872.84 -763.22 873.86 C-764.56 874.53 -765.89 875.19 -767.22 875.86 C-767.55 876.85 -767.88 877.84 -768.22 878.86 C-769.56 879.53 -770.89 880.19 -772.22 880.86 C-772.55 881.85 -772.88 882.84 -773.22 883.86 C-774.56 884.53 -775.89 885.19 -777.22 885.86 C-777.55 886.85 -777.88 887.84 -778.22 888.86 C-779.56 889.53 -780.89 890.19 -782.22 890.86 C-782.55 891.85 -782.88 892.84 -783.22 893.86 C-784.56 894.53 -785.89 895.19 -787.22 895.86 C-787.55 896.85 -787.88 897.84 -788.22 898.86 C-789.56 899.53 -790.89 900.19 -792.22 900.86 C-792.55 901.85 -792.88 902.84 -793.22 903.86 C-794.56 904.53 -795.89 905.19 -797.22 905.86 C-797.55 906.85 -797.88 907.84 -798.22 908.86 C-799.56 909.53 -800.89 910.19 -802.22 910.86 C-802.55 911.85 -802.88 912.84 -803.22 913.86 C-804.56 914.53 -805.89 915.19 -807.22 915.86 C-807.55 916.85 -807.88 917.84 -808.22 918.86 C-809.56 919.53 -810.89 920.19 -812.22 920.86 C-812.55 921.85 -812.88 922.84 -813.22 923.86 C-813.88 923.86 -814.54 923.86 -815.22 923.86 C-818.07 926.11 -819.1 928.45 -820.22 931.86 C-820.61 935.24 -820.61 935.24 -820.6 938.8 C-820.63 939.98 -820.65 941.17 -820.68 942.39 C-819.69 949.87 -813.57 954.81 -808.46 959.93 C-807.68 960.71 -806.9 961.5 -806.1 962.31 C-803.54 964.9 -800.97 967.48 -798.39 970.06 C-796.6 971.86 -794.81 973.66 -793.02 975.46 C-789.27 979.23 -785.51 982.99 -781.75 986.75 C-777.42 991.09 -773.1 995.44 -768.78 999.8 C-764.62 1004.01 -760.44 1008.2 -756.25 1012.38 C-754.48 1014.16 -752.71 1015.94 -750.95 1017.72 C-748.48 1020.22 -745.99 1022.7 -743.5 1025.18 C-742.78 1025.92 -742.06 1026.65 -741.31 1027.41 C-735.92 1032.73 -731.33 1035.51 -723.6 1036.17 C-713.27 1035.22 -706.46 1028.4 -699.44 1021.32 C-698.8 1020.69 -698.16 1020.06 -697.51 1019.4 C-695.39 1017.29 -693.27 1015.16 -691.16 1013.04 C-689.62 1011.51 -688.08 1009.97 -686.54 1008.43 C-682.32 1004.22 -678.1 999.99 -673.89 995.77 C-669.34 991.22 -664.78 986.67 -660.23 982.12 C-652.34 974.23 -644.46 966.34 -636.58 958.45 C-628.31 950.18 -620.04 941.91 -611.77 933.63 C-611.25 933.12 -610.74 932.6 -610.21 932.07 C-608.12 929.98 -606.03 927.9 -603.94 925.81 C-584.35 906.21 -564.76 886.61 -545.17 867.01 C-527.77 849.59 -510.36 832.18 -492.95 814.77 C-491.83 813.65 -490.71 812.53 -489.59 811.41 C-489.04 810.86 -488.48 810.31 -487.91 809.74 C-485.13 806.95 -482.35 804.17 -479.56 801.39 C-479.01 800.84 -478.46 800.29 -477.9 799.72 C-463.35 785.17 -448.8 770.62 -434.26 756.07 C-433.74 755.55 -433.23 755.04 -432.69 754.5 C-430.61 752.42 -428.53 750.34 -426.45 748.26 C-419.21 741.02 -411.97 733.78 -404.73 726.53 C-395.4 717.21 -386.08 707.87 -376.75 698.54 C-372.25 694.04 -367.76 689.54 -363.26 685.04 C-359.14 680.92 -355.03 676.81 -350.92 672.69 C-349.42 671.2 -347.93 669.7 -346.44 668.21 C-344.42 666.19 -342.4 664.17 -340.38 662.14 C-339.5 661.27 -339.5 661.27 -338.6 660.37 C-333.45 655.85 -333.45 655.85 -331.22 649.86 C-330.56 649.86 -329.9 649.86 -329.22 649.86 C-325.37 639.29 -324.69 629.36 -329.22 618.86 C-331.39 615.13 -333.99 611.74 -337.22 608.86 C-337.88 608.86 -338.54 608.86 -339.22 608.86 C-339.22 608.2 -339.22 607.54 -339.22 606.86 C-340.56 605.19 -340.56 605.19 -342.22 603.86 C-342.88 603.86 -343.54 603.86 -344.22 603.86 C-344.22 603.2 -344.22 602.54 -344.22 601.86 C-345.56 600.19 -345.56 600.19 -347.22 598.86 C-347.88 598.86 -348.54 598.86 -349.22 598.86 C-349.22 598.2 -349.22 597.54 -349.22 596.86 C-350.56 595.19 -350.56 595.19 -352.22 593.86 C-352.88 593.86 -353.54 593.86 -354.22 593.86 C-354.22 593.2 -354.22 592.54 -354.22 591.86 C-355.56 590.19 -355.56 590.19 -357.22 588.86 C-357.88 588.86 -358.54 588.86 -359.22 588.86 C-359.22 588.2 -359.22 587.54 -359.22 586.86 C-360.56 585.19 -360.56 585.19 -362.22 583.86 C-362.88 583.86 -363.54 583.86 -364.22 583.86 C-364.22 583.2 -364.22 582.54 -364.22 581.86 C-365.56 580.19 -365.56 580.19 -367.22 578.86 C-367.88 578.86 -368.54 578.86 -369.22 578.86 C-369.22 578.2 -369.22 577.54 -369.22 576.86 C-370.56 575.19 -370.56 575.19 -372.22 573.86 C-372.88 573.86 -373.54 573.86 -374.22 573.86 C-374.22 573.2 -374.22 572.54 -374.22 571.86 C-375.56 570.19 -375.56 570.19 -377.22 568.86 C-377.88 568.86 -378.54 568.86 -379.22 568.86 C-379.22 568.2 -379.22 567.54 -379.22 566.86 C-380.56 565.19 -380.56 565.19 -382.22 563.86 C-382.88 563.86 -383.54 563.86 -384.22 563.86 C-384.22 563.2 -384.22 562.54 -384.22 561.86 C-385.56 560.19 -385.56 560.19 -387.22 558.86 C-387.88 558.86 -388.54 558.86 -389.22 558.86 C-389.22 558.2 -389.22 557.54 -389.22 556.86 C-390.56 555.19 -390.56 555.19 -392.22 553.86 C-392.88 553.86 -393.54 553.86 -394.22 553.86 C-394.22 553.2 -394.22 552.54 -394.22 551.86 C-395.56 550.19 -395.56 550.19 -397.22 548.86 C-397.88 548.86 -398.54 548.86 -399.22 548.86 C-399.22 548.2 -399.22 547.54 -399.22 546.86 C-400.56 545.19 -400.56 545.19 -402.22 543.86 C-402.88 543.86 -403.54 543.86 -404.22 543.86 C-404.22 543.2 -404.22 542.54 -404.22 541.86 C-405.56 540.19 -405.56 540.19 -407.22 538.86 C-407.88 538.86 -408.54 538.86 -409.22 538.86 C-409.22 538.2 -409.22 537.54 -409.22 536.86 C-410.56 535.19 -410.56 535.19 -412.22 533.86 C-412.88 533.86 -413.54 533.86 -414.22 533.86 C-414.22 533.2 -414.22 532.54 -414.22 531.86 C-415.49 530.17 -415.49 530.17 -417.22 528.86 C-420.2 528.54 -420.2 528.54 -421.91 530.23 Z M-425.22 801.86 C-436.71 813.27 -448.18 824.69 -459.64 836.13 C-464.97 841.43 -470.29 846.74 -475.62 852.04 C-480.27 856.65 -484.91 861.27 -489.55 865.9 C-492 868.35 -494.46 870.8 -496.93 873.24 C-499.67 875.97 -502.41 878.7 -505.14 881.44 C-506.38 882.66 -506.38 882.66 -507.64 883.9 C-508.38 884.65 -509.12 885.39 -509.88 886.16 C-510.53 886.8 -511.18 887.45 -511.85 888.12 C-513.53 889.88 -513.53 889.88 -513.22 892.86 C-511.63 894.6 -511.63 894.6 -509.54 896.23 C-506.26 898.98 -503.2 901.8 -500.22 904.86 C-499.4 905.68 -498.57 906.51 -497.72 907.36 C-484.22 920.86 -470.72 934.36 -457.22 947.86 C-451.01 942.59 -445.19 936.99 -439.43 931.23 C-438.52 930.33 -437.61 929.42 -436.67 928.49 C-434.76 926.59 -432.86 924.68 -430.95 922.77 C-428.52 920.34 -426.08 917.92 -423.65 915.5 C-421.3 913.17 -418.96 910.82 -416.62 908.48 C-415.32 907.19 -415.32 907.19 -413.99 905.88 C-403.77 895.62 -397.26 885.8 -396.91 870.98 C-397.09 860.45 -400.77 852.25 -405.22 842.86 C-406.06 841.03 -406.89 839.19 -407.72 837.36 C-408.94 834.68 -410.16 831.99 -411.4 829.32 C-413.37 825.07 -415.26 820.81 -416.99 816.46 C-417.3 815.69 -417.6 814.92 -417.92 814.13 C-418.53 812.6 -419.13 811.06 -419.72 809.52 C-421.52 804.98 -421.52 804.98 -425.22 801.86 Z " fill="#000000" transform="translate(1076.22265625,-0.859375)"/>
<path d="M0 0 C4.78 2.91 7.29 7.02 9.08 12.27 C9.49 14.85 9.49 14.85 9.58 17.52 C9.63 18.39 9.69 19.26 9.74 20.16 C7.9 28.85 0.25 35.54 -5.81 41.58 C-6.68 42.46 -7.56 43.35 -8.46 44.26 C-10.83 46.65 -13.22 49.04 -15.61 51.43 C-17.61 53.43 -19.6 55.43 -21.6 57.44 C-26.31 62.17 -31.03 66.89 -35.76 71.61 C-40.61 76.46 -45.46 81.33 -50.29 86.2 C-54.47 90.4 -58.65 94.59 -62.83 98.78 C-65.33 101.27 -67.82 103.76 -70.3 106.27 C-73.06 109.06 -75.85 111.83 -78.64 114.6 C-79.85 115.84 -79.85 115.84 -81.09 117.1 C-86.84 122.76 -92.31 126.61 -100.42 127.77 C-104.95 127.12 -109.05 125.75 -112.92 123.27 C-113.25 122.28 -113.58 121.29 -113.92 120.27 C-114.58 120.27 -115.24 120.27 -115.92 120.27 C-119.06 117.07 -119.43 114.27 -119.73 109.89 C-119.82 108.79 -119.91 107.69 -120 106.56 C-119.72 95.23 -109.68 87.88 -102.19 80.35 C-100.92 79.07 -100.92 79.07 -99.63 77.76 C-96.86 74.96 -94.08 72.17 -91.3 69.38 C-90.34 68.41 -89.38 67.44 -88.41 66.47 C-84.41 62.45 -80.4 58.42 -76.39 54.4 C-70.67 48.66 -64.96 42.92 -59.26 37.16 C-55.23 33.1 -51.2 29.04 -47.15 25 C-44.75 22.58 -42.35 20.17 -39.95 17.75 C-37.28 15.04 -34.6 12.36 -31.91 9.67 C-31.13 8.88 -30.35 8.08 -29.54 7.26 C-20.74 -1.44 -11.82 -5.7 0 0 Z " fill="#000000" transform="translate(615.91796875,667.73046875)"/>
</svg>
