<?xml version="1.0" encoding="UTF-8"?>
<!-- Generator: visioncortex VTracer 0.6.3 -->
<svg version="1.1" xmlns="http://www.w3.org/2000/svg" width="1280" height="1280">
<path d="M0 0 C2.2 -0 4.41 -0.01 6.61 -0.02 C12.56 -0.03 18.51 -0.02 24.45 -0.01 C30.7 -0.01 36.95 -0.01 43.19 -0.02 C54.35 -0.02 65.51 -0.02 76.66 -0 C86.75 0.01 96.84 0.01 106.92 -0 C118.68 -0.02 130.43 -0.02 142.19 -0.02 C148.39 -0.01 154.6 -0.01 160.81 -0.02 C166.64 -0.03 172.48 -0.02 178.32 -0.01 C180.45 -0 182.58 -0 184.72 -0.01 C208.12 -0.08 226.3 4.97 246.79 16.39 C246.79 17.05 246.79 17.71 246.79 18.39 C247.39 18.51 247.99 18.64 248.6 18.76 C250.79 19.39 250.79 19.39 253.79 21.39 C253.79 22.05 253.79 22.71 253.79 23.39 C254.37 23.66 254.94 23.92 255.54 24.2 C257.84 25.42 259.81 26.69 261.79 28.39 C261.79 29.05 261.79 29.71 261.79 30.39 C262.45 30.39 263.11 30.39 263.79 30.39 C268.79 35.86 268.79 35.86 268.79 38.39 C269.45 38.39 270.11 38.39 270.79 38.39 C273.79 42.77 273.79 42.77 273.79 45.39 C274.45 45.39 275.11 45.39 275.79 45.39 C280.34 53.48 284.44 61.25 287.1 70.19 C287.59 72.34 287.59 72.34 288.79 73.39 C291.87 85.67 292.23 97.69 292.22 110.28 C292.02 122.45 292.02 122.45 296.79 133.39 C302.09 138.55 306.88 139.63 314.15 139.63 C315.61 139.64 317.07 139.66 318.53 139.68 C320.8 139.69 323.06 139.7 325.33 139.69 C344.52 139.67 360.23 144.67 374.47 158.04 C387.14 170.86 392.26 186.18 392.16 203.99 C392.18 206.38 392.2 208.77 392.21 211.16 C392.22 214.88 392.23 218.6 392.22 222.32 C392.23 225.94 392.26 229.56 392.29 233.18 C392.28 234.29 392.27 235.39 392.26 236.53 C392.33 243.28 393.19 247.64 396.79 253.39 C402.42 258.88 407.76 259.68 415.4 259.64 C416.68 259.65 416.68 259.65 417.99 259.65 C419.85 259.66 421.7 259.66 423.56 259.66 C426.49 259.66 429.43 259.67 432.37 259.69 C440.73 259.74 449.08 259.76 457.44 259.77 C462.55 259.77 467.67 259.8 472.78 259.83 C474.72 259.84 476.67 259.85 478.61 259.84 C481.34 259.83 484.06 259.85 486.79 259.87 C487.59 259.87 488.38 259.86 489.2 259.85 C496.2 259.95 501.22 262.28 506.6 266.7 C510.97 272.06 512.37 277.1 512.14 283.9 C511.23 290.34 507.79 295.32 502.79 299.39 C497.22 302.29 492.76 302.83 486.53 302.81 C485.63 302.82 484.72 302.83 483.79 302.83 C480.83 302.86 477.86 302.86 474.89 302.86 C472.81 302.86 470.72 302.87 468.64 302.88 C464.28 302.89 459.92 302.9 455.55 302.89 C450 302.88 444.45 302.91 438.9 302.95 C434.6 302.98 430.29 302.98 425.99 302.98 C423.95 302.98 421.9 302.99 419.86 303.01 C399.16 303.17 382.63 299.31 367.11 284.74 C354.44 271.92 349.32 256.6 349.42 238.78 C349.4 236.39 349.38 234.01 349.37 231.62 C349.36 227.9 349.35 224.18 349.35 220.46 C349.35 216.84 349.32 213.22 349.29 209.6 C349.3 208.49 349.31 207.38 349.32 206.25 C349.25 199.5 348.39 195.14 344.79 189.39 C339.49 184.22 334.7 183.15 327.43 183.15 C325.97 183.13 324.51 183.12 323.04 183.1 C320.78 183.08 318.51 183.08 316.25 183.08 C297.06 183.11 281.35 178.11 267.11 164.74 C260.57 158.12 255.95 151.16 252.79 142.39 C252.4 141.32 252.4 141.32 252 140.23 C249.11 131.26 249.33 122.28 249.29 112.95 C249.22 98.24 247.64 86.06 241.79 72.39 C241.12 70.72 240.45 69.06 239.79 67.39 C239.13 67.39 238.47 67.39 237.79 67.39 C237.79 66.4 237.79 65.41 237.79 64.39 C236.8 64.06 235.81 63.73 234.79 63.39 C234.79 62.73 234.79 62.07 234.79 61.39 C234.13 61.39 233.47 61.39 232.79 61.39 C232.79 60.73 232.79 60.07 232.79 59.39 C232.13 59.39 231.47 59.39 230.79 59.39 C230.79 58.73 230.79 58.07 230.79 57.39 C230.17 57.08 229.55 56.77 228.91 56.45 C227.54 55.76 226.16 55.08 224.79 54.39 C224.79 53.73 224.79 53.07 224.79 52.39 C224.08 52.11 223.38 51.83 222.65 51.54 C220.75 50.78 218.87 49.99 216.99 49.17 C216.02 48.75 215.04 48.32 214.04 47.89 C212.59 47.25 212.59 47.25 211.12 46.61 C203.97 43.99 197.15 43.09 189.57 43.13 C188.69 43.13 187.81 43.13 186.9 43.12 C183.97 43.12 181.03 43.12 178.1 43.13 C175.98 43.13 173.87 43.12 171.76 43.12 C166.04 43.11 160.31 43.11 154.59 43.12 C148.59 43.12 142.59 43.12 136.59 43.12 C126.52 43.11 116.45 43.12 106.37 43.13 C94.74 43.14 83.11 43.13 71.48 43.12 C61.48 43.11 51.48 43.11 41.48 43.12 C35.51 43.12 29.54 43.12 23.57 43.12 C17.96 43.11 12.35 43.11 6.74 43.13 C4.68 43.13 2.63 43.13 0.57 43.12 C-2.24 43.12 -5.05 43.12 -7.87 43.13 C-8.67 43.13 -9.48 43.13 -10.31 43.12 C-18.6 43.18 -26.25 44.45 -33.59 48.45 C-36.79 50.18 -39.62 51.7 -43.21 52.39 C-43.21 53.05 -43.21 53.71 -43.21 54.39 C-44.2 54.39 -45.19 54.39 -46.21 54.39 C-46.54 55.38 -46.87 56.37 -47.21 57.39 C-47.87 57.39 -48.53 57.39 -49.21 57.39 C-49.21 58.05 -49.21 58.71 -49.21 59.39 C-49.87 59.39 -50.53 59.39 -51.21 59.39 C-51.21 60.05 -51.21 60.71 -51.21 61.39 C-51.87 61.39 -52.53 61.39 -53.21 61.39 C-53.54 62.38 -53.87 63.37 -54.21 64.39 C-54.87 64.39 -55.53 64.39 -56.21 64.39 C-56.21 65.38 -56.21 66.37 -56.21 67.39 C-56.87 67.39 -57.53 67.39 -58.21 67.39 C-58.49 68.11 -58.77 68.82 -59.05 69.56 C-60.54 73.18 -62.27 76.67 -63.99 80.18 C-67.36 89.05 -67.59 98.12 -67.84 107.51 C-67.87 108.76 -67.91 110 -67.95 111.28 C-68.05 114.32 -68.13 117.35 -68.21 120.39 C-67.25 120.45 -66.28 120.51 -65.29 120.57 C-63.39 120.7 -63.39 120.7 -61.46 120.83 C-59.58 120.95 -59.58 120.95 -57.66 121.07 C-54.99 121.32 -52.78 121.73 -50.21 122.39 C-48.3 122.54 -46.38 122.66 -44.46 122.76 C-33.38 123.56 -22.59 125.91 -11.85 128.71 C-9.58 129.29 -7.32 129.79 -5.02 130.26 C7.18 132.94 19.1 137.02 30.79 141.39 C31.88 141.79 32.97 142.19 34.09 142.6 C41.17 145.26 48.04 148.23 54.87 151.48 C57.07 152.52 59.27 153.54 61.48 154.56 C69.19 158.15 76.81 161.68 83.98 166.29 C85.91 167.55 85.91 167.55 88.79 168.39 C88.79 169.05 88.79 169.71 88.79 170.39 C89.36 170.5 89.93 170.6 90.52 170.71 C93.13 171.49 94.88 172.64 97.1 174.2 C100.23 176.35 103.37 178.28 106.69 180.11 C110.36 182.34 113.84 184.84 117.35 187.3 C120.47 189.51 120.47 189.51 123.79 191.39 C123.79 192.05 123.79 192.71 123.79 193.39 C124.45 193.59 125.11 193.8 125.79 194.01 C129.86 195.88 133.48 198.36 136.79 201.39 C136.79 202.05 136.79 202.71 136.79 203.39 C137.53 203.66 138.27 203.92 139.04 204.2 C141.68 205.34 143.64 206.48 145.79 208.39 C145.79 209.05 145.79 209.71 145.79 210.39 C146.33 210.63 146.87 210.86 147.43 211.11 C150.42 212.73 152.9 214.74 155.54 216.89 C157.02 218.08 157.02 218.08 158.52 219.29 C159.64 220.33 159.64 220.33 160.79 221.39 C160.79 222.05 160.79 222.71 160.79 223.39 C161.37 223.64 161.96 223.9 162.56 224.17 C164.98 225.49 166.52 226.95 168.41 228.95 C170.83 231.53 170.83 231.53 173.79 233.39 C173.79 234.05 173.79 234.71 173.79 235.39 C174.78 235.72 175.77 236.05 176.79 236.39 C176.79 237.05 176.79 237.71 176.79 238.39 C177.45 238.39 178.11 238.39 178.79 238.39 C178.79 239.05 178.79 239.71 178.79 240.39 C179.78 240.72 180.77 241.05 181.79 241.39 C181.79 242.05 181.79 242.71 181.79 243.39 C182.45 243.39 183.11 243.39 183.79 243.39 C183.79 244.05 183.79 244.71 183.79 245.39 C184.78 245.72 185.77 246.05 186.79 246.39 C186.79 247.05 186.79 247.71 186.79 248.39 C187.45 248.39 188.11 248.39 188.79 248.39 C190.41 250.03 190.41 250.03 192.23 252.2 C194.76 255.21 194.76 255.21 197.51 258.02 C198.79 259.39 198.79 259.39 198.79 261.39 C199.45 261.39 200.11 261.39 200.79 261.39 C202.3 262.85 202.3 262.85 203.91 264.76 C204.45 265.39 204.99 266.02 205.55 266.66 C206.79 268.39 206.79 268.39 206.79 270.39 C207.45 270.39 208.11 270.39 208.79 270.39 C210.31 272.06 211.76 273.81 213.16 275.58 C213.93 276.54 214.71 277.5 215.5 278.49 C216.26 279.45 217.01 280.4 217.79 281.39 C218.54 282.29 219.3 283.2 220.08 284.13 C221.79 286.39 221.79 286.39 221.79 288.39 C222.45 288.39 223.11 288.39 223.79 288.39 C225.5 290.38 225.5 290.38 227.6 293.26 C228.19 294.06 228.19 294.06 228.78 294.87 C230.13 296.7 231.46 298.55 232.79 300.39 C233.8 301.78 234.81 303.17 235.82 304.56 C238.01 307.59 240.2 310.62 242.38 313.66 C244.65 316.81 246.93 319.95 249.23 323.09 C266.79 347.08 266.79 347.08 266.79 351.39 C267.45 351.39 268.11 351.39 268.79 351.39 C269.34 352.36 269.88 353.33 270.45 354.33 C273.39 359.48 276.52 364.5 279.63 369.54 C282.02 373.42 284.37 377.32 286.64 381.27 C287.05 381.99 287.46 382.71 287.89 383.45 C288.79 385.39 288.79 385.39 288.79 388.39 C289.45 388.39 290.11 388.39 290.79 388.39 C291.08 388.99 291.37 389.6 291.67 390.22 C293.81 394.59 296.01 398.83 298.6 402.95 C301.7 408 304.14 413.28 306.61 418.65 C309.03 423.87 311.63 428.95 314.35 434.01 C318.47 441.68 322.19 449.47 325.79 457.39 C326.24 458.36 326.69 459.34 327.16 460.35 C329.76 465.99 332.18 471.7 334.55 477.44 C335.69 480.16 336.91 482.84 338.16 485.51 C340.79 491.22 343.03 497.05 345.27 502.91 C346.7 506.64 348.16 510.33 349.85 513.95 C352.11 518.86 353.8 523.98 355.57 529.08 C356.95 533.04 358.38 536.95 359.98 540.83 C361.28 544 362.35 547.15 363.29 550.45 C364.21 553.67 365.29 556.62 366.73 559.64 C369.04 564.62 370.4 569.8 371.85 575.09 C372.95 578.97 374.3 582.64 375.79 586.39 C377.71 591.34 379.35 596.27 380.79 601.39 C381.28 602.87 381.78 604.35 382.29 605.83 C383.47 609.31 384.41 612.78 385.26 616.36 C386.02 619.27 387.01 622.09 388.01 624.92 C388.87 627.66 389.56 630.43 390.24 633.22 C391.17 636.9 392.2 640.55 393.23 644.2 C393.67 645.79 394.11 647.37 394.55 648.96 C395.28 651.56 396.01 654.16 396.75 656.76 C398.12 661.64 399.08 666.35 399.79 671.39 C400.09 672.12 400.39 672.86 400.7 673.61 C402.03 676.99 402.88 680.43 403.73 683.95 C404.08 685.38 404.43 686.81 404.78 688.24 C405.03 689.3 405.03 689.3 405.3 690.37 C405.98 693.18 406.7 695.97 407.41 698.76 C409.43 706.85 410.93 715.02 412.32 723.24 C412.58 725.36 412.58 725.36 413.79 726.39 C414.12 727.75 414.4 729.13 414.66 730.51 C415.27 733.7 415.89 736.89 416.55 740.07 C417.82 746.21 418.96 752.24 419.55 758.48 C419.94 761.55 420.89 764.43 421.79 767.39 C423.33 773.44 424.31 779.55 425.22 785.73 C425.85 789.8 426.56 793.84 427.29 797.89 C429.2 808.59 430.85 819.3 432.09 830.1 C432.44 833.01 432.86 835.59 433.79 838.39 C433.97 840.24 434.11 842.09 434.23 843.95 C434.59 848.65 435.27 853.11 436.25 857.71 C438.12 867.02 438.96 876.33 439.51 885.79 C439.84 890.06 440.55 894.19 441.32 898.4 C442.01 902.77 442.28 907.16 442.54 911.58 C442.7 914.26 442.7 914.26 443.29 916.31 C443.79 918.4 443.96 920.27 444.04 922.41 C444.07 923.17 444.1 923.94 444.13 924.73 C444.16 925.55 444.19 926.36 444.23 927.2 C444.49 933.11 444.91 938.9 445.79 944.76 C446.84 951.88 447.19 958.97 447.45 966.16 C447.48 967.01 447.51 967.86 447.54 968.74 C447.58 969.87 447.58 969.87 447.62 971.02 C447.76 973.48 447.76 973.48 448.29 976.24 C448.83 979.66 448.98 982.95 449.07 986.4 C449.09 987.06 449.11 987.72 449.13 988.39 C449.18 990.47 449.24 992.56 449.29 994.64 C449.58 1006.38 449.58 1006.38 450.55 1018.08 C450.99 1022.3 451.17 1026.53 451.35 1030.76 C451.42 1032.25 451.42 1032.25 451.48 1033.76 C452.06 1049.29 451.87 1064.85 451.79 1080.39 C452.37 1080.38 452.95 1080.36 453.55 1080.35 C468.8 1080.15 481.53 1086.29 492.79 1096.39 C505.33 1108.74 512.2 1123.78 512.41 1141.39 C512.19 1159.72 504.76 1174.57 491.79 1187.39 C479.14 1198.97 463.95 1202.85 447.15 1202.86 C445.87 1202.86 444.6 1202.87 443.28 1202.88 C440.59 1202.89 437.9 1202.9 435.2 1202.89 C432.48 1202.88 429.75 1202.9 427.03 1202.93 C389.4 1203.37 389.4 1203.37 374.79 1191.39 C374.79 1190.73 374.79 1190.07 374.79 1189.39 C374.11 1189.22 373.43 1189.06 372.73 1188.89 C368.44 1186.7 365.59 1183.27 362.79 1179.39 C362.79 1178.73 362.79 1178.07 362.79 1177.39 C362.13 1177.39 361.47 1177.39 360.79 1177.39 C350.78 1164.46 348.53 1148.23 349.79 1132.39 C351.29 1122.67 355.36 1113.53 360.79 1105.39 C361.45 1105.39 362.11 1105.39 362.79 1105.39 C363.03 1104.65 363.26 1103.92 363.51 1103.17 C367.32 1094.9 377.03 1089.54 384.79 1085.39 C385.39 1085.04 386 1084.69 386.62 1084.33 C389.68 1083 392.78 1082.43 396.04 1081.76 C397.3 1081.5 398.57 1081.24 399.87 1080.97 C400.83 1080.78 401.8 1080.59 402.79 1080.39 C396.13 1071.03 396.13 1071.03 387.79 1063.39 C387.79 1062.73 387.79 1062.07 387.79 1061.39 C387.27 1061.16 386.75 1060.94 386.22 1060.71 C382.87 1058.89 379.94 1056.56 376.91 1054.26 C369.84 1048.98 362.58 1044.54 354.79 1040.39 C353.89 1039.91 353 1039.42 352.08 1038.93 C347.02 1036.29 341.89 1034.23 336.51 1032.35 C333.9 1031.43 331.35 1030.43 328.79 1029.39 C323.5 1027.25 318.16 1025.3 312.79 1023.39 C312.1 1023.13 311.4 1022.88 310.69 1022.61 C304.95 1020.57 299.08 1019.23 293.15 1017.87 C289.13 1016.95 285.14 1015.96 281.16 1014.83 C268.66 1011.37 255.99 1009.67 243.16 1008.08 C239.18 1007.58 235.24 1006.97 231.29 1006.26 C224.21 1005.12 217.07 1004.96 209.92 1004.73 C208.97 1004.7 208.02 1004.67 207.05 1004.63 C206.2 1004.61 205.36 1004.59 204.49 1004.56 C201.79 1004.39 201.79 1004.39 198.64 1003.88 C193.69 1003.25 188.84 1003.25 183.85 1003.26 C182.81 1003.25 181.77 1003.25 180.7 1003.25 C178.51 1003.25 176.33 1003.25 174.14 1003.26 C170.8 1003.26 167.46 1003.26 164.12 1003.25 C161.99 1003.25 159.86 1003.25 157.73 1003.26 C156.73 1003.25 155.74 1003.25 154.72 1003.25 C149.64 1003.27 144.82 1003.58 139.79 1004.39 C138.03 1004.5 136.26 1004.58 134.5 1004.63 C133.54 1004.67 132.59 1004.7 131.6 1004.73 C130.61 1004.76 129.62 1004.79 128.6 1004.83 C121.41 1005.09 114.45 1005.52 107.38 1006.92 C103.59 1007.61 99.8 1007.87 95.97 1008.14 C93.75 1008.27 93.75 1008.27 91.79 1009.39 C90.25 1009.52 88.71 1009.62 87.16 1009.7 C81.51 1010.16 76.18 1011.43 70.71 1012.87 C66.77 1013.91 62.87 1014.79 58.85 1015.45 C54.71 1016.15 50.92 1017.26 46.97 1018.67 C44.74 1019.41 42.53 1019.92 40.23 1020.39 C36.54 1021.16 33.17 1022.29 29.67 1023.67 C26.77 1024.78 23.78 1025.54 20.79 1026.39 C14.54 1028.31 8.55 1030.32 2.77 1033.4 C0.53 1034.52 -1.74 1035.38 -4.09 1036.26 C-8.59 1038.02 -12.56 1040.27 -16.65 1042.83 C-19.25 1044.41 -21.89 1045.8 -24.59 1047.2 C-33.86 1052.23 -49.25 1061.47 -54.21 1071.39 C-54.87 1071.39 -55.53 1071.39 -56.21 1071.39 C-56.48 1072.13 -56.75 1072.87 -57.02 1073.64 C-58.16 1076.26 -59.46 1078.15 -61.21 1080.39 C-59.89 1080.61 -59.89 1080.61 -58.54 1080.83 C-40.55 1084.2 -26.58 1094.3 -16.21 1109.39 C-14.19 1112.95 -12.62 1116.54 -11.21 1120.39 C-10.73 1121.59 -10.73 1121.59 -10.25 1122.82 C-4.94 1138.48 -7.65 1155.63 -14.56 1170.25 C-23.08 1185.56 -36.46 1195.9 -53.06 1200.93 C-59.67 1202.71 -66.03 1202.86 -72.85 1202.86 C-74.13 1202.86 -75.4 1202.87 -76.72 1202.88 C-79.41 1202.89 -82.1 1202.9 -84.8 1202.89 C-87.52 1202.88 -90.25 1202.9 -92.97 1202.93 C-130.6 1203.37 -130.6 1203.37 -145.21 1191.39 C-145.21 1190.73 -145.21 1190.07 -145.21 1189.39 C-146.23 1189.14 -146.23 1189.14 -147.27 1188.89 C-151.56 1186.7 -154.41 1183.27 -157.21 1179.39 C-157.21 1178.73 -157.21 1178.07 -157.21 1177.39 C-157.87 1177.39 -158.53 1177.39 -159.21 1177.39 C-169.22 1164.46 -171.47 1148.23 -170.21 1132.39 C-168.71 1122.67 -164.64 1113.53 -159.21 1105.39 C-158.55 1105.39 -157.89 1105.39 -157.21 1105.39 C-156.97 1104.65 -156.74 1103.92 -156.49 1103.17 C-152.68 1094.9 -142.97 1089.54 -135.21 1085.39 C-134.3 1084.86 -134.3 1084.86 -133.38 1084.33 C-130.32 1083 -127.22 1082.43 -123.96 1081.76 C-122.7 1081.5 -121.43 1081.24 -120.13 1080.97 C-119.17 1080.78 -118.2 1080.59 -117.21 1080.39 C-123.87 1071.03 -123.87 1071.03 -132.21 1063.39 C-132.21 1062.73 -132.21 1062.07 -132.21 1061.39 C-132.73 1061.16 -133.25 1060.94 -133.78 1060.71 C-137.13 1058.89 -140.06 1056.56 -143.09 1054.26 C-150.16 1048.98 -157.42 1044.54 -165.21 1040.39 C-166.11 1039.91 -167 1039.42 -167.92 1038.93 C-172.98 1036.29 -178.11 1034.23 -183.49 1032.35 C-186.1 1031.43 -188.65 1030.43 -191.21 1029.39 C-196.5 1027.25 -201.84 1025.3 -207.21 1023.39 C-207.9 1023.13 -208.6 1022.88 -209.31 1022.61 C-215.05 1020.57 -220.92 1019.23 -226.85 1017.87 C-230.87 1016.95 -234.86 1015.96 -238.84 1014.83 C-251.34 1011.37 -264.01 1009.67 -276.84 1008.08 C-280.82 1007.58 -284.76 1006.97 -288.71 1006.26 C-295.79 1005.12 -302.93 1004.96 -310.08 1004.73 C-311.03 1004.7 -311.98 1004.67 -312.95 1004.63 C-313.8 1004.61 -314.64 1004.59 -315.51 1004.56 C-318.21 1004.39 -318.21 1004.39 -321.36 1003.88 C-326.31 1003.25 -331.16 1003.25 -336.15 1003.26 C-337.19 1003.25 -338.23 1003.25 -339.3 1003.25 C-341.49 1003.25 -343.67 1003.25 -345.86 1003.26 C-349.2 1003.26 -352.54 1003.26 -355.88 1003.25 C-358.01 1003.25 -360.14 1003.25 -362.27 1003.26 C-363.27 1003.25 -364.26 1003.25 -365.28 1003.25 C-370.36 1003.27 -375.18 1003.58 -380.21 1004.39 C-381.97 1004.5 -383.74 1004.58 -385.5 1004.63 C-386.46 1004.67 -387.41 1004.7 -388.4 1004.73 C-389.39 1004.76 -390.38 1004.79 -391.4 1004.83 C-398.59 1005.09 -405.55 1005.52 -412.62 1006.92 C-416.41 1007.61 -420.2 1007.87 -424.03 1008.14 C-426.25 1008.27 -426.25 1008.27 -428.21 1009.39 C-429.75 1009.52 -431.29 1009.62 -432.84 1009.7 C-438.49 1010.16 -443.82 1011.43 -449.29 1012.87 C-453.23 1013.91 -457.13 1014.79 -461.15 1015.45 C-465.29 1016.15 -469.08 1017.26 -473.03 1018.67 C-475.26 1019.41 -477.47 1019.92 -479.77 1020.39 C-483.46 1021.16 -486.83 1022.29 -490.33 1023.67 C-493.23 1024.78 -496.22 1025.54 -499.21 1026.39 C-505.46 1028.31 -511.45 1030.32 -517.23 1033.4 C-519.47 1034.52 -521.74 1035.38 -524.09 1036.26 C-528.59 1038.02 -532.56 1040.27 -536.65 1042.83 C-539.25 1044.41 -541.89 1045.8 -544.59 1047.2 C-553.86 1052.23 -569.25 1061.47 -574.21 1071.39 C-574.87 1071.39 -575.53 1071.39 -576.21 1071.39 C-576.48 1072.13 -576.75 1072.87 -577.02 1073.64 C-578.16 1076.26 -579.46 1078.15 -581.21 1080.39 C-580.33 1080.54 -579.44 1080.68 -578.54 1080.83 C-560.55 1084.2 -546.58 1094.3 -536.21 1109.39 C-534.19 1112.95 -532.62 1116.54 -531.21 1120.39 C-530.89 1121.19 -530.57 1121.99 -530.25 1122.82 C-524.94 1138.48 -527.65 1155.63 -534.56 1170.25 C-543.08 1185.56 -556.45 1195.89 -573.05 1200.93 C-579.72 1202.73 -586.12 1202.82 -592.99 1202.79 C-594.28 1202.79 -595.56 1202.79 -596.89 1202.8 C-599.6 1202.8 -602.31 1202.79 -605.02 1202.78 C-608.45 1202.76 -611.89 1202.77 -615.33 1202.79 C-618.65 1202.8 -621.98 1202.79 -625.3 1202.79 C-626.52 1202.79 -627.73 1202.8 -628.99 1202.81 C-646.53 1202.66 -660.83 1196.62 -673.34 1184.29 C-686.43 1170.2 -691.01 1155.11 -690.49 1136.17 C-689.68 1119.07 -681.23 1105.96 -669.21 1094.39 C-658.18 1084.53 -644.88 1080.04 -630.21 1080.39 C-630.22 1079.43 -630.22 1078.47 -630.23 1077.48 C-630.39 1045.24 -630.39 1045.24 -629.77 1030.2 C-629.73 1029.22 -629.69 1028.25 -629.65 1027.24 C-629.47 1023.21 -629.22 1019.23 -628.71 1015.22 C-627.79 1007.54 -627.84 999.75 -627.66 992.02 C-627.61 989.9 -627.55 987.78 -627.49 985.66 C-627.46 984.41 -627.43 983.15 -627.4 981.86 C-627.22 978.62 -626.76 975.58 -626.21 972.39 C-626.02 970.07 -625.85 967.74 -625.71 965.42 C-625.63 964.1 -625.55 962.79 -625.46 961.44 C-625.34 959.38 -625.21 957.32 -625.09 955.25 C-624.96 953.24 -624.84 951.24 -624.71 949.23 C-624.64 948.04 -624.57 946.84 -624.49 945.61 C-624.25 942.79 -623.79 940.16 -623.21 937.39 C-623.06 934.64 -622.94 931.89 -622.84 929.14 C-622.48 921.03 -621.69 913.01 -620.71 904.95 C-620.58 903.87 -620.45 902.78 -620.31 901.67 C-619.79 897.49 -619.24 893.46 -618.21 889.39 C-618.06 887.24 -617.94 885.1 -617.84 882.95 C-617.43 876.29 -616.66 869.74 -615.71 863.14 C-615.58 862.22 -615.45 861.3 -615.31 860.36 C-614.8 856.9 -614.32 853.71 -613.21 850.39 C-613.03 848.41 -612.89 846.43 -612.77 844.45 C-612.21 836.56 -611.03 828.89 -609.24 821.19 C-608.1 816.12 -607.39 811.03 -606.71 805.89 C-605.93 799.96 -604.99 794.16 -603.63 788.34 C-603.13 786.02 -602.87 783.75 -602.71 781.39 C-602.19 775.46 -600.97 769.86 -599.23 764.18 C-598.09 759.95 -597.45 755.78 -596.84 751.45 C-595.8 744.48 -594.42 737.71 -592.62 730.9 C-591.42 726.3 -590.5 721.71 -589.7 717.02 C-588.78 712.09 -587.47 707.25 -586.21 702.39 C-584.57 696.05 -583.1 689.88 -582.21 683.39 C-581.57 681.05 -580.9 678.72 -580.21 676.39 C-579.54 674.1 -578.88 671.81 -578.21 669.51 C-577.88 668.38 -577.55 667.25 -577.21 666.08 C-576.48 663.38 -575.82 660.71 -575.23 657.97 C-574.27 653.57 -573.12 649.23 -571.9 644.89 C-571.68 644.11 -571.47 643.34 -571.24 642.54 C-569.17 635.19 -567.02 627.86 -564.84 620.54 C-564.19 618.3 -563.54 616.06 -562.89 613.83 C-562.56 612.7 -562.56 612.7 -562.23 611.54 C-561.82 610.12 -561.41 608.7 -561 607.27 C-560.05 604 -559.01 600.8 -557.78 597.61 C-555.42 591.46 -553.68 585.11 -551.82 578.79 C-549.33 570.46 -549.33 570.46 -547.61 566.57 C-546.22 563.42 -545.23 560.32 -544.27 557.01 C-542.87 552.32 -541.21 547.97 -539.14 543.54 C-538.18 541.31 -537.49 539.1 -536.84 536.76 C-534.84 529.77 -531.96 523.11 -529.21 516.39 C-528.54 514.72 -527.88 513.06 -527.21 511.39 C-526.9 510.61 -526.59 509.83 -526.27 509.03 C-525.45 506.99 -524.65 504.95 -523.84 502.9 C-520.97 495.6 -517.91 488.46 -514.57 481.36 C-513.39 478.77 -512.3 476.17 -511.27 473.51 C-508.86 467.36 -506.01 461.41 -503.18 455.44 C-502.2 453.35 -501.23 451.26 -500.26 449.17 C-496.78 441.66 -493.16 434.27 -489.22 426.99 C-485.7 420.5 -482.43 413.9 -479.15 407.29 C-477.68 404.32 -476.19 401.35 -474.71 398.39 C-474.23 397.42 -473.74 396.45 -473.24 395.45 C-472.9 394.77 -472.56 394.09 -472.21 393.39 C-471.55 393.39 -470.89 393.39 -470.21 393.39 C-469.88 391.74 -469.55 390.09 -469.21 388.39 C-468.55 388.39 -467.89 388.39 -467.21 388.39 C-467.02 387.5 -467.02 387.5 -466.82 386.6 C-465.85 383.1 -463.95 380.08 -462.15 376.95 C-461.75 376.25 -461.35 375.54 -460.94 374.82 C-457.7 369.15 -454.31 363.59 -450.84 358.06 C-449.51 355.87 -448.31 353.7 -447.21 351.39 C-446.55 351.39 -445.89 351.39 -445.21 351.39 C-444.97 350.7 -444.72 350.01 -444.47 349.3 C-442.99 345.88 -441.07 342.86 -439.02 339.76 C-438.22 338.53 -437.41 337.29 -436.6 336.06 C-436.2 335.45 -435.8 334.83 -435.38 334.2 C-433.06 330.61 -430.85 326.95 -428.62 323.3 C-428.16 322.67 -427.69 322.04 -427.21 321.39 C-426.55 321.39 -425.89 321.39 -425.21 321.39 C-424.93 320.8 -424.65 320.22 -424.37 319.62 C-423.27 317.51 -422.08 315.64 -420.71 313.7 C-420.22 313.01 -419.73 312.31 -419.22 311.6 C-418.7 310.87 -418.18 310.14 -417.65 309.39 C-417.12 308.64 -416.58 307.89 -416.03 307.12 C-414.43 304.87 -412.82 302.63 -411.21 300.39 C-410.75 299.74 -410.28 299.09 -409.8 298.42 C-408.57 296.72 -407.33 295.02 -406.09 293.33 C-405.38 292.37 -404.68 291.4 -403.95 290.42 C-403.38 289.75 -402.8 289.08 -402.21 288.39 C-401.55 288.39 -400.89 288.39 -400.21 288.39 C-399.86 287.57 -399.86 287.57 -399.49 286.74 C-397.88 283.79 -395.87 281.4 -393.71 278.83 C-391.4 276.06 -389.21 273.39 -387.21 270.39 C-386.55 270.39 -385.89 270.39 -385.21 270.39 C-385 269.86 -384.79 269.33 -384.58 268.79 C-382.64 265.39 -380.03 262.78 -377.34 259.95 C-376.27 258.83 -375.21 257.7 -374.16 256.58 C-373.4 255.78 -373.4 255.78 -372.63 254.96 C-371.33 253.52 -370.14 252 -368.95 250.48 C-368.38 249.79 -367.8 249.1 -367.21 248.39 C-366.55 248.39 -365.89 248.39 -365.21 248.39 C-364.88 247.4 -364.55 246.41 -364.21 245.39 C-363.55 245.39 -362.89 245.39 -362.21 245.39 C-362.21 244.73 -362.21 244.07 -362.21 243.39 C-361.55 243.39 -360.89 243.39 -360.21 243.39 C-359.88 242.4 -359.55 241.41 -359.21 240.39 C-358.55 240.39 -357.89 240.39 -357.21 240.39 C-357.21 239.73 -357.21 239.07 -357.21 238.39 C-356.55 238.39 -355.89 238.39 -355.21 238.39 C-354.88 237.4 -354.55 236.41 -354.21 235.39 C-353.55 235.39 -352.89 235.39 -352.21 235.39 C-352.21 234.73 -352.21 234.07 -352.21 233.39 C-350.57 231.77 -350.57 231.77 -348.4 229.95 C-345.39 227.41 -345.39 227.41 -342.57 224.67 C-341.21 223.39 -341.21 223.39 -339.21 223.39 C-339.21 222.73 -339.21 222.07 -339.21 221.39 C-337.75 219.88 -337.75 219.88 -335.84 218.26 C-335.21 217.72 -334.58 217.19 -333.94 216.63 C-332.21 215.39 -332.21 215.39 -330.21 215.39 C-330.21 214.73 -330.21 214.07 -330.21 213.39 C-326.75 210.39 -326.75 210.39 -324.21 210.39 C-324.21 209.73 -324.21 209.07 -324.21 208.39 C-322.75 207.1 -322.75 207.1 -320.84 205.76 C-320.21 205.32 -319.58 204.87 -318.94 204.41 C-317.21 203.39 -317.21 203.39 -315.21 203.39 C-315.21 202.73 -315.21 202.07 -315.21 201.39 C-313.48 199.94 -311.67 198.58 -309.84 197.26 C-308.84 196.54 -307.84 195.81 -306.81 195.07 C-304.21 193.39 -304.21 193.39 -302.21 193.39 C-302.21 192.73 -302.21 192.07 -302.21 191.39 C-297.83 188.39 -297.83 188.39 -295.21 188.39 C-295.21 187.73 -295.21 187.07 -295.21 186.39 C-293.12 184.87 -293.12 184.87 -290.27 183.14 C-286.59 180.86 -282.93 178.56 -279.34 176.14 C-270.73 170.39 -270.73 170.39 -267.21 170.39 C-267.21 169.73 -267.21 169.07 -267.21 168.39 C-266.54 168.06 -265.87 167.73 -265.18 167.39 C-260.56 165.1 -255.96 162.81 -251.44 160.34 C-236.03 151.92 -220.01 144.56 -203.21 139.39 C-201.81 138.88 -200.41 138.36 -199.02 137.83 C-185.48 132.65 -171.44 129.09 -157.21 126.39 C-155.98 126.14 -154.75 125.89 -153.49 125.63 C-146.16 124.17 -139 123.09 -131.53 122.64 C-126.43 122.25 -121.39 121.51 -116.33 120.79 C-113.21 120.39 -113.21 120.39 -110.21 120.39 C-110.23 119.5 -110.24 118.61 -110.26 117.69 C-110.31 114.31 -110.35 110.92 -110.38 107.54 C-110.39 106.09 -110.41 104.64 -110.44 103.19 C-110.82 81.64 -104.65 64.11 -94.21 45.39 C-93.55 45.39 -92.89 45.39 -92.21 45.39 C-92.09 44.79 -91.96 44.19 -91.84 43.58 C-91.21 41.39 -91.21 41.39 -89.21 38.39 C-88.55 38.39 -87.89 38.39 -87.21 38.39 C-86.94 37.81 -86.67 37.23 -86.4 36.64 C-85.18 34.33 -83.91 32.37 -82.21 30.39 C-81.55 30.39 -80.89 30.39 -80.21 30.39 C-80.21 29.73 -80.21 29.07 -80.21 28.39 C-78.12 26.59 -76.03 24.92 -73.84 23.26 C-72.93 22.56 -72.93 22.56 -72.01 21.85 C-67.47 18.39 -67.47 18.39 -65.21 18.39 C-65.21 17.73 -65.21 17.07 -65.21 16.39 C-43.5 4.29 -24.68 -0.08 0 0 Z M-68.21 167.39 C-68.21 231.08 -68.21 294.77 -68.21 360.39 C-64.82 361.52 -61.49 361.96 -57.96 362.39 C-57.26 362.48 -56.56 362.56 -55.84 362.65 C-49.61 363.4 -43.39 363.82 -37.12 364.14 C-34.21 364.39 -34.21 364.39 -32.21 365.39 C-29.88 365.75 -27.55 366.08 -25.21 366.39 C-18.43 367.28 -18.43 367.28 -16.21 368.39 C-14.35 368.54 -14.35 368.54 -12.46 368.7 C-7.11 369.25 -2.16 370.75 2.98 372.29 C6.88 373.41 10.79 374.38 14.73 375.33 C22.58 377.24 30.16 379.71 37.79 382.39 C39.03 382.83 40.28 383.26 41.56 383.71 C47.66 385.88 53.74 388.09 59.79 390.39 C57.56 378.15 53.05 366.13 49.16 354.33 C48.59 352.58 48.59 352.58 48 350.79 C47.16 348.44 46.24 346.12 45.25 343.84 C43.91 340.66 42.91 337.58 41.98 334.26 C40.21 328.34 37.86 322.91 35.16 317.36 C33.8 314.41 32.79 311.47 31.79 308.39 C28.72 300.6 25.28 292.99 21.79 285.39 C21.04 283.72 20.29 282.05 19.54 280.39 C18.62 278.39 17.71 276.39 16.79 274.39 C16.47 273.7 16.16 273.01 15.84 272.29 C11.34 262.44 6.57 252.98 0.86 243.77 C-1.55 239.84 -3.75 235.82 -5.92 231.76 C-7.96 228.01 -7.96 228.01 -10.21 224.39 C-10.87 224.39 -11.53 224.39 -12.21 224.39 C-12.39 223.5 -12.39 223.5 -12.57 222.6 C-13.24 220.28 -14.07 218.92 -15.5 217 C-15.97 216.37 -16.43 215.75 -16.91 215.11 C-17.4 214.46 -17.89 213.81 -18.4 213.14 C-18.9 212.47 -19.39 211.81 -19.91 211.12 C-20.89 209.8 -21.88 208.49 -22.87 207.17 C-24 205.67 -25.1 204.15 -26.2 202.63 C-27.49 200.84 -28.84 199.11 -30.21 197.39 C-30.87 197.39 -31.53 197.39 -32.21 197.39 C-32.44 196.83 -32.66 196.27 -32.9 195.7 C-34.58 192.73 -36.74 190.74 -39.21 188.39 C-39.97 187.6 -40.74 186.82 -41.52 186.01 C-49.46 178.26 -57.57 170.94 -68.21 167.39 Z M-124.27 175.33 C-124.87 175.76 -125.47 176.19 -126.09 176.63 C-131.07 180.23 -135.85 183.73 -139.84 188.45 C-141.48 190.39 -143.08 192.26 -144.92 194.01 C-146.44 195.32 -146.44 195.32 -146.21 197.39 C-146.87 197.39 -147.53 197.39 -148.21 197.39 C-149.84 199.29 -151.35 201.19 -152.84 203.2 C-153.28 203.79 -153.72 204.37 -154.17 204.97 C-155.08 206.18 -155.98 207.39 -156.88 208.6 C-158.13 210.28 -159.39 211.94 -160.65 213.6 C-161.37 214.56 -162.09 215.52 -162.84 216.51 C-163.49 217.38 -164.14 218.25 -164.81 219.15 C-166.48 221.37 -166.48 221.37 -166.21 224.39 C-166.87 224.39 -167.53 224.39 -168.21 224.39 C-169.83 226.76 -169.83 226.76 -171.46 229.76 C-173.68 233.68 -175.91 237.56 -178.27 241.39 C-180.93 245.81 -183.24 250.35 -185.5 254.98 C-187.16 258.28 -188.89 261.53 -190.64 264.78 C-193.85 270.76 -196.89 276.63 -199.25 283.01 C-200.41 285.88 -201.79 288.58 -203.21 291.33 C-205.61 296.04 -207.55 300.75 -209.29 305.75 C-210.17 308.28 -211.14 310.77 -212.15 313.26 C-214.16 318.23 -216.08 323.23 -217.99 328.23 C-219.05 330.97 -220.15 333.68 -221.27 336.39 C-223.24 341.25 -224.71 346.22 -226.21 351.23 C-227.09 354.02 -228.09 356.69 -229.21 359.39 C-231.23 364.25 -232.76 369.22 -234.26 374.26 C-235.31 377.72 -236.51 381.11 -237.79 384.49 C-238.29 386.76 -237.93 388.2 -237.21 390.39 C-236.37 390.06 -235.52 389.74 -234.65 389.4 C-228.51 387.04 -222.37 384.69 -216.21 382.39 C-215.21 382 -215.21 382 -214.2 381.61 C-213.52 381.35 -212.84 381.09 -212.15 380.83 C-211.56 380.6 -210.97 380.37 -210.36 380.13 C-203.79 377.86 -196.98 376.22 -190.27 374.39 C-189.32 374.13 -188.37 373.87 -187.39 373.6 C-171.47 369.25 -171.47 369.25 -166.65 368.89 C-163.8 368.62 -161.5 368.19 -158.71 367.39 C-155.14 366.37 -151.82 365.95 -148.13 365.63 C-146.13 365.48 -146.13 365.48 -144.21 364.39 C-142.01 364.2 -139.8 364.06 -137.59 363.95 C-131.85 363.62 -126.16 363.1 -120.46 362.39 C-119.78 362.31 -119.1 362.22 -118.4 362.14 C-115.53 361.77 -112.97 361.31 -110.21 360.39 C-110.21 296.7 -110.21 233.01 -110.21 167.39 C-114.97 167.39 -120.53 172.59 -124.27 175.33 Z M-196.82 182.22 C-199.5 183.53 -202.17 184.39 -205.02 185.26 C-210.32 186.96 -214.92 189.25 -219.75 192.01 C-222.83 193.74 -225.93 195.06 -229.21 196.39 C-230.52 196.95 -231.84 197.51 -233.15 198.08 C-234.66 198.73 -234.66 198.73 -236.21 199.39 C-236.21 200.05 -236.21 200.71 -236.21 201.39 C-237.03 201.62 -237.85 201.86 -238.69 202.1 C-242.94 203.66 -246.67 205.75 -250.59 208.01 C-251.32 208.43 -252.06 208.85 -252.82 209.29 C-254.62 210.32 -256.41 211.35 -258.21 212.39 C-258.21 213.05 -258.21 213.71 -258.21 214.39 C-258.75 214.48 -259.29 214.58 -259.85 214.67 C-262.91 215.6 -265.27 217.11 -267.96 218.83 C-268.95 219.44 -269.93 220.06 -270.95 220.7 C-271.69 221.25 -272.44 221.81 -273.21 222.39 C-273.21 223.05 -273.21 223.71 -273.21 224.39 C-274.2 224.39 -275.19 224.39 -276.21 224.39 C-276.21 225.05 -276.21 225.71 -276.21 226.39 C-276.79 226.66 -277.38 226.94 -277.98 227.22 C-280.14 228.35 -281.98 229.6 -283.93 231.07 C-284.61 231.58 -285.3 232.1 -286.01 232.63 C-286.71 233.17 -287.42 233.71 -288.15 234.26 C-288.85 234.79 -289.55 235.32 -290.28 235.87 C-292.26 237.37 -294.24 238.88 -296.21 240.39 C-297.2 241.13 -298.19 241.88 -299.21 242.65 C-299.87 243.22 -300.53 243.8 -301.21 244.39 C-301.21 245.05 -301.21 245.71 -301.21 246.39 C-301.75 246.63 -302.29 246.86 -302.85 247.11 C-305.84 248.73 -308.32 250.74 -310.96 252.89 C-311.95 253.68 -312.93 254.48 -313.95 255.29 C-315.07 256.33 -315.07 256.33 -316.21 257.39 C-316.21 258.05 -316.21 258.71 -316.21 259.39 C-316.87 259.39 -317.53 259.39 -318.21 259.39 C-319.88 260.72 -319.88 260.72 -321.21 262.39 C-321.21 263.05 -321.21 263.71 -321.21 264.39 C-322.02 264.7 -322.02 264.7 -322.84 265.01 C-326.13 266.92 -328.8 269.44 -331.21 272.39 C-331.21 273.05 -331.21 273.71 -331.21 274.39 C-332.17 274.79 -332.17 274.79 -333.15 275.2 C-335.54 276.27 -335.54 276.27 -336.21 279.39 C-336.87 279.39 -337.53 279.39 -338.21 279.39 C-339.88 280.72 -339.88 280.72 -341.21 282.39 C-341.21 283.05 -341.21 283.71 -341.21 284.39 C-341.87 284.39 -342.53 284.39 -343.21 284.39 C-344.73 286.09 -346.18 287.85 -347.59 289.64 C-349.8 292.44 -351.94 295.13 -354.5 297.62 C-356.44 299.22 -356.44 299.22 -356.21 301.39 C-356.87 301.39 -357.53 301.39 -358.21 301.39 C-360.61 304.03 -360.61 304.03 -361.21 307.39 C-361.87 307.39 -362.53 307.39 -363.21 307.39 C-364.82 309.13 -364.82 309.13 -366.46 311.39 C-367.08 312.2 -367.69 313.02 -368.32 313.86 C-368.95 314.69 -369.57 315.53 -370.21 316.39 C-371.1 317.53 -371.1 317.53 -372 318.7 C-372.82 319.75 -372.82 319.75 -373.65 320.83 C-374.39 321.78 -374.39 321.78 -375.14 322.76 C-376.39 324.34 -376.39 324.34 -376.21 326.39 C-376.87 326.39 -377.53 326.39 -378.21 326.39 C-379.66 328.12 -381.02 329.93 -382.34 331.76 C-383.42 333.26 -383.42 333.26 -384.53 334.79 C-386.39 337.15 -386.39 337.15 -386.21 339.39 C-386.87 339.39 -387.53 339.39 -388.21 339.39 C-388.69 340.3 -389.16 341.2 -389.65 342.14 C-392.4 347.02 -395.93 351.33 -399.38 355.72 C-401.49 358.26 -401.49 358.26 -401.21 361.39 C-401.87 361.39 -402.53 361.39 -403.21 361.39 C-404.46 363.02 -404.46 363.02 -405.64 365.17 C-406.12 365.98 -406.6 366.8 -407.1 367.64 C-407.61 368.52 -408.12 369.41 -408.65 370.33 C-412.65 377.14 -416.74 383.85 -421.09 390.45 C-424.64 395.88 -427.98 401.33 -431 407.08 C-432.13 409.23 -433.34 411.31 -434.59 413.39 C-436.45 416.26 -436.45 416.26 -436.21 419.39 C-436.87 419.39 -437.53 419.39 -438.21 419.39 C-438.62 420.22 -439.04 421.06 -439.46 421.92 C-442.63 428.31 -445.86 434.63 -449.27 440.89 C-452.59 447 -455.38 453.22 -457.98 459.66 C-459.21 462.39 -459.21 462.39 -461.21 464.39 C-461.84 465.83 -462.42 467.29 -462.96 468.76 C-464.51 472.77 -466.26 476.57 -468.21 480.39 C-470.46 484.8 -472.43 489.22 -474.22 493.83 C-475.32 496.66 -476.48 499.46 -477.65 502.26 C-478.28 503.78 -478.28 503.78 -478.93 505.32 C-479.77 507.34 -480.62 509.35 -481.46 511.36 C-484.1 517.63 -486.6 523.94 -489.02 530.29 C-490.98 535.4 -493 540.48 -495.1 545.52 C-497.89 552.28 -500.27 559.17 -502.66 566.08 C-504.91 572.59 -507.3 579.03 -509.77 585.45 C-510.7 587.93 -511.48 590.34 -512.21 592.89 C-513.21 596.39 -513.21 596.39 -514.65 600.08 C-515.92 603.38 -516.82 606.69 -517.65 610.14 C-519.33 617.11 -521.59 623.83 -523.99 630.58 C-527.16 639.66 -529.31 649.12 -531.34 658.51 C-532.11 661.93 -533.1 665.08 -534.21 668.39 C-535.6 673.04 -536.91 677.71 -538.21 682.39 C-538.52 683.48 -538.82 684.56 -539.14 685.69 C-540.68 691.44 -541.55 696.44 -541.21 702.39 C-538.2 698.75 -536.27 694.73 -534.21 690.51 C-533.87 689.82 -533.53 689.12 -533.17 688.41 C-532.5 687.04 -531.83 685.68 -531.16 684.31 C-530.29 682.55 -529.38 680.81 -528.46 679.07 C-527 676.43 -527 676.43 -527.21 673.39 C-526.55 673.39 -525.89 673.39 -525.21 673.39 C-524.78 672.49 -524.34 671.6 -523.89 670.68 C-520.72 664.22 -517.45 657.93 -513.66 651.8 C-512.15 649.29 -510.77 646.73 -509.4 644.14 C-506.6 638.91 -503.43 633.98 -500.11 629.07 C-497.73 625.55 -497.73 625.55 -497.21 621.39 C-496.55 621.39 -495.89 621.39 -495.21 621.39 C-494 619.84 -494 619.84 -492.86 617.8 C-492.4 617.04 -491.95 616.28 -491.48 615.5 C-490.76 614.27 -490.76 614.27 -490.02 613.01 C-485.99 606.28 -481.85 599.73 -477.21 593.39 C-476.62 592.57 -476.04 591.75 -475.43 590.91 C-470.33 583.83 -465.09 576.86 -459.85 569.89 C-459.39 569.28 -458.93 568.67 -458.45 568.03 C-457.44 566.69 -456.4 565.36 -455.36 564.04 C-454.02 562.45 -454.02 562.45 -454.21 560.39 C-453.55 560.39 -452.89 560.39 -452.21 560.39 C-450.83 558.84 -450.83 558.84 -449.46 556.83 C-447.49 554.1 -445.49 551.48 -443.27 548.95 C-440.33 545.58 -437.62 542.07 -434.92 538.5 C-433.21 536.39 -433.21 536.39 -431 534.24 C-428.98 532.58 -428.98 532.58 -429.21 530.39 C-428.55 530.39 -427.89 530.39 -427.21 530.39 C-427.21 529.73 -427.21 529.07 -427.21 528.39 C-426.55 528.39 -425.89 528.39 -425.21 528.39 C-423.8 526.79 -422.46 525.13 -421.15 523.45 C-417.34 518.66 -413.31 514.37 -408.86 510.17 C-406.98 508.55 -406.98 508.55 -407.21 506.39 C-406.22 506.06 -405.23 505.73 -404.21 505.39 C-404.21 504.73 -404.21 504.07 -404.21 503.39 C-403.55 503.39 -402.89 503.39 -402.21 503.39 C-402.21 502.73 -402.21 502.07 -402.21 501.39 C-401.22 501.06 -400.23 500.73 -399.21 500.39 C-399.21 499.73 -399.21 499.07 -399.21 498.39 C-398.55 498.39 -397.89 498.39 -397.21 498.39 C-397.21 497.73 -397.21 497.07 -397.21 496.39 C-396.22 496.06 -395.23 495.73 -394.21 495.39 C-394.21 494.73 -394.21 494.07 -394.21 493.39 C-393.55 493.39 -392.89 493.39 -392.21 493.39 C-392.21 492.73 -392.21 492.07 -392.21 491.39 C-391.64 491.13 -391.07 490.87 -390.48 490.61 C-388 489.27 -386.08 487.74 -383.96 485.89 C-383.25 485.28 -382.55 484.67 -381.82 484.04 C-379.98 482.53 -379.98 482.53 -380.21 480.39 C-379.63 480.12 -379.06 479.85 -378.46 479.58 C-376.16 478.36 -374.19 477.08 -372.21 475.39 C-372.21 474.73 -372.21 474.07 -372.21 473.39 C-371.42 473.07 -371.42 473.07 -370.62 472.74 C-367.25 470.85 -364.52 468.31 -361.65 465.76 C-356.6 461.36 -351.47 457.25 -345.99 453.39 C-342.81 451.1 -339.73 448.69 -336.65 446.26 C-331.96 442.59 -327.17 439.4 -321.94 436.54 C-321.37 436.16 -320.8 435.78 -320.21 435.39 C-320.21 434.73 -320.21 434.07 -320.21 433.39 C-319.22 433.39 -318.23 433.39 -317.21 433.39 C-317.21 432.73 -317.21 432.07 -317.21 431.39 C-316.55 431.16 -315.89 430.93 -315.21 430.7 C-311.3 428.99 -307.85 426.75 -304.27 424.45 C-300.51 422.04 -296.85 419.69 -292.81 417.77 C-289.64 416.08 -288.98 414.45 -287.92 411.09 C-286.82 406.89 -285.74 402.69 -284.74 398.46 C-283.72 394.15 -282.45 389.99 -281.01 385.79 C-279.53 381.36 -278.24 376.87 -276.9 372.39 C-274.55 364.58 -272.05 356.86 -269.28 349.2 C-267.73 344.92 -266.33 340.62 -265.02 336.26 C-263.69 331.81 -262.07 327.65 -260.21 323.39 C-259.55 321.43 -258.91 319.48 -258.27 317.51 C-256.82 313.08 -255.16 308.88 -253.21 304.65 C-252.11 302.16 -251.19 299.64 -250.27 297.08 C-246.96 287.82 -243.07 278.99 -238.61 270.24 C-237.38 267.73 -236.33 265.25 -235.34 262.64 C-231.92 253.83 -227.42 245.43 -222.91 237.13 C-222.55 236.45 -222.18 235.77 -221.8 235.07 C-221.09 233.77 -220.37 232.47 -219.65 231.17 C-218.11 228.35 -217.21 226.66 -217.21 223.39 C-216.55 223.39 -215.89 223.39 -215.21 223.39 C-214.88 221.74 -214.55 220.09 -214.21 218.39 C-213.55 218.39 -212.89 218.39 -212.21 218.39 C-211.37 216.96 -210.54 215.52 -209.71 214.08 C-209.01 212.87 -209.01 212.87 -208.3 211.65 C-206.99 209.36 -206.99 209.36 -207.21 206.39 C-206.55 206.39 -205.89 206.39 -205.21 206.39 C-203.74 204.29 -202.4 202.21 -201.09 200.01 C-200.71 199.41 -200.34 198.81 -199.96 198.19 C-197.88 195.01 -197.88 195.01 -197.21 191.39 C-196.55 191.39 -195.89 191.39 -195.21 191.39 C-193.77 189.61 -192.41 187.76 -191.09 185.89 C-190.36 184.87 -189.64 183.85 -188.89 182.79 C-188.34 182 -187.78 181.21 -187.21 180.39 C-191.28 179 -193.1 180.2 -196.82 182.22 Z M8.79 179.39 C9.4 180.31 9.4 180.31 10.03 181.25 C13.41 186.32 13.41 186.32 16.79 191.39 C17.45 191.39 18.11 191.39 18.79 191.39 C18.9 191.97 19.02 192.55 19.14 193.14 C19.84 195.56 20.79 197.2 22.19 199.29 C22.67 200.01 23.15 200.74 23.64 201.49 C24.14 202.24 24.65 202.99 25.16 203.76 C28.34 208.53 31.36 213.18 33.79 218.39 C34.45 218.39 35.11 218.39 35.79 218.39 C36.12 220.04 36.45 221.69 36.79 223.39 C37.45 223.39 38.11 223.39 38.79 223.39 C38.88 224.08 38.97 224.78 39.06 225.49 C39.95 229.04 41.52 231.63 43.41 234.76 C47.74 242.08 51.3 249.64 54.79 257.39 C55.23 258.34 55.67 259.3 56.12 260.29 C58.99 266.52 61.7 272.81 64.39 279.12 C65.49 281.7 66.63 284.27 67.79 286.83 C72.25 296.83 76.09 307.06 79.68 317.41 C80.95 321.07 82.28 324.68 83.79 328.26 C86.1 333.86 87.82 339.65 89.6 345.44 C90.72 349.1 91.88 352.72 93.26 356.29 C95.15 361.22 96.65 366.27 98.16 371.33 C98.47 372.34 98.77 373.35 99.09 374.39 C100.91 380.42 102.7 386.46 104.48 392.51 C104.68 393.19 104.88 393.87 105.08 394.57 C106.02 397.76 106.95 400.95 107.84 404.15 C108.18 405.3 108.51 406.45 108.85 407.64 C109.27 409.13 109.27 409.13 109.7 410.65 C111.81 415.95 114.82 418.76 119.85 421.26 C124.98 423.91 129.77 426.88 134.57 430.07 C136.65 431.56 136.65 431.56 138.79 431.39 C138.79 432.05 138.79 432.71 138.79 433.39 C139.78 433.39 140.77 433.39 141.79 433.39 C141.79 434.05 141.79 434.71 141.79 435.39 C143.86 436.9 143.86 436.9 146.54 438.45 C152.1 441.87 157.21 445.66 162.36 449.67 C164.56 451.58 164.56 451.58 166.79 451.39 C166.79 452.05 166.79 452.71 166.79 453.39 C168.45 454.72 170.17 455.98 171.91 457.2 C175.17 459.5 178.35 461.77 181.35 464.39 C183.52 466.6 183.52 466.6 185.79 466.39 C185.79 467.05 185.79 467.71 185.79 468.39 C189.27 472.02 189.27 472.02 193.79 473.39 C193.79 474.05 193.79 474.71 193.79 475.39 C195.43 476.84 197.13 478.23 198.85 479.58 C203.01 482.89 206.83 486.27 210.45 490.17 C211.73 491.61 211.73 491.61 213.79 491.39 C213.79 492.05 213.79 492.71 213.79 493.39 C214.45 493.39 215.11 493.39 215.79 493.39 C216.12 494.38 216.45 495.37 216.79 496.39 C217.45 496.39 218.11 496.39 218.79 496.39 C218.79 497.05 218.79 497.71 218.79 498.39 C219.45 498.39 220.11 498.39 220.79 498.39 C221.12 499.38 221.45 500.37 221.79 501.39 C222.45 501.39 223.11 501.39 223.79 501.39 C223.79 502.05 223.79 502.71 223.79 503.39 C224.45 503.39 225.11 503.39 225.79 503.39 C226.12 504.38 226.45 505.37 226.79 506.39 C227.45 506.39 228.11 506.39 228.79 506.39 C228.79 507.05 228.79 507.71 228.79 508.39 C229.45 508.39 230.11 508.39 230.79 508.39 C231.12 509.38 231.45 510.37 231.79 511.39 C232.45 511.39 233.11 511.39 233.79 511.39 C234.01 511.93 234.24 512.48 234.47 513.04 C236.2 516.12 238.43 518.43 240.85 521.01 C245.69 526.19 245.69 526.19 246.79 528.39 C247.45 528.39 248.11 528.39 248.79 528.39 C248.79 529.05 248.79 529.71 248.79 530.39 C249.45 530.39 250.11 530.39 250.79 530.39 C251.05 530.96 251.3 531.54 251.57 532.13 C252.91 534.61 254.44 536.39 256.35 538.45 C267.78 551.06 267.78 551.06 272.23 558.08 C273 559.22 273 559.22 273.79 560.39 C274.45 560.39 275.11 560.39 275.79 560.39 C276.07 560.97 276.34 561.55 276.63 562.15 C278.54 565.85 280.94 569.2 283.29 572.64 C283.79 573.38 284.29 574.13 284.8 574.9 C285.28 575.6 285.76 576.3 286.26 577.03 C286.91 578 286.91 578 287.58 578.98 C287.98 579.45 288.38 579.91 288.79 580.39 C289.45 580.39 290.11 580.39 290.79 580.39 C291.07 580.97 291.35 581.55 291.64 582.16 C292.72 584.26 293.9 586.16 295.22 588.12 C295.7 588.83 296.18 589.54 296.67 590.28 C297.19 591.04 297.7 591.79 298.23 592.58 C302.53 598.98 306.79 605.41 310.98 611.89 C311.45 612.61 311.91 613.33 312.4 614.08 C315.66 619.13 315.66 619.13 316.79 621.39 C317.45 621.39 318.11 621.39 318.79 621.39 C318.9 621.96 319.02 622.53 319.13 623.11 C319.87 625.65 320.93 627.55 322.3 629.8 C322.81 630.65 323.32 631.49 323.85 632.36 C324.39 633.24 324.92 634.11 325.48 635.01 C326.52 636.73 327.57 638.46 328.61 640.18 C330.21 642.8 331.81 645.42 333.41 648.05 C336.11 652.5 338.69 656.95 340.98 661.64 C341.44 662.59 341.91 663.55 342.39 664.53 C343.08 665.94 343.08 665.94 343.79 667.39 C344.79 669.39 345.79 671.39 346.79 673.39 C347.45 673.39 348.11 673.39 348.79 673.39 C348.88 674.06 348.96 674.74 349.05 675.44 C349.99 679.18 351.73 682.3 353.6 685.64 C356.61 691.13 359.36 696.61 361.79 702.39 C362.12 702.39 362.45 702.39 362.79 702.39 C363.42 694.54 361.06 687.84 358.79 680.39 C357.43 675.36 356.31 670.28 355.25 665.17 C354.95 663.38 354.95 663.38 353.79 662.39 C353.33 660.39 352.88 658.39 352.45 656.38 C350.42 647.19 348.38 638.22 344.66 629.55 C343.58 626.87 342.92 624.2 342.29 621.39 C341.54 618.38 340.51 615.48 339.51 612.54 C338.88 610.66 338.33 608.74 337.79 606.83 C336.85 603.59 335.72 600.5 334.51 597.36 C333.43 594.42 332.65 591.4 331.79 588.39 C331.08 586.44 330.34 584.5 329.57 582.58 C328.73 580.22 328.07 577.83 327.39 575.42 C326.21 571.42 324.8 567.5 323.41 563.58 C323.1 562.68 322.79 561.79 322.46 560.87 C320.69 555.84 318.85 550.86 316.82 545.94 C315.4 542.43 314.1 538.88 312.79 535.33 C310.92 530.29 308.96 525.33 306.71 520.45 C305.32 517.36 304.1 514.2 302.85 511.05 C299.02 501.44 294.84 492 290.5 482.61 C287.75 476.6 285.18 470.55 282.79 464.39 C282.13 464.39 281.47 464.39 280.79 464.39 C280.68 463.86 280.56 463.34 280.45 462.8 C278.29 454.32 274.06 447.05 269.9 439.44 C267.4 434.82 265.11 430.1 262.79 425.39 C261.79 423.39 260.79 421.39 259.79 419.39 C259.13 419.39 258.47 419.39 257.79 419.39 C257.7 418.69 257.61 417.99 257.52 417.27 C256.63 413.75 255.07 411.31 253.1 408.26 C250.6 404.33 248.2 400.39 246.04 396.26 C242.74 390.09 238.96 384.23 235.19 378.33 C231.96 373.26 228.83 368.16 225.88 362.91 C225.52 362.41 225.16 361.9 224.79 361.39 C224.13 361.39 223.47 361.39 222.79 361.39 C222.67 360.8 222.56 360.22 222.44 359.61 C221.74 357.21 220.83 355.8 219.32 353.82 C218.59 352.85 218.59 352.85 217.84 351.85 C217.07 350.85 217.07 350.85 216.29 349.83 C215.28 348.49 214.26 347.16 213.26 345.82 C212.81 345.23 212.36 344.65 211.9 344.04 C210.79 342.39 210.79 342.39 209.79 339.39 C209.13 339.39 208.47 339.39 207.79 339.39 C207.52 338.83 207.25 338.26 206.98 337.69 C205.71 335.23 204.3 332.95 202.79 330.64 C202.27 329.84 201.76 329.04 201.23 328.22 C200.75 327.61 200.28 327.01 199.79 326.39 C199.13 326.39 198.47 326.39 197.79 326.39 C197.56 325.69 197.34 324.99 197.11 324.27 C195.5 320.76 193.25 318.08 190.73 315.2 C185.89 309.59 185.89 309.59 184.79 307.39 C184.13 307.39 183.47 307.39 182.79 307.39 C181.79 305.39 180.79 303.39 179.79 301.39 C179.13 301.39 178.47 301.39 177.79 301.39 C177.56 300.84 177.34 300.3 177.11 299.74 C175.38 296.65 173.14 294.34 170.73 291.76 C165.89 286.58 165.89 286.58 164.79 284.39 C164.13 284.39 163.47 284.39 162.79 284.39 C162.79 283.73 162.79 283.07 162.79 282.39 C161.46 280.72 161.46 280.72 159.79 279.39 C159.13 279.39 158.47 279.39 157.79 279.39 C157.39 278.43 157.39 278.43 156.98 277.45 C155.9 275.06 155.9 275.06 152.79 274.39 C152.12 273.05 151.46 271.72 150.79 270.39 C149.8 270.06 148.81 269.73 147.79 269.39 C147.12 268.05 146.46 266.72 145.79 265.39 C144.8 265.06 143.81 264.73 142.79 264.39 C142.79 263.73 142.79 263.07 142.79 262.39 C141.46 260.72 141.46 260.72 139.79 259.39 C139.13 259.39 138.47 259.39 137.79 259.39 C137.79 258.73 137.79 258.07 137.79 257.39 C136.1 255.82 134.33 254.33 132.54 252.89 C131.56 252.09 130.59 251.3 129.59 250.48 C127.34 248.8 125.34 247.51 122.79 246.39 C122.79 245.73 122.79 245.07 122.79 244.39 C120.62 242.34 120.62 242.34 117.91 240.26 C117.01 239.54 116.1 238.81 115.17 238.07 C113 236.2 113 236.2 110.79 236.39 C110.79 235.73 110.79 235.07 110.79 234.39 C109.05 232.94 107.25 231.58 105.41 230.26 C104.42 229.54 103.42 228.81 102.39 228.07 C100.03 226.21 100.03 226.21 97.79 226.39 C97.79 225.73 97.79 225.07 97.79 224.39 C96.8 224.39 95.81 224.39 94.79 224.39 C94.79 223.73 94.79 223.07 94.79 222.39 C92.45 220.6 92.45 220.6 89.54 218.83 C88.56 218.21 87.59 217.59 86.59 216.95 C84.22 215.63 82.43 214.85 79.79 214.39 C79.79 213.73 79.79 213.07 79.79 212.39 C78.26 211.17 78.26 211.17 76.25 210.04 C75.5 209.6 74.76 209.16 73.99 208.71 C73.2 208.25 72.41 207.8 71.6 207.33 C70.83 206.87 70.06 206.41 69.27 205.93 C65.49 203.72 62.23 201.82 57.79 201.39 C57.79 200.73 57.79 200.07 57.79 199.39 C56.8 198.98 55.81 198.56 54.79 198.14 C49.9 196.04 45.17 193.65 40.48 191.16 C34.99 188.3 29.53 186.23 23.62 184.37 C21.03 183.47 18.71 182.42 16.29 181.14 C12.84 179.09 12.84 179.09 8.79 179.39 Z M-68.21 403.39 C-68.21 468.4 -68.21 533.41 -68.21 600.39 C-56.83 601.38 -56.83 601.38 -45.21 602.39 C-43.89 602.72 -42.57 603.05 -41.21 603.39 C-38.4 603.57 -35.59 603.71 -32.77 603.83 C-22.77 604.31 -13.13 605.66 -3.38 607.95 C-1.01 608.43 1.32 608.68 3.73 608.89 C10.11 609.45 16.27 610.65 22.41 612.45 C25.53 613.32 28.39 613.77 31.6 614.04 C34.04 614.43 36.36 615.09 38.72 615.79 C41.05 616.46 43.38 617.09 45.72 617.72 C56.83 620.7 67.85 623.83 78.79 627.39 C79.42 627.59 80.05 627.8 80.7 628.01 C104.85 635.89 104.85 635.89 114.79 640.39 C114.82 638.95 114.84 637.51 114.85 636.08 C114.87 634.87 114.87 634.87 114.89 633.65 C114.89 631.22 114.89 631.22 113.79 628.39 C113.52 625.75 113.35 623.11 113.17 620.47 C112.8 617.44 112.08 614.61 111.31 611.66 C110.09 606.33 109.6 600.85 108.93 595.43 C108.27 590.23 107.27 585.43 105.79 580.39 C105.05 576.42 104.51 572.41 103.93 568.42 C103.21 563.59 102.14 559.08 100.79 554.39 C100.25 551.57 99.84 548.73 99.41 545.89 C98.28 538.66 96.67 531.76 94.7 524.71 C93.72 521.13 92.97 517.56 92.29 513.91 C91.69 510.89 90.99 507.89 90.29 504.89 C89.38 501.02 88.53 497.16 87.79 493.26 C87.1 489.7 86.22 486.25 85.23 482.76 C84.3 479.5 83.58 476.39 83.23 473.01 C82.97 469.55 82.97 469.55 81.85 467.13 C80.1 462.61 79.51 457.84 78.67 453.08 C77.25 446.83 77.25 446.83 73.11 442.14 C71.03 440.91 68.91 439.82 66.73 438.76 C65.96 438.37 65.19 437.99 64.4 437.59 C58.98 434.87 53.49 432.47 47.79 430.39 C46.12 429.73 44.45 429.06 42.79 428.39 C41.97 428.06 41.14 427.73 40.3 427.39 C38.6 426.71 36.91 426.03 35.22 425.35 C32.74 424.36 30.27 423.37 27.79 422.39 C27.13 422.12 26.48 421.85 25.8 421.58 C20.85 419.61 15.81 418.34 10.62 417.13 C7.89 416.42 5.4 415.44 2.79 414.39 C0.46 414.04 -1.88 413.71 -4.21 413.39 C-7.56 412.51 -10.79 411.55 -14.02 410.33 C-17.57 409.28 -20.9 408.98 -24.57 408.67 C-28.85 408.22 -33.01 407.28 -37.21 406.39 C-48.95 403.78 -48.95 403.78 -68.21 403.39 Z M-121.84 403.76 C-122.61 403.79 -123.38 403.83 -124.17 403.86 C-128.9 404.09 -133.29 404.77 -137.89 405.88 C-142.06 406.8 -146.29 407.27 -150.52 407.83 C-163.18 408.71 -163.18 408.71 -174.21 413.39 C-175.54 413.71 -176.87 414 -178.21 414.26 C-182.3 415.13 -186.17 416.31 -190.11 417.67 C-193.11 418.69 -196.16 419.52 -199.21 420.39 C-210 423.49 -220.25 427.27 -230.23 432.43 C-232.45 433.51 -234.72 434.38 -237.02 435.26 C-240.82 436.77 -244.5 438.42 -248.15 440.26 C-249.49 440.94 -249.49 440.94 -250.86 441.63 C-255.93 445.42 -256.72 451 -257.77 456.95 C-258.56 461.37 -259.5 465.25 -261.21 469.39 C-261.47 471.37 -261.72 473.35 -261.93 475.34 C-262.48 479.41 -263.8 483.25 -265.18 487.1 C-266.34 490.8 -267.05 494.51 -267.71 498.33 C-268.6 503.46 -269.77 508.37 -271.21 513.39 C-271.77 516.04 -272.24 518.71 -272.71 521.39 C-273.38 525.21 -274.07 528.92 -275.18 532.65 C-276.59 537.77 -277.41 542.96 -278.27 548.2 C-278.62 550.27 -278.96 552.34 -279.31 554.41 C-279.46 555.32 -279.61 556.22 -279.76 557.16 C-280.21 559.39 -280.21 559.39 -281.21 561.39 C-281.47 562.75 -281.69 564.12 -281.89 565.49 C-282.02 566.31 -282.14 567.13 -282.27 567.98 C-282.52 569.69 -282.77 571.4 -283.02 573.12 C-283.57 576.78 -284.17 580.25 -285.21 583.82 C-286.55 588.6 -287.11 593.4 -287.71 598.33 C-289.02 608.95 -289.02 608.95 -290.27 613.71 C-291.1 616.97 -291.55 619.92 -291.77 623.26 C-292.11 628.18 -292.11 628.18 -293.21 630.39 C-293.28 632.1 -293.3 633.8 -293.27 635.51 C-293.26 636.88 -293.26 636.88 -293.25 638.27 C-293.23 638.97 -293.22 639.67 -293.21 640.39 C-283.8 637.18 -283.8 637.18 -274.65 633.33 C-270.01 631.18 -265.19 629.78 -260.29 628.33 C-257.77 627.56 -255.35 626.72 -252.9 625.76 C-249.77 624.6 -246.72 623.75 -243.49 622.96 C-241.11 622.36 -238.75 621.72 -236.39 621.06 C-212.4 614.35 -188.27 608.94 -163.5 606.09 C-160.59 605.74 -158.01 605.32 -155.21 604.39 C-153.85 604.25 -152.49 604.16 -151.12 604.11 C-150.34 604.07 -149.55 604.03 -148.74 603.99 C-147.93 603.96 -147.11 603.92 -146.27 603.89 C-144.66 603.82 -143.05 603.75 -141.43 603.67 C-140.72 603.64 -140.01 603.61 -139.27 603.58 C-136.86 603.41 -136.86 603.41 -133.21 602.39 C-121.83 601.4 -121.83 601.4 -110.21 600.39 C-110.21 535.38 -110.21 470.37 -110.21 403.39 C-114.09 403.39 -117.96 403.57 -121.84 403.76 Z M-311.96 479.7 C-314.95 481.99 -317.84 484.17 -321.1 486.06 C-321.8 486.5 -322.49 486.94 -323.21 487.39 C-323.21 488.05 -323.21 488.71 -323.21 489.39 C-326.21 490.89 -326.21 490.89 -329.21 492.39 C-329.21 493.05 -329.21 493.71 -329.21 494.39 C-329.77 494.66 -330.32 494.92 -330.9 495.2 C-336.58 498.1 -336.58 498.1 -341.21 502.39 C-341.21 503.05 -341.21 503.71 -341.21 504.39 C-341.79 504.66 -342.37 504.92 -342.96 505.2 C-345.27 506.42 -347.23 507.69 -349.21 509.39 C-349.21 510.05 -349.21 510.71 -349.21 511.39 C-349.77 511.64 -350.32 511.88 -350.9 512.14 C-353.64 513.62 -355.89 515.32 -358.21 517.39 C-358.21 518.05 -358.21 518.71 -358.21 519.39 C-359.2 519.72 -360.19 520.05 -361.21 520.39 C-361.21 521.05 -361.21 521.71 -361.21 522.39 C-361.87 522.39 -362.53 522.39 -363.21 522.39 C-363.21 523.05 -363.21 523.71 -363.21 524.39 C-364.2 524.72 -365.19 525.05 -366.21 525.39 C-366.21 526.05 -366.21 526.71 -366.21 527.39 C-366.78 527.64 -367.36 527.88 -367.95 528.14 C-370.56 529.58 -372.36 531.27 -374.46 533.39 C-375.17 534.09 -375.87 534.79 -376.6 535.51 C-378.43 537.23 -378.43 537.23 -378.21 539.39 C-379.2 539.72 -380.19 540.05 -381.21 540.39 C-381.21 541.05 -381.21 541.71 -381.21 542.39 C-381.87 542.39 -382.53 542.39 -383.21 542.39 C-384.71 543.84 -384.71 543.84 -386.27 545.76 C-389.9 550.05 -393.67 554.17 -397.49 558.29 C-399.42 560.19 -399.42 560.19 -399.21 562.39 C-399.87 562.39 -400.53 562.39 -401.21 562.39 C-403.11 564.39 -403.11 564.39 -405.15 567.01 C-405.94 568 -406.73 569 -407.55 570.02 C-407.97 570.56 -408.4 571.1 -408.84 571.65 C-410.3 573.5 -411.77 575.33 -413.25 577.17 C-414.26 578.43 -415.27 579.69 -416.27 580.95 C-416.76 581.56 -417.25 582.17 -417.76 582.79 C-420.36 585.73 -420.36 585.73 -421.21 589.39 C-421.87 589.39 -422.53 589.39 -423.21 589.39 C-424.94 591.61 -426.56 593.82 -428.15 596.14 C-429.03 597.4 -429.92 598.67 -430.8 599.94 C-431.22 600.54 -431.63 601.14 -432.06 601.75 C-433.01 603.1 -434.01 604.41 -435.03 605.72 C-436.4 607.32 -436.4 607.32 -436.21 609.39 C-436.87 609.39 -437.53 609.39 -438.21 609.39 C-439.73 611.43 -439.73 611.43 -441.27 614.08 C-443.8 618.17 -446.42 622.15 -449.21 626.08 C-456.3 636.24 -462.71 646.84 -469.21 657.39 C-469.92 658.54 -469.92 658.54 -470.65 659.71 C-475.39 667.36 -479.67 675.12 -483.61 683.21 C-484.98 685.94 -486.45 688.49 -488.09 691.08 C-491.44 696.51 -494.06 702.24 -496.75 708.02 C-499.14 713.15 -501.63 718.22 -504.21 723.26 C-507.83 730.38 -510.99 737.67 -514.07 745.03 C-516.01 749.66 -518.07 754.16 -520.34 758.62 C-521.49 760.95 -522.37 763.32 -523.21 765.76 C-524.42 769.19 -525.66 772.58 -527.02 775.95 C-533.75 792.63 -533.75 792.63 -539.38 809.7 C-540.07 811.93 -540.83 814.01 -541.77 816.14 C-544.85 823.1 -546.75 830.28 -548.46 837.69 C-549.15 840.15 -550.07 842.12 -551.21 844.39 C-551.38 847.06 -551.38 847.06 -551.21 849.39 C-547.91 846.31 -545.45 843.02 -542.96 839.26 C-541.9 837.68 -541.9 837.68 -540.82 836.07 C-539.04 833.62 -539.04 833.62 -539.21 831.39 C-538.55 831.39 -537.89 831.39 -537.21 831.39 C-535.41 829.13 -533.74 826.88 -532.09 824.51 C-531.62 823.86 -531.15 823.21 -530.67 822.54 C-528.1 819.28 -528.1 819.28 -527.21 815.39 C-526.55 815.39 -525.89 815.39 -525.21 815.39 C-523.62 813.67 -523.62 813.67 -522.09 811.51 C-521.55 810.79 -521.01 810.07 -520.45 809.33 C-519.03 807.49 -519.03 807.49 -519.21 805.39 C-518.55 805.39 -517.89 805.39 -517.21 805.39 C-515.17 803.22 -515.17 803.22 -513.09 800.51 C-512.36 799.61 -511.64 798.7 -510.89 797.77 C-509.02 795.6 -509.02 795.6 -509.21 793.39 C-508.55 793.39 -507.89 793.39 -507.21 793.39 C-505.4 791.67 -505.4 791.67 -503.59 789.51 C-502.95 788.79 -502.32 788.07 -501.67 787.33 C-500.01 785.53 -500.01 785.53 -500.21 783.39 C-499.22 783.06 -498.23 782.73 -497.21 782.39 C-495.53 780.73 -495.53 780.73 -493.9 778.7 C-491.62 776 -489.32 773.46 -486.77 771.01 C-483.98 768.76 -483.98 768.76 -484.21 766.39 C-483.25 765.99 -483.25 765.99 -482.27 765.58 C-479.88 764.5 -479.88 764.5 -479.21 761.39 C-477.89 760.7 -476.55 760.04 -475.21 759.39 C-473.79 758.08 -472.42 756.72 -471.09 755.33 C-467.41 751.49 -467.41 751.49 -465.21 750.39 C-465.21 749.73 -465.21 749.07 -465.21 748.39 C-464.22 748.06 -463.23 747.73 -462.21 747.39 C-462.21 746.73 -462.21 746.07 -462.21 745.39 C-461.67 745.16 -461.14 744.93 -460.59 744.7 C-457.39 742.93 -454.92 740.85 -452.21 738.39 C-452.21 737.73 -452.21 737.07 -452.21 736.39 C-451.35 735.99 -451.35 735.99 -450.48 735.58 C-448.13 734.35 -446.09 732.96 -443.96 731.39 C-443.25 730.87 -442.55 730.36 -441.82 729.83 C-441.29 729.35 -440.76 728.88 -440.21 728.39 C-440.21 727.73 -440.21 727.07 -440.21 726.39 C-439.67 726.14 -439.14 725.89 -438.59 725.64 C-435.63 724.08 -432.91 722.35 -430.21 720.39 C-430.21 719.73 -430.21 719.07 -430.21 718.39 C-429.65 718.12 -429.09 717.85 -428.51 717.58 C-426.06 716.31 -423.77 714.9 -421.46 713.39 C-420.66 712.87 -419.86 712.36 -419.04 711.83 C-418.44 711.35 -417.83 710.88 -417.21 710.39 C-417.21 709.73 -417.21 709.07 -417.21 708.39 C-416.12 708 -416.12 708 -415 707.61 C-412.09 706.33 -410.03 704.84 -407.59 702.83 C-405.01 700.71 -403.39 699.45 -400.21 698.39 C-400.21 697.73 -400.21 697.07 -400.21 696.39 C-399.53 696.16 -398.85 695.93 -398.15 695.7 C-395.09 694.33 -392.72 692.67 -390.04 690.69 C-386.02 687.83 -381.65 685.52 -377.21 683.39 C-377.21 682.73 -377.21 682.07 -377.21 681.39 C-375.56 681.06 -373.91 680.73 -372.21 680.39 C-372.21 679.73 -372.21 679.07 -372.21 678.39 C-371.35 678.2 -371.35 678.2 -370.48 678.02 C-368.11 677.36 -366.14 676.45 -363.96 675.33 C-363.25 674.96 -362.55 674.6 -361.82 674.23 C-361.29 673.95 -360.76 673.67 -360.21 673.39 C-360.21 672.73 -360.21 672.07 -360.21 671.39 C-358.56 671.06 -356.91 670.73 -355.21 670.39 C-355.21 669.73 -355.21 669.07 -355.21 668.39 C-354.12 668.21 -354.12 668.21 -353 668.03 C-350.18 667.38 -348.06 666.47 -345.52 665.08 C-344.76 664.67 -343.99 664.26 -343.2 663.84 C-338.65 660.52 -338.08 654.64 -337.21 649.39 C-336.9 646.22 -336.66 643.07 -336.46 639.89 C-336.21 637.39 -336.21 637.39 -335.21 635.39 C-334.89 633.01 -334.6 630.65 -334.34 628.26 C-333.59 621.85 -332.56 615.54 -331.32 609.21 C-330.26 603.78 -329.42 598.34 -328.64 592.86 C-328.21 590.39 -328.21 590.39 -327.21 588.39 C-327.03 586.73 -326.89 585.06 -326.77 583.39 C-326.22 576.82 -325.16 570.5 -323.24 564.19 C-322.05 559.78 -321.36 555.4 -320.71 550.89 C-319.9 545.22 -318.83 539.89 -317.21 534.39 C-316.92 532.31 -316.92 532.31 -316.84 530.39 C-316.38 525.57 -315.11 521.06 -313.8 516.41 C-312.12 510.31 -310.99 504.18 -309.92 497.95 C-309.21 494.39 -309.21 494.39 -308.2 491.35 C-307.11 488.08 -306.57 484.93 -306.09 481.51 C-305.92 480.36 -305.75 479.21 -305.58 478.02 C-305.46 477.15 -305.34 476.28 -305.21 475.39 C-307.55 475.39 -310.1 478.27 -311.96 479.7 Z M126.79 475.39 C127.82 483.55 129.49 491.24 131.85 499.12 C132.86 502.65 133.62 506.16 134.29 509.77 C134.9 512.97 135.59 516.14 136.29 519.33 C138.26 528.49 139.87 537.69 141.32 546.95 C141.67 549.38 141.67 549.38 142.79 551.39 C143.06 553.52 143.23 555.66 143.41 557.81 C143.74 560.51 143.74 560.51 144.73 563.53 C146.28 569.16 146.9 574.87 147.64 580.65 C148.33 585.73 149.28 590.47 150.79 595.39 C152.01 600.92 152.84 606.43 153.29 612.08 C153.6 616 154.26 619.55 155.32 623.34 C156.07 626.62 156.29 629.94 156.54 633.29 C156.67 635.44 156.67 635.44 157.79 637.39 C157.95 639.18 158.07 640.97 158.16 642.76 C158.79 654.22 158.79 654.22 164.23 663.76 C165.99 664.57 165.99 664.57 167.79 665.39 C168.78 665.9 169.76 666.41 170.78 666.94 C176.03 670.06 176.03 670.06 181.79 671.39 C181.79 672.05 181.79 672.71 181.79 673.39 C182.96 673.97 184.14 674.54 185.35 675.14 C188.18 676.55 190.94 678.03 193.66 679.64 C196.48 681.55 196.48 681.55 198.79 681.39 C198.79 682.05 198.79 682.71 198.79 683.39 C199.72 683.9 200.65 684.42 201.6 684.95 C205.9 687.39 210.01 690.09 214.14 692.8 C216.64 694.3 219.06 695.39 221.79 696.39 C221.79 697.05 221.79 697.71 221.79 698.39 C223.27 699.19 223.27 699.19 224.79 700.01 C228.48 702.1 231.77 704.58 235.09 707.22 C236.72 708.58 236.72 708.58 238.79 708.39 C238.79 709.05 238.79 709.71 238.79 710.39 C240.52 711.83 242.33 713.2 244.16 714.51 C245.16 715.24 246.16 715.96 247.19 716.71 C249.55 718.57 249.55 718.57 251.79 718.39 C251.79 719.05 251.79 719.71 251.79 720.39 C253.5 721.98 253.5 721.98 255.66 723.51 C256.38 724.05 257.1 724.59 257.84 725.15 C259.69 726.57 259.69 726.57 261.79 726.39 C261.79 727.05 261.79 727.71 261.79 728.39 C263.96 730.43 263.96 730.43 266.66 732.51 C267.57 733.24 268.47 733.96 269.41 734.71 C271.58 736.58 271.58 736.58 273.79 736.39 C273.79 737.05 273.79 737.71 273.79 738.39 C275.5 740.2 275.5 740.2 277.66 742.01 C278.38 742.64 279.1 743.28 279.84 743.93 C281.65 745.59 281.65 745.59 283.79 745.39 C284.12 746.38 284.45 747.37 284.79 748.39 C285.45 748.39 286.11 748.39 286.79 748.39 C286.79 749.05 286.79 749.71 286.79 750.39 C288.44 752.06 288.44 752.06 290.54 753.76 C292.86 755.73 295.04 757.65 297.16 759.83 C298.65 761.62 298.65 761.62 300.79 761.39 C300.79 762.05 300.79 762.71 300.79 763.39 C302.12 765.05 302.12 765.05 303.79 766.39 C304.45 766.39 305.11 766.39 305.79 766.39 C306 766.93 306.22 767.48 306.44 768.04 C308.25 771.2 310.74 773.52 313.35 776.01 C318.67 781.15 318.67 781.15 319.79 783.39 C320.45 783.39 321.11 783.39 321.79 783.39 C322.02 783.92 322.24 784.46 322.48 785.01 C324.24 788.21 326.33 790.68 328.79 793.39 C329.45 793.39 330.11 793.39 330.79 793.39 C331.06 793.96 331.33 794.53 331.6 795.12 C332.83 797.47 334.21 799.51 335.79 801.64 C336.3 802.34 336.82 803.05 337.35 803.78 C337.83 804.31 338.3 804.84 338.79 805.39 C339.45 805.39 340.11 805.39 340.79 805.39 C341.04 805.92 341.28 806.46 341.54 807.01 C343.1 809.97 344.82 812.69 346.79 815.39 C347.45 815.39 348.11 815.39 348.79 815.39 C349.04 816.09 349.28 816.8 349.54 817.52 C350.95 820.76 352.71 823.35 354.79 826.2 C355.49 827.18 356.19 828.15 356.91 829.16 C357.53 829.89 358.15 830.63 358.79 831.39 C359.45 831.39 360.11 831.39 360.79 831.39 C361.02 832.07 361.26 832.76 361.5 833.46 C363.06 837 365.13 840.05 367.35 843.2 C367.76 843.8 368.18 844.4 368.6 845.01 C369.63 846.49 370.71 847.94 371.79 849.39 C372.12 849.39 372.45 849.39 372.79 849.39 C372.99 845.59 372.45 843.04 370.91 839.58 C369.39 835.96 368.23 832.48 367.34 828.65 C365.49 821.08 363.1 813.81 359.79 806.76 C358.12 802.79 357.01 798.65 355.79 794.52 C354.68 791.06 353.27 787.86 351.72 784.57 C350.7 782.19 349.99 779.82 349.29 777.33 C348.18 773.43 346.71 770.07 344.82 766.5 C343.65 764.1 342.79 761.67 341.91 759.14 C340.09 753.94 337.74 749.16 335.22 744.27 C333.97 741.75 332.91 739.27 331.91 736.64 C329.97 731.61 327.57 726.85 325.13 722.05 C322.69 717.23 320.36 712.37 318.06 707.48 C314.21 699.26 310.19 691.26 305.58 683.43 C303.96 680.68 302.42 677.89 300.91 675.08 C291.17 657.14 280.24 639.84 268.82 622.93 C265.88 618.57 265.88 618.57 264.79 616.39 C264.13 616.39 263.47 616.39 262.79 616.39 C262.48 615.6 262.17 614.82 261.85 614.01 C260.86 611.46 260.86 611.46 259.79 609.39 C259.13 609.39 258.47 609.39 257.79 609.39 C257.57 608.72 257.36 608.06 257.13 607.38 C255.34 603.38 252.89 600.08 250.29 596.58 C249.54 595.54 249.54 595.54 248.78 594.48 C248.3 593.82 247.82 593.17 247.32 592.49 C246.88 591.9 246.45 591.3 245.99 590.69 C245.4 590.04 245.4 590.04 244.79 589.39 C244.13 589.39 243.47 589.39 242.79 589.39 C242.51 588.8 242.23 588.21 241.95 587.6 C240 583.88 237.34 580.71 234.79 577.39 C233.94 576.25 233.09 575.12 232.24 573.98 C231.34 572.78 230.44 571.58 229.54 570.39 C229.1 569.8 228.67 569.21 228.22 568.61 C227.12 567.16 225.96 565.77 224.79 564.39 C224.13 564.39 223.47 564.39 222.79 564.39 C222.79 563.73 222.79 563.07 222.79 562.39 C222.13 562.39 221.47 562.39 220.79 562.39 C220.58 561.86 220.38 561.34 220.16 560.8 C218.19 557.34 215.52 554.69 212.79 551.83 C211.7 550.68 210.62 549.53 209.54 548.38 C209.06 547.88 208.58 547.38 208.09 546.86 C206.79 545.39 206.79 545.39 204.79 542.39 C204.13 542.39 203.47 542.39 202.79 542.39 C202.46 541.4 202.13 540.41 201.79 539.39 C201.13 539.39 200.47 539.39 199.79 539.39 C199.57 538.85 199.36 538.31 199.13 537.75 C197.32 534.57 194.87 532.18 192.29 529.64 C191.79 529.13 191.29 528.62 190.78 528.1 C188.26 525.26 188.26 525.26 184.79 524.39 C184.79 523.73 184.79 523.07 184.79 522.39 C184.13 522.39 183.47 522.39 182.79 522.39 C182.46 521.4 182.13 520.41 181.79 519.39 C181.13 519.39 180.47 519.39 179.79 519.39 C179.79 518.73 179.79 518.07 179.79 517.39 C178.3 515.81 178.3 515.81 176.41 514.26 C175.79 513.72 175.16 513.19 174.52 512.63 C172.87 511.19 172.87 511.19 170.79 511.39 C170.79 510.73 170.79 510.07 170.79 509.39 C167.31 505.75 167.31 505.75 162.79 504.39 C162.79 503.73 162.79 503.07 162.79 502.39 C160.62 500.34 160.62 500.34 157.91 498.26 C156.56 497.18 156.56 497.18 155.17 496.07 C153 494.2 153 494.2 150.79 494.39 C150.79 493.73 150.79 493.07 150.79 492.39 C148.15 489.99 148.15 489.99 144.79 489.39 C144.79 488.73 144.79 488.07 144.79 487.39 C143.49 486.48 142.19 485.58 140.85 484.74 C137.15 482.32 133.64 479.63 130.08 477 C128.12 475.29 128.12 475.29 126.79 475.39 Z M-68.21 642.39 C-68.21 768.78 -68.21 895.17 -68.21 1025.39 C-65.57 1023.74 -62.93 1022.09 -60.21 1020.39 C-60.21 1019.73 -60.21 1019.07 -60.21 1018.39 C-59.22 1018.39 -58.23 1018.39 -57.21 1018.39 C-57.21 1017.73 -57.21 1017.07 -57.21 1016.39 C-56.54 1016.16 -55.88 1015.93 -55.19 1015.69 C-51.36 1014.01 -48.02 1011.79 -44.52 1009.51 C-39.26 1006.14 -34.21 1003.28 -28.3 1001.18 C-26.28 1000.41 -24.56 999.51 -22.71 998.39 C-19.17 996.26 -15.45 994.8 -11.61 993.32 C-9.68 992.57 -7.78 991.74 -5.9 990.89 C-1.46 989.08 3.06 987.74 7.64 986.36 C10.78 985.39 13.84 984.29 16.9 983.11 C25.69 979.77 34.55 977.56 43.79 975.85 C45.78 975.58 45.78 975.58 46.79 974.39 C55.42 972.14 64.22 970.79 73.03 969.45 C77.09 968.82 81.13 968.17 85.16 967.33 C94.96 965.31 104.62 964.14 114.61 963.73 C118.45 963.56 122.03 963.15 125.79 962.39 C127.48 962.19 129.17 962.01 130.87 961.85 C131.8 961.77 132.73 961.68 133.69 961.59 C134.65 961.5 135.61 961.42 136.6 961.33 C137.58 961.23 138.56 961.14 139.57 961.05 C141.98 960.83 144.38 960.61 146.79 960.39 C146.53 953.84 146.26 947.29 145.99 940.75 C145.9 938.52 145.81 936.3 145.72 934.07 C145.59 930.86 145.46 927.66 145.32 924.45 C145.29 923.46 145.25 922.48 145.21 921.46 C145.03 917.31 144.81 913.2 144.27 909.07 C143.84 905.81 143.62 902.66 143.54 899.37 C143.5 897.73 143.5 897.73 143.45 896.05 C143.4 894.33 143.4 894.33 143.35 892.58 C143.07 883.68 142.57 874.9 141.52 866.07 C140.79 859.81 140.4 853.56 140.13 847.26 C140 844.46 139.86 841.75 139.29 839 C138.5 834.87 138.5 830.71 138.35 826.51 C138.04 818.9 137.38 811.51 136.26 803.97 C135.58 798.84 135.3 793.7 135.04 788.53 C134.9 785.57 134.9 785.57 134.29 783.46 C133.49 780.15 133.5 776.78 133.35 773.39 C133.04 767.32 132.42 761.45 131.33 755.47 C129.77 746.56 128.81 737.6 128.29 728.58 C127.98 723.26 127.31 718.21 126.26 713 C125.77 710.27 125.51 707.59 125.29 704.83 C125.21 703.92 125.12 703.02 125.04 702.1 C124.87 700.28 124.74 698.47 124.64 696.65 C124.34 693.92 123.98 691.87 122.79 689.39 C119.74 686.98 116.4 685.76 112.79 684.39 C111.01 683.56 109.24 682.73 107.48 681.89 C96.89 677.13 86 673.19 74.85 669.95 C71.51 668.97 68.36 667.82 65.16 666.45 C59.93 664.27 54.56 662.98 49.06 661.7 C43.88 660.48 43.88 660.48 42.79 659.39 C40.59 658.87 38.38 658.4 36.16 657.95 C32.5 657.2 28.92 656.42 25.32 655.38 C21.53 654.32 17.73 653.57 13.85 652.89 C5.52 651.39 5.52 651.39 1.48 650.26 C-2.63 649.29 -6.59 648.92 -10.79 648.63 C-13.21 648.39 -13.21 648.39 -16.21 647.39 C-17.65 647.19 -19.1 647.03 -20.55 646.89 C-21.39 646.81 -22.22 646.72 -23.08 646.64 C-23.95 646.56 -24.82 646.47 -25.71 646.39 C-27.43 646.22 -29.15 646.06 -30.87 645.89 C-32.01 645.78 -32.01 645.78 -33.17 645.67 C-35.21 645.39 -35.21 645.39 -38.21 644.39 C-39.9 644.25 -41.59 644.16 -43.29 644.11 C-44.29 644.07 -45.28 644.03 -46.31 643.99 C-47.35 643.96 -48.39 643.92 -49.46 643.89 C-51.51 643.82 -53.55 643.75 -55.6 643.67 C-56.51 643.64 -57.42 643.61 -58.35 643.58 C-61.66 643.36 -64.93 642.86 -68.21 642.39 Z M-113.57 642.86 C-119.47 643.72 -125.41 643.74 -131.36 643.91 C-138.15 644.14 -144.56 645.04 -151.21 646.39 C-157.64 647.49 -164.02 648.42 -170.52 648.89 C-174.44 649.18 -178.04 649.72 -181.84 650.79 C-185.18 651.63 -188.57 652.21 -191.96 652.83 C-203.43 654.01 -203.43 654.01 -213.21 658.39 C-214.53 658.74 -215.87 659.04 -217.21 659.33 C-218.02 659.5 -218.84 659.68 -219.68 659.86 C-221.29 660.2 -222.91 660.53 -224.53 660.86 C-228.78 661.75 -232.71 662.88 -236.77 664.49 C-239.29 665.42 -241.84 666.2 -244.41 666.98 C-253.59 669.74 -262.49 673.08 -271.42 676.54 C-274.97 677.92 -278.54 679.22 -282.15 680.45 C-283.84 681.08 -285.53 681.73 -287.21 682.39 C-288.43 682.86 -289.65 683.34 -290.91 683.83 C-297.57 686.48 -297.57 686.48 -302.47 691.43 C-303.05 694.12 -303.14 696.63 -303.21 699.39 C-303.44 701.72 -303.71 704.04 -303.99 706.37 C-304.26 708.75 -304.51 711.13 -304.75 713.51 C-305.21 717.39 -305.21 717.39 -306.21 720.39 C-306.41 723.06 -306.58 725.71 -306.71 728.39 C-307.08 735.98 -307.08 735.98 -308.21 739.39 C-308.41 740.97 -308.57 742.55 -308.71 744.13 C-308.79 745.05 -308.88 745.97 -308.96 746.92 C-309.04 747.88 -309.13 748.84 -309.21 749.83 C-309.37 751.72 -309.54 753.62 -309.71 755.51 C-309.78 756.35 -309.86 757.19 -309.93 758.05 C-310.19 760.24 -310.68 762.25 -311.21 764.39 C-311.41 767.22 -311.58 770.05 -311.71 772.89 C-312.08 780.87 -312.08 780.87 -312.7 783.28 C-313.33 785.89 -313.52 788.42 -313.71 791.11 C-313.79 792.2 -313.88 793.3 -313.96 794.43 C-314.04 795.57 -314.13 796.71 -314.21 797.89 C-314.37 800.15 -314.54 802.41 -314.71 804.67 C-314.78 805.67 -314.86 806.67 -314.93 807.7 C-315.17 810.04 -315.64 812.12 -316.21 814.39 C-316.34 815.99 -316.43 817.59 -316.49 819.2 C-316.53 820.11 -316.57 821.02 -316.61 821.96 C-316.64 822.91 -316.68 823.85 -316.71 824.83 C-316.78 826.7 -316.85 828.57 -316.93 830.45 C-316.96 831.27 -316.99 832.1 -317.02 832.96 C-317.21 835.39 -317.21 835.39 -317.7 837.76 C-318.33 840.99 -318.52 844.16 -318.71 847.45 C-318.75 848.11 -318.79 848.78 -318.83 849.47 C-318.96 851.59 -319.09 853.71 -319.21 855.83 C-319.37 858.62 -319.54 861.41 -319.71 864.2 C-319.78 865.43 -319.86 866.67 -319.93 867.94 C-320.21 871.39 -320.21 871.39 -320.72 874.43 C-321.25 877.6 -321.4 880.65 -321.49 883.85 C-321.53 885.07 -321.57 886.28 -321.61 887.53 C-321.64 888.78 -321.68 890.03 -321.71 891.33 C-321.78 893.81 -321.85 896.3 -321.93 898.79 C-321.96 899.89 -321.99 900.99 -322.02 902.12 C-322.21 905.39 -322.21 905.39 -322.7 908.6 C-323.37 913.59 -323.55 918.55 -323.75 923.57 C-323.81 925.16 -323.81 925.16 -323.88 926.77 C-324.01 930.12 -324.14 933.47 -324.27 936.83 C-324.36 939.11 -324.46 941.39 -324.55 943.67 C-324.77 949.24 -324.99 954.81 -325.21 960.39 C-324.6 960.44 -323.99 960.5 -323.36 960.56 C-320.58 960.81 -317.8 961.07 -315.02 961.33 C-314.06 961.41 -313.1 961.5 -312.12 961.59 C-311.18 961.68 -310.25 961.76 -309.29 961.85 C-308.01 961.97 -308.01 961.97 -306.71 962.09 C-304.21 962.39 -304.21 962.39 -301.64 962.91 C-298.03 963.62 -294.38 963.67 -290.71 963.83 C-280.48 964.32 -270.63 965.86 -260.61 967.95 C-257.39 968.54 -254.18 968.82 -250.93 969.04 C-246.96 969.55 -243.11 970.48 -239.21 971.39 C-238.29 971.6 -237.37 971.81 -236.42 972.03 C-223.23 975.1 -210.12 978.29 -197.21 982.39 C-196.56 982.59 -195.92 982.8 -195.25 983.01 C-175.29 989.39 -156.29 997.33 -137.96 1007.45 C-137.19 1007.87 -136.42 1008.3 -135.63 1008.73 C-132.26 1010.61 -128.97 1012.51 -125.79 1014.7 C-123.45 1016.57 -123.45 1016.57 -121.21 1016.39 C-121.21 1017.05 -121.21 1017.71 -121.21 1018.39 C-117.99 1020.7 -117.99 1020.7 -114.21 1021.39 C-114.21 1022.05 -114.21 1022.71 -114.21 1023.39 C-112.89 1024.05 -111.57 1024.71 -110.21 1025.39 C-110.21 899 -110.21 772.61 -110.21 642.39 C-111.45 642.36 -111.45 642.36 -113.57 642.86 Z M-543.21 703.39 C-542.21 707.39 -542.21 707.39 -542.21 707.39 Z M363.79 703.39 C364.79 707.39 364.79 707.39 364.79 707.39 Z M-355.4 717.42 C-356.43 718.07 -357.46 718.71 -358.52 719.38 C-359.59 720.06 -360.67 720.75 -361.77 721.45 C-363.34 722.44 -363.34 722.44 -364.95 723.44 C-370.83 727.15 -376.6 730.99 -382.27 735.04 C-384.21 736.39 -384.21 736.39 -386.21 737.39 C-386.21 738.05 -386.21 738.71 -386.21 739.39 C-386.99 739.7 -387.78 740.01 -388.59 740.33 C-391.13 741.32 -391.13 741.32 -393.21 742.39 C-393.21 743.05 -393.21 743.71 -393.21 744.39 C-393.89 744.6 -394.56 744.81 -395.25 745.03 C-399.19 746.84 -402.2 749.39 -405.52 752.14 C-406.85 753.23 -408.18 754.31 -409.52 755.4 C-410.15 755.91 -410.79 756.43 -411.44 756.97 C-413.63 758.72 -415.88 760.38 -418.15 762.01 C-419.16 762.8 -420.17 763.58 -421.21 764.39 C-421.21 765.05 -421.21 765.71 -421.21 766.39 C-421.75 766.63 -422.29 766.86 -422.85 767.11 C-425.84 768.73 -428.32 770.74 -430.96 772.89 C-431.95 773.68 -432.93 774.48 -433.95 775.29 C-434.69 775.99 -435.44 776.68 -436.21 777.39 C-436.21 778.05 -436.21 778.71 -436.21 779.39 C-436.87 779.39 -437.53 779.39 -438.21 779.39 C-439.88 780.72 -439.88 780.72 -441.21 782.39 C-441.21 783.05 -441.21 783.71 -441.21 784.39 C-441.77 784.62 -442.33 784.85 -442.9 785.09 C-445.81 786.72 -447.83 788.75 -450.2 791.11 C-451.13 792.04 -452.06 792.97 -453.03 793.93 C-453.51 794.42 -453.99 794.9 -454.48 795.4 C-455.96 796.89 -457.45 798.37 -458.94 799.85 C-460.34 801.24 -460.34 801.24 -461.76 802.67 C-463.04 803.95 -463.04 803.95 -464.35 805.27 C-466.43 807.17 -466.43 807.17 -466.21 809.39 C-466.87 809.39 -467.53 809.39 -468.21 809.39 C-469.61 810.7 -469.61 810.7 -471.09 812.51 C-471.7 813.24 -472.32 813.97 -472.96 814.72 C-473.7 815.6 -474.44 816.48 -475.21 817.39 C-476.16 818.49 -477.11 819.59 -478.06 820.69 C-486.5 830.45 -494.55 840.39 -502.15 850.83 C-502.73 851.62 -503.31 852.41 -503.91 853.23 C-504.45 853.98 -504.99 854.74 -505.55 855.51 C-506.04 856.18 -506.53 856.86 -507.03 857.55 C-508.38 859.49 -508.38 859.49 -509.21 862.39 C-509.87 862.39 -510.53 862.39 -511.21 862.39 C-511.77 863.38 -512.32 864.37 -512.89 865.4 C-515.21 869.46 -517.76 873.36 -520.34 877.26 C-527.71 888.57 -534.77 900.06 -540.64 912.23 C-541.86 914.69 -543.12 917.1 -544.43 919.52 C-548.2 926.46 -551.76 933.18 -554.25 940.71 C-555.39 943.9 -556.81 946.89 -558.27 949.95 C-560.46 954.58 -562.15 959.07 -563.5 963.99 C-564.26 966.55 -565.2 968.98 -566.21 971.45 C-569.31 979.04 -571.6 986.61 -573.46 994.59 C-574.19 997.31 -575.15 999.79 -576.21 1002.39 C-577.75 1007.78 -578.45 1012.79 -578.21 1018.39 C-577.88 1017.73 -577.55 1017.07 -577.21 1016.39 C-575.55 1015.71 -573.88 1015.05 -572.21 1014.39 C-570.28 1013.21 -568.36 1012 -566.46 1010.76 C-559.37 1006.26 -551.88 1002.8 -544.24 999.33 C-542.13 998.35 -540.06 997.32 -537.98 996.27 C-529.91 992.2 -521.42 989.4 -512.82 986.63 C-510.31 985.77 -507.95 984.87 -505.53 983.8 C-502.87 982.67 -500.64 981.9 -497.84 981.39 C-494.71 980.75 -491.78 979.95 -488.77 978.89 C-484.63 977.44 -480.49 976.58 -476.18 975.82 C-474.22 975.58 -474.22 975.58 -473.21 974.39 C-471.31 974.16 -469.41 973.94 -467.51 973.77 C-465.11 973.44 -465.11 973.44 -462.52 972.45 C-458.37 971.12 -454.26 970.51 -449.96 969.89 C-442.37 968.75 -442.37 968.75 -434.84 967.33 C-425.04 965.31 -415.38 964.14 -405.39 963.73 C-401.1 963.55 -401.1 963.55 -396.86 962.91 C-393.84 962.32 -390.89 962.07 -387.82 961.85 C-386.61 961.77 -385.41 961.68 -384.17 961.59 C-382.93 961.5 -381.68 961.42 -380.4 961.33 C-378.5 961.19 -378.5 961.19 -376.56 961.05 C-373.45 960.83 -370.33 960.61 -367.21 960.39 C-367.15 959.11 -367.09 957.83 -367.03 956.51 C-366.94 954.8 -366.86 953.1 -366.77 951.39 C-366.73 950.55 -366.69 949.71 -366.65 948.85 C-366.61 948.01 -366.57 947.18 -366.53 946.33 C-366.47 945.19 -366.47 945.19 -366.42 944.04 C-366.25 941.92 -366 939.81 -365.72 937.7 C-365.11 932.95 -364.9 928.2 -364.71 923.41 C-364.63 921.51 -364.54 919.6 -364.46 917.69 C-364.33 914.72 -364.21 911.75 -364.09 908.77 C-363.96 905.88 -363.84 902.99 -363.71 900.1 C-363.68 899.21 -363.64 898.33 -363.6 897.42 C-363.41 892.99 -362.99 888.76 -362.21 884.39 C-362.08 882.52 -361.99 880.64 -361.93 878.76 C-361.89 877.73 -361.85 876.69 -361.82 875.62 C-361.78 874.56 -361.75 873.49 -361.71 872.39 C-361.64 870.26 -361.57 868.14 -361.49 866.01 C-361.46 865.08 -361.43 864.14 -361.4 863.18 C-361.21 860.39 -361.21 860.39 -360.72 857.47 C-360.16 854.1 -359.92 850.79 -359.71 847.38 C-359.63 846.06 -359.55 844.75 -359.46 843.39 C-359.33 841.32 -359.21 839.25 -359.09 837.18 C-358.96 835.16 -358.84 833.15 -358.71 831.13 C-358.64 829.93 -358.57 828.73 -358.49 827.5 C-358.26 824.97 -357.85 822.82 -357.21 820.39 C-357.08 818.85 -356.99 817.31 -356.93 815.76 C-356.89 814.89 -356.85 814.02 -356.82 813.12 C-356.78 812.22 -356.75 811.32 -356.71 810.39 C-356.64 808.6 -356.57 806.8 -356.49 805.01 C-356.46 804.22 -356.43 803.43 -356.4 802.61 C-356.21 800.39 -356.21 800.39 -355.72 798.46 C-355.08 795.86 -354.9 793.34 -354.71 790.67 C-354.63 789.57 -354.55 788.48 -354.46 787.35 C-354.38 786.2 -354.3 785.06 -354.21 783.89 C-354.05 781.63 -353.88 779.37 -353.71 777.11 C-353.64 776.11 -353.57 775.11 -353.49 774.07 C-353.25 771.74 -352.8 769.65 -352.21 767.39 C-351.96 763.97 -351.77 760.56 -351.61 757.14 C-351.44 754.02 -351.21 751.38 -350.21 748.39 C-350.01 746.81 -349.85 745.23 -349.71 743.64 C-349.63 742.72 -349.55 741.8 -349.46 740.85 C-349.38 739.9 -349.3 738.94 -349.21 737.95 C-349.05 736.06 -348.88 734.16 -348.71 732.27 C-348.64 731.43 -348.57 730.59 -348.49 729.72 C-348.23 727.54 -347.76 725.52 -347.21 723.39 C-347.15 721.81 -347.13 720.22 -347.15 718.64 C-347.16 717.84 -347.17 717.04 -347.18 716.22 C-347.19 715.61 -347.2 715.01 -347.21 714.39 C-350.92 714.39 -352.28 715.45 -355.4 717.42 Z M168.79 714.39 C168.58 720.56 169.18 726.12 170.28 732.18 C170.99 736.66 171.27 741.15 171.54 745.67 C171.69 748.48 171.69 748.48 172.79 751.39 C172.97 753.83 173.11 756.26 173.23 758.7 C173.57 765.16 174.33 771.46 175.32 777.86 C176 782.93 176.28 788 176.54 793.11 C176.71 796.26 176.71 796.26 177.29 798.77 C178.02 802.58 178.07 806.39 178.23 810.26 C178.49 816.19 178.92 822.01 179.79 827.89 C180.77 834.55 181.18 841.15 181.45 847.87 C181.58 851.05 181.74 854.09 182.29 857.22 C183.06 862.11 183.08 867.01 183.23 871.95 C183.5 879.93 183.94 887.83 184.79 895.76 C185.8 905.22 186.18 914.65 186.45 924.15 C186.63 930.87 186.63 930.87 187.28 937.56 C187.89 942.16 188.13 946.75 188.35 951.39 C188.39 952.26 188.44 953.13 188.48 954.02 C188.59 956.15 188.69 958.27 188.79 960.39 C189.58 960.44 190.37 960.5 191.19 960.56 C194.78 960.81 198.38 961.07 201.98 961.33 C203.85 961.46 203.85 961.46 205.75 961.59 C207.56 961.72 207.56 961.72 209.39 961.85 C210.5 961.93 211.6 962.01 212.74 962.09 C215.49 962.36 218.09 962.83 220.79 963.39 C223.62 963.56 226.45 963.71 229.29 963.83 C239.52 964.32 249.37 965.86 259.39 967.95 C261.88 968.4 264.33 968.67 266.85 968.89 C272.6 969.4 278.1 970.44 283.55 972.36 C287.95 973.76 292.42 974.48 296.96 975.24 C300.81 975.92 304.19 976.87 307.79 978.39 C309.68 978.9 311.57 979.38 313.48 979.83 C321.64 981.82 329.46 984.16 337.23 987.36 C339.85 988.41 342.5 989.38 345.16 990.33 C354.66 993.76 363.84 997.7 372.79 1002.39 C373.82 1002.92 374.85 1003.46 375.91 1004.01 C382.37 1007.42 388.57 1011.05 394.64 1015.1 C396.66 1016.56 396.66 1016.56 398.79 1016.39 C399.12 1017.05 399.45 1017.71 399.79 1018.39 C400 1013.66 399.26 1009.8 397.98 1005.26 C397.6 1003.93 397.23 1002.6 396.86 1001.27 C396.68 1000.62 396.5 999.96 396.31 999.29 C395.57 996.57 394.93 993.82 394.29 991.08 C393.17 986.52 391.65 982.33 389.82 978.02 C388.64 975.01 387.71 971.98 386.79 968.89 C384.39 960.91 381.26 953.36 377.84 945.78 C376.67 943.13 375.57 940.45 374.48 937.76 C371.48 930.53 368.14 923.46 364.79 916.39 C364.13 916.39 363.47 916.39 362.79 916.39 C362.7 915.7 362.61 915.01 362.52 914.3 C361.63 910.74 359.97 907.88 358.1 904.76 C357.36 903.5 356.62 902.24 355.88 900.98 C355.52 900.37 355.16 899.75 354.79 899.11 C353.49 896.87 352.3 894.57 351.1 892.26 C347.56 885.69 343.39 879.51 339.28 873.29 C338.73 872.46 338.18 871.63 337.62 870.77 C337.12 870.02 336.63 869.27 336.11 868.5 C334.87 866.51 333.8 864.51 332.79 862.39 C332.13 862.39 331.47 862.39 330.79 862.39 C330.51 861.81 330.24 861.22 329.95 860.63 C328.83 858.48 327.61 856.57 326.21 854.6 C325.72 853.89 325.22 853.18 324.7 852.45 C324.17 851.71 323.65 850.96 323.1 850.2 C322.56 849.44 322.03 848.69 321.47 847.91 C315.98 839.86 315.98 839.86 309.79 832.39 C309.13 832.39 308.47 832.39 307.79 832.39 C307.39 831.53 307.39 831.53 306.98 830.65 C305.75 828.31 304.36 826.26 302.79 824.14 C302.27 823.43 301.76 822.73 301.23 822 C300.75 821.47 300.28 820.94 299.79 820.39 C299.13 820.39 298.47 820.39 297.79 820.39 C297.39 819.51 297.39 819.51 296.98 818.62 C295.77 816.36 294.45 814.58 292.79 812.64 C292.27 812.02 291.76 811.41 291.23 810.78 C289.88 809.16 289.88 809.16 287.79 809.39 C287.56 808.83 287.32 808.27 287.08 807.7 C285.45 804.79 283.43 802.77 281.07 800.4 C280.14 799.47 279.21 798.53 278.25 797.57 C277.76 797.09 277.28 796.61 276.78 796.11 C275.29 794.64 273.81 793.15 272.33 791.66 C270.93 790.26 270.93 790.26 269.51 788.84 C268.22 787.56 268.22 787.56 266.91 786.25 C265.01 784.17 265.01 784.17 262.79 784.39 C262.79 783.73 262.79 783.07 262.79 782.39 C261.46 780.72 261.46 780.72 259.79 779.39 C259.13 779.39 258.47 779.39 257.79 779.39 C257.79 778.73 257.79 778.07 257.79 777.39 C254.31 773.75 254.31 773.75 249.79 772.39 C249.79 771.73 249.79 771.07 249.79 770.39 C246.73 767.36 246.73 767.36 242.79 766.39 C242.79 765.73 242.79 765.07 242.79 764.39 C240.68 762.58 238.56 760.88 236.35 759.2 C235.4 758.47 235.4 758.47 234.42 757.72 C233.15 756.73 231.86 755.75 230.58 754.77 C227.51 752.4 224.49 749.96 221.46 747.53 C219.85 746.2 219.85 746.2 217.79 746.39 C217.79 745.73 217.79 745.07 217.79 744.39 C216.8 744.39 215.81 744.39 214.79 744.39 C214.79 743.73 214.79 743.07 214.79 742.39 C213.47 742.06 212.15 741.73 210.79 741.39 C210.79 740.73 210.79 740.07 210.79 739.39 C209.8 739.39 208.81 739.39 207.79 739.39 C207.79 738.73 207.79 738.07 207.79 737.39 C205.79 735.87 205.79 735.87 203.16 734.33 C202.16 733.71 201.16 733.09 200.12 732.45 C198.47 731.43 198.47 731.43 196.79 730.39 C194.45 728.9 192.12 727.39 189.79 725.89 C188.61 725.13 187.42 724.37 186.24 723.61 C184 722.17 181.78 720.72 179.56 719.26 C178.58 718.62 177.61 717.98 176.6 717.33 C175.74 716.76 174.88 716.19 174 715.6 C171.77 714.15 171.77 714.15 168.79 714.39 Z M-644.09 1129.33 C-647.7 1134.54 -649.15 1138.99 -648.21 1145.39 C-646.05 1152.04 -642.31 1156.14 -636.19 1159.5 C-631.66 1160.85 -627.21 1160.71 -622.5 1160.72 C-621.46 1160.73 -620.43 1160.74 -619.35 1160.74 C-617.16 1160.75 -614.96 1160.76 -612.77 1160.76 C-609.42 1160.76 -606.08 1160.8 -602.73 1160.84 C-600.59 1160.84 -598.46 1160.85 -596.32 1160.85 C-595.32 1160.86 -594.33 1160.88 -593.31 1160.89 C-586.47 1160.85 -580.84 1159.75 -575.69 1154.98 C-571.47 1150.22 -569.71 1145.89 -569.9 1139.51 C-570.67 1134.27 -573.2 1129.99 -577.15 1126.51 C-583.39 1122.18 -588.51 1122.07 -595.92 1122.05 C-596.96 1122.05 -598 1122.04 -599.07 1122.03 C-601.26 1122.02 -603.46 1122.02 -605.66 1122.02 C-609 1122.01 -612.34 1121.98 -615.69 1121.94 C-617.83 1121.93 -619.97 1121.93 -622.11 1121.93 C-623.1 1121.91 -624.09 1121.9 -625.11 1121.88 C-632.75 1121.93 -638.88 1123.46 -644.09 1129.33 Z M-124.09 1129.33 C-127.7 1134.54 -129.15 1138.99 -128.21 1145.39 C-126.05 1152.04 -122.31 1156.14 -116.19 1159.5 C-111.66 1160.85 -107.21 1160.71 -102.5 1160.72 C-101.46 1160.73 -100.43 1160.74 -99.35 1160.74 C-97.16 1160.75 -94.96 1160.76 -92.77 1160.76 C-89.42 1160.76 -86.08 1160.8 -82.73 1160.84 C-80.59 1160.84 -78.46 1160.85 -76.32 1160.85 C-75.32 1160.86 -74.33 1160.88 -73.31 1160.89 C-66.47 1160.85 -60.84 1159.75 -55.69 1154.98 C-51.47 1150.22 -49.71 1145.89 -49.9 1139.51 C-50.67 1134.27 -53.2 1129.99 -57.15 1126.51 C-63.39 1122.18 -68.51 1122.07 -75.92 1122.05 C-76.96 1122.05 -78 1122.04 -79.07 1122.03 C-81.26 1122.02 -83.46 1122.02 -85.66 1122.02 C-89 1122.01 -92.34 1121.98 -95.69 1121.94 C-97.83 1121.93 -99.97 1121.93 -102.11 1121.93 C-103.1 1121.91 -104.09 1121.9 -105.11 1121.88 C-112.75 1121.93 -118.88 1123.46 -124.09 1129.33 Z M395.91 1129.33 C392.3 1134.54 390.85 1138.99 391.79 1145.39 C393.95 1152.04 397.69 1156.14 403.81 1159.5 C408.34 1160.85 412.79 1160.71 417.5 1160.72 C418.54 1160.73 419.57 1160.74 420.65 1160.74 C422.84 1160.75 425.04 1160.76 427.23 1160.76 C430.58 1160.76 433.92 1160.8 437.27 1160.84 C439.41 1160.84 441.54 1160.85 443.68 1160.85 C444.68 1160.86 445.67 1160.88 446.69 1160.89 C453.53 1160.85 459.16 1159.75 464.31 1154.98 C468.53 1150.22 470.29 1145.89 470.1 1139.51 C469.33 1134.27 466.8 1129.99 462.85 1126.51 C456.61 1122.18 451.49 1122.07 444.08 1122.05 C443.04 1122.05 442 1122.04 440.93 1122.03 C438.74 1122.02 436.54 1122.02 434.34 1122.02 C431 1122.01 427.66 1121.98 424.31 1121.94 C422.17 1121.93 420.03 1121.93 417.89 1121.93 C416.9 1121.91 415.91 1121.9 414.89 1121.88 C407.25 1121.93 401.12 1123.46 395.91 1129.33 Z " fill="#000000" transform="translate(729.2109375,38.61181640625)"/>
</svg>
